<?xml version="1.0" standalone="no"?>
<!DOCTYPE svg PUBLIC "-//W3C//DTD SVG 1.1//EN" "http://www.w3.org/Graphics/SVG/1.1/DTD/svg11.dtd" >
<svg xmlns="http://www.w3.org/2000/svg" xmlns:xlink="http://www.w3.org/1999/xlink" version="1.1">
<metadata>
Created by FontForge 20230101 at Wed Jun  5 17:39:46 2002
 By Webmaster
 The digitally encoded machine readable software for producing the
 Typefaces licensed to you is copyrighted (c) 1991, 2002 Adobe Systems.
 All Rights Reserved. This software is the property of Adobe Systems
 Incorporated and its licensors, and may not be reproduced, used, 
 displayed, modified, disclosed or transferred without the express 
 written approval of Adobe.
 
 The digitally encoded machine readable outline data for producing the Typefaces 
 provided as part of your laser printer is copyrighted (c) 1981, 2002 Heidelberger Druckmaschinen AG. 
 All rights reserved. This data is the property of Heidelberger Druckmaschinen AG, 
 and may not be reproduced, used, displayed, modified, disclosed or transferred 
 without the express written approval of Heidelberger Druckmaschinen AG. 
</metadata>
<defs>
<font id="FrutigerLTStd-LightCn" horiz-adv-x="480" >
  <font-face 
    font-family="Frutiger LT Std"
    font-weight="300"
    font-stretch="condensed"
    units-per-em="1000"
    panose-1="2 11 4 6 2 2 4 2 2 4"
    ascent="750"
    descent="-250"
    x-height="510"
    cap-height="698"
    bbox="-100 -250 1000 913"
    underline-thickness="50"
    underline-position="-100"
    stemh="54"
    stemv="58"
    unicode-range="U+0020-FB02"
  />
<missing-glyph horiz-adv-x="500" 
d="M0 0v700h500v-700h-500zM250 395l170 255h-340zM280 350l170 -255v510zM80 50h340l-170 255zM50 605v-510l170 255z" />
    <glyph glyph-name="fi" unicode="fi" horiz-adv-x="463" 
d="M332 0v510h58v-510h-58zM326 623v90h70v-90h-70zM94 0v456h-79v54h79v109c0 77 21 143 125 143c20 0 34 -3 44 -5v-58c-10 4 -26 9 -46 9c-51 0 -65 -37 -65 -78v-120h90v-54h-90v-456h-58z" />
    <glyph glyph-name="fl" unicode="fl" horiz-adv-x="463" 
d="M332 0v750h58v-750h-58zM94 0v456h-79v54h79v109c0 77 21 143 125 143c20 0 34 -3 44 -5v-58c-10 4 -26 9 -46 9c-51 0 -65 -37 -65 -78v-120h90v-54h-90v-456h-58z" />
    <glyph glyph-name=".notdef" horiz-adv-x="500" 
d="M0 0v700h500v-700h-500zM250 395l170 255h-340zM280 350l170 -255v510zM80 50h340l-170 255zM50 605v-510l170 255z" />
    <glyph glyph-name="space" unicode=" " horiz-adv-x="240" 
 />
    <glyph glyph-name="exclam" unicode="!" horiz-adv-x="352" 
d="M149 172l-10 526h74l-10 -526h-54zM139 0v90h74v-90h-74z" />
    <glyph glyph-name="quotedbl" unicode="&#x22;" 
d="M140 528v222h58v-222h-58zM282 528v222h58v-222h-58z" />
    <glyph glyph-name="numbersign" unicode="#" 
d="M86 0l26 222h-88v50h94l19 154h-88v50h94l26 222h50l-26 -222h125l26 222h50l-26 -222h88v-50h-94l-19 -154h88v-50h-94l-26 -222h-50l26 222h-125l-26 -222h-50zM187 426l-19 -154h125l19 154h-125z" />
    <glyph glyph-name="dollar" unicode="$" 
d="M257 310v-252c69 23 79 97 79 119c0 61 -28 95 -79 133zM221 420v223c-38 -11 -77 -38 -77 -98s28 -89 77 -125zM221 701v82h36v-78h3c56 0 94 -16 110 -22l-3 -70c-27 16 -59 34 -110 34v-255c111 -81 145 -115 145 -206c0 -101 -60 -172 -145 -190v-89h-36v86h-6
c-43 0 -96 10 -132 33l4 72c48 -43 105 -47 123 -47h11v284l-17 12c-97 66 -126 110 -126 189c0 122 87 157 143 165z" />
    <glyph glyph-name="percent" unicode="%" horiz-adv-x="815" 
d="M610 -7c-102 0 -133 92 -133 189s31 189 133 189s133 -92 133 -189s-31 -189 -133 -189zM610 47c75 0 75 97 75 135s0 135 -75 135s-75 -97 -75 -135s0 -135 75 -135zM205 327c-102 0 -133 92 -133 189s31 189 133 189s133 -92 133 -189s-31 -189 -133 -189zM205 381
c75 0 75 97 75 135s0 135 -75 135s-75 -97 -75 -135s0 -135 75 -135zM223 -33l313 764h54l-313 -764h-54z" />
    <glyph glyph-name="ampersand" unicode="&#x26;" horiz-adv-x="574" 
d="M277 379l144 -201c24 48 42 130 47 216h58c-4 -44 -15 -169 -70 -266l102 -128h-79l-58 84c-8 -17 -62 -91 -176 -91c-144 0 -189 97 -189 201c0 95 57 160 138 203c-38 46 -75 97 -75 164c0 50 36 144 156 144c90 0 138 -70 138 -133c0 -97 -65 -147 -136 -193zM351 564
c0 27 -13 83 -80 83c-64 0 -90 -51 -90 -90c0 -44 25 -81 63 -135c34 21 107 66 107 142zM389 128l-163 228c-73 -52 -108 -92 -108 -173c0 -29 20 -132 131 -132c56 0 110 33 140 77z" />
    <glyph glyph-name="quoteright" unicode="&#x2019;" horiz-adv-x="240" 
d="M181 750l-64 -222h-58l48 222h74z" />
    <glyph glyph-name="parenleft" unicode="(" horiz-adv-x="259" 
d="M231 -134l-48 -6c-78 134 -137 291 -137 448s59 314 137 448l48 -6c-65 -140 -123 -285 -123 -442s58 -302 123 -442z" />
    <glyph glyph-name="parenright" unicode=")" horiz-adv-x="259" 
d="M28 750l48 6c78 -134 137 -291 137 -448s-59 -314 -137 -448l-48 6c65 140 123 285 123 442s-58 302 -123 442z" />
    <glyph glyph-name="asterisk" unicode="*" 
d="M129 460l73 116l-118 39l20 58l113 -53l-8 130h62l-8 -130l113 53l20 -58l-118 -39l73 -116l-52 -29l-59 115l-59 -115z" />
    <glyph glyph-name="plus" unicode="+" horiz-adv-x="600" 
d="M275 0v228h-228v50h228v228h50v-228h228v-50h-228v-228h-50z" />
    <glyph glyph-name="comma" unicode="," horiz-adv-x="240" 
d="M159 90l-64 -222h-58l48 222h74z" />
    <glyph glyph-name="hyphen" unicode="-" horiz-adv-x="296" 
d="M46 250v58h204v-58h-204z" />
    <glyph glyph-name="period" unicode="." horiz-adv-x="240" 
d="M81 0v98h78v-98h-78z" />
    <glyph glyph-name="slash" unicode="/" horiz-adv-x="259" 
d="M248 705l-187 -712h-50l187 712h50z" />
    <glyph glyph-name="zero" unicode="0" 
d="M434 349c0 -121 -24 -356 -194 -356s-194 235 -194 356s24 356 194 356s194 -235 194 -356zM372 349c0 83 -7 298 -132 298s-132 -215 -132 -298s7 -298 132 -298s132 215 132 298z" />
    <glyph glyph-name="one" unicode="1" 
d="M120 570l124 128h62v-698h-62v628l-90 -104z" />
    <glyph glyph-name="two" unicode="2" 
d="M67 0v61l53 66c81 100 218 259 218 395c0 71 -32 125 -109 125c-44 0 -100 -26 -133 -55l-9 69c31 20 80 44 147 44c124 0 170 -96 170 -183c0 -132 -118 -280 -177 -353l-90 -111h276v-58h-346z" />
    <glyph glyph-name="three" unicode="3" 
d="M49 21l5 68c19 -13 83 -38 130 -38c79 0 154 42 154 150c0 90 -71 132 -154 132h-58v58c97 0 207 16 207 131c0 18 -6 125 -139 125c-29 0 -68 -7 -115 -41l-5 66c26 18 95 33 128 33c151 0 197 -108 197 -177c0 -85 -49 -135 -125 -157v-2c56 -9 130 -69 130 -176
c0 -133 -84 -200 -226 -200c-71 0 -105 16 -129 28z" />
    <glyph glyph-name="four" unicode="4" 
d="M31 230l257 468h82v-473h79v-58h-79v-167h-62v167h-277v63zM306 636l-221 -411h223v411h-2z" />
    <glyph glyph-name="five" unicode="5" 
d="M87 20l3 67c48 -32 98 -36 120 -36c114 0 152 91 152 171c0 82 -40 154 -151 154c-55 0 -72 -7 -113 -24c-2 0 -3 -1 -4 -1v347h297v-58h-239v-220c18 7 49 14 77 14c156 0 199 -103 199 -212c0 -132 -72 -229 -221 -229c-62 0 -91 14 -120 27z" />
    <glyph glyph-name="six" unicode="6" 
d="M405 686l-5 -70c-16 8 -48 31 -104 31c-185 0 -192 -273 -192 -303h2c41 91 118 98 145 98c143 0 183 -142 183 -229c0 -93 -48 -220 -194 -220c-169 0 -194 193 -194 309c0 85 0 403 244 403c37 0 80 -8 115 -19zM120 221c0 -137 72 -170 120 -170c56 0 128 39 128 172
c0 49 -22 161 -128 161c-72 0 -120 -68 -120 -163z" />
    <glyph glyph-name="seven" unicode="7" 
d="M65 640v58h350v-61l-219 -637h-70l227 640h-288z" />
    <glyph glyph-name="eight" unicode="8" 
d="M177 364c-70 38 -116 98 -116 178c0 119 106 163 180 163c139 0 177 -96 177 -160c0 -97 -77 -150 -119 -179c51 -27 137 -72 137 -181c0 -80 -47 -192 -197 -192c-125 0 -195 88 -195 189c0 125 117 176 133 182zM352 542c0 64 -55 105 -113 105s-112 -46 -112 -112
c0 -58 43 -115 125 -145c70 50 100 105 100 152zM370 184c0 84 -77 125 -139 154l-20 -12c-101 -56 -101 -118 -101 -146c0 -66 46 -129 133 -129c43 0 127 25 127 133z" />
    <glyph glyph-name="nine" unicode="9" 
d="M75 12l5 70c16 -8 48 -31 104 -31c185 0 192 273 192 303h-2c-41 -91 -118 -98 -145 -98c-143 0 -183 142 -183 229c0 93 48 220 194 220c169 0 194 -193 194 -309c0 -85 0 -403 -244 -403c-37 0 -80 8 -115 19zM360 477c0 137 -72 170 -120 170
c-56 0 -128 -39 -128 -172c0 -49 22 -161 128 -161c72 0 120 68 120 163z" />
    <glyph glyph-name="colon" unicode=":" horiz-adv-x="240" 
d="M81 412v98h78v-98h-78zM81 0v98h78v-98h-78z" />
    <glyph glyph-name="semicolon" unicode=";" horiz-adv-x="240" 
d="M159 90l-64 -222h-58l48 222h74zM81 412v98h78v-98h-78z" />
    <glyph glyph-name="less" unicode="&#x3c;" horiz-adv-x="600" 
d="M47 226v54l506 233v-54l-444 -206l444 -206v-54z" />
    <glyph glyph-name="equal" unicode="=" horiz-adv-x="600" 
d="M47 325v50h506v-50h-506zM47 131v50h506v-50h-506z" />
    <glyph glyph-name="greater" unicode="&#x3e;" horiz-adv-x="600" 
d="M553 280v-54l-506 -233v54l444 206l-444 206v54z" />
    <glyph glyph-name="question" unicode="?" horiz-adv-x="444" 
d="M94 614l-5 68c35 14 70 23 108 23c133 0 179 -83 179 -168c0 -58 -8 -89 -86 -201c-48 -68 -56 -95 -56 -165h-58c5 113 11 117 76 212c50 73 58 112 58 147c0 68 -42 117 -112 117c-17 0 -58 -3 -104 -33zM164 0v90h74v-90h-74z" />
    <glyph glyph-name="at" unicode="@" horiz-adv-x="800" 
d="M254 290c0 -57 23 -95 82 -95c100 0 172 142 172 226c0 60 -27 90 -77 90c-106 0 -177 -132 -177 -221zM563 541h50l-95 -273c-4 -13 -12 -29 -12 -41c0 -16 6 -31 43 -32c81 1 157 116 157 216c0 161 -145 248 -306 248c-169 0 -306 -137 -306 -310s137 -310 306 -310
c111 0 224 36 285 128h54c-68 -118 -201 -174 -339 -174c-197 0 -356 159 -356 356s159 356 356 356c198 0 356 -116 356 -297c0 -125 -107 -259 -209 -259c-49 0 -87 24 -87 63h-1c-25 -26 -69 -63 -128 -63c-83 0 -127 61 -127 136c0 128 95 272 231 272
c52 0 86 -30 103 -78h3z" />
    <glyph glyph-name="A" unicode="A" horiz-adv-x="556" 
d="M13 0l232 698h66l232 -698h-66l-61 192h-278l-63 -192h-62zM277 632l-121 -382h241l-118 382h-2z" />
    <glyph glyph-name="B" unicode="B" horiz-adv-x="500" 
d="M142 640v-249h85c73 0 129 47 129 130c0 66 -36 119 -127 119h-87zM142 333v-275h88c135 0 141 112 141 134c0 82 -48 141 -134 141h-95zM80 0v698h163c122 0 179 -83 179 -169c0 -104 -66 -144 -110 -162v-2c64 -18 125 -68 125 -170c0 -195 -187 -195 -237 -195h-120z
" />
    <glyph glyph-name="C" unicode="C" horiz-adv-x="537" 
d="M469 82l3 -67c-19 -7 -61 -22 -119 -22c-207 0 -296 173 -296 360c0 180 85 352 300 352c36 0 84 -7 117 -23l-3 -70c-19 16 -69 35 -119 35c-49 0 -229 -23 -229 -296c0 -243 148 -300 228 -300c53 0 80 13 118 31z" />
    <glyph glyph-name="D" unicode="D" horiz-adv-x="556" 
d="M80 0v698h91c232 0 341 -113 341 -339c0 -203 -99 -359 -324 -359h-108zM142 640v-582h64c155 0 240 116 240 291c0 109 -17 291 -251 291h-53z" />
    <glyph glyph-name="E" unicode="E" horiz-adv-x="444" 
d="M80 0v698h296v-58h-234v-248h223v-58h-223v-276h245v-58h-307z" />
    <glyph glyph-name="F" unicode="F" horiz-adv-x="407" 
d="M80 0v698h285v-58h-223v-248h212v-58h-212v-334h-62z" />
    <glyph glyph-name="G" unicode="G" horiz-adv-x="593" 
d="M330 317v58h187v-344c-50 -27 -104 -38 -161 -38c-245 0 -305 230 -305 363c0 179 107 349 303 349c56 0 125 -22 146 -34l-3 -68c-27 21 -94 44 -147 44c-100 0 -233 -76 -233 -297c0 -128 58 -299 242 -299c36 0 64 4 96 21v245h-125z" />
    <glyph glyph-name="H" unicode="H" horiz-adv-x="556" 
d="M80 0v698h62v-306h272v306h62v-698h-62v334h-272v-334h-62z" />
    <glyph glyph-name="I" unicode="I" horiz-adv-x="222" 
d="M80 0v698h62v-698h-62z" />
    <glyph glyph-name="J" unicode="J" horiz-adv-x="296" 
d="M21 0v66c15 -6 27 -11 47 -11c84 0 86 73 86 139v504h62v-506c0 -103 -18 -199 -146 -199c-19 0 -36 4 -49 7z" />
    <glyph glyph-name="K" unicode="K" horiz-adv-x="500" 
d="M80 0v698h62v-306h2l252 306h76l-279 -332l302 -366h-82l-269 342h-2v-342h-62z" />
    <glyph glyph-name="L" unicode="L" horiz-adv-x="389" 
d="M80 0v698h62v-640h227v-58h-289z" />
    <glyph glyph-name="M" unicode="M" horiz-adv-x="740" 
d="M80 0v698h95l194 -606h2l194 606h95v-698h-58v640h-2l-206 -640h-47l-207 640h-2v-640h-58z" />
    <glyph glyph-name="N" unicode="N" horiz-adv-x="593" 
d="M80 0v698h80l293 -620h2v620h58v-698h-80l-293 616h-2v-616h-58z" />
    <glyph glyph-name="O" unicode="O" horiz-adv-x="594" 
d="M51 349c0 61 0 356 246 356s246 -295 246 -356s0 -356 -246 -356s-246 295 -246 356zM117 349c0 -55 0 -298 180 -298s180 243 180 298s0 298 -180 298s-180 -243 -180 -298z" />
    <glyph glyph-name="P" unicode="P" horiz-adv-x="463" 
d="M142 640v-278h63c92 0 153 31 153 139c0 139 -104 139 -162 139h-54zM80 0v698h131c131 0 213 -56 213 -197c0 -151 -105 -197 -195 -197h-87v-304h-62z" />
    <glyph glyph-name="Q" unicode="Q" horiz-adv-x="594" 
d="M525 -128h-79l-112 125c-7 0 -19 -4 -37 -4c-246 0 -246 295 -246 356s0 356 246 356s246 -295 246 -356c0 -51 0 -270 -148 -335zM117 349c0 -55 0 -298 180 -298s180 243 180 298s0 298 -180 298s-180 -243 -180 -298z" />
    <glyph glyph-name="R" unicode="R" horiz-adv-x="500" 
d="M80 0v698h161c121 0 184 -76 184 -178c0 -119 -78 -158 -137 -169v-2c20 -4 55 -15 71 -60l105 -289h-66l-85 239c-22 63 -42 86 -92 86h-79v-325h-62zM142 640v-257h85c125 0 132 114 132 134c0 115 -92 123 -136 123h-81z" />
    <glyph glyph-name="S" unicode="S" horiz-adv-x="426" 
d="M56 26l4 72c48 -43 105 -47 123 -47c112 0 126 100 126 126c0 81 -48 114 -132 170c-97 66 -126 110 -126 189c0 155 141 169 182 169c56 0 94 -16 110 -22l-3 -70c-27 16 -59 34 -111 34c-40 0 -112 -21 -112 -102c0 -69 36 -96 96 -140c124 -91 162 -123 162 -219
c0 -117 -80 -193 -187 -193c-43 0 -96 10 -132 33z" />
    <glyph glyph-name="T" unicode="T" horiz-adv-x="426" 
d="M20 640v58h386v-58h-162v-640h-62v640h-162z" />
    <glyph glyph-name="U" unicode="U" horiz-adv-x="574" 
d="M80 257v441h62v-440c0 -105 20 -207 145 -207c131 0 145 113 145 207v440h62v-441c0 -138 -45 -264 -207 -264s-207 114 -207 264z" />
    <glyph glyph-name="V" unicode="V" horiz-adv-x="519" 
d="M225 0l-209 698h66l171 -612h2l186 612h62l-220 -698h-58z" />
    <glyph glyph-name="W" unicode="W" horiz-adv-x="778" 
d="M167 0l-155 698h66l125 -624h2l145 624h85l131 -624h2l136 624h62l-161 -698h-78l-137 628h-2l-148 -628h-73z" />
    <glyph glyph-name="X" unicode="X" horiz-adv-x="519" 
d="M229 370l-192 328h74l159 -278l162 278h66l-195 -328l206 -370h-74l-170 317l-181 -317h-74z" />
    <glyph glyph-name="Y" unicode="Y" horiz-adv-x="500" 
d="M219 0v303l-176 395h66l142 -338l140 338h66l-176 -395v-303h-62z" />
    <glyph glyph-name="Z" unicode="Z" horiz-adv-x="444" 
d="M36 0v62l299 578h-289v58h355v-60l-300 -580h307v-58h-372z" />
    <glyph glyph-name="bracketleft" unicode="[" horiz-adv-x="259" 
d="M78 -140v896h127v-46h-73v-804h73v-46h-127z" />
    <glyph glyph-name="backslash" unicode="\" horiz-adv-x="259" 
d="M198 -7l-187 712h50l187 -712h-50z" />
    <glyph glyph-name="bracketright" unicode="]" horiz-adv-x="259" 
d="M181 756v-896h-127v46h73v804h-73v46h127z" />
    <glyph glyph-name="asciicircum" unicode="^" horiz-adv-x="600" 
d="M498 245l-198 391l-198 -391h-58l231 453h50l231 -453h-58z" />
    <glyph glyph-name="underscore" unicode="_" horiz-adv-x="500" 
d="M0 -125v50h500v-50h-500z" />
    <glyph glyph-name="quoteleft" unicode="&#x2018;" horiz-adv-x="240" 
d="M59 528l64 222h58l-48 -222h-74z" />
    <glyph glyph-name="a" unicode="a" horiz-adv-x="444" 
d="M378 348v-234c0 -38 3 -76 6 -114h-52l-4 73h-2c-35 -56 -77 -80 -143 -80c-79 0 -142 65 -142 148c0 163 173 166 246 166h37c0 64 0 156 -106 156c-68 0 -122 -48 -128 -53l-9 62c48 26 84 45 140 45c157 0 157 -132 157 -169zM324 197v60c-120 0 -221 0 -221 -116
c0 -43 32 -94 94 -94c27 0 127 11 127 150z" />
    <glyph glyph-name="b" unicode="b" horiz-adv-x="463" 
d="M64 169v581h58v-306h2c30 47 68 73 129 73c128 0 169 -146 169 -243c0 -71 -6 -281 -172 -281c-64 0 -98 29 -134 77h-2v-70h-54c2 44 4 89 4 169zM360 255c0 118 -30 208 -117 208c-125 0 -125 -146 -125 -214c0 -104 27 -202 126 -202c116 0 116 166 116 208z" />
    <glyph glyph-name="c" unicode="c" horiz-adv-x="370" 
d="M347 499l-3 -66c-23 19 -62 26 -92 26c-78 0 -149 -54 -149 -189c0 -187 103 -219 158 -219c23 0 69 7 86 27l5 -66c-25 -11 -63 -19 -99 -19c-109 0 -212 84 -212 260c0 156 69 264 211 264c41 0 71 -8 95 -18z" />
    <glyph glyph-name="d" unicode="d" horiz-adv-x="463" 
d="M399 750v-581c0 -80 2 -125 4 -169h-54v70h-2c-38 -48 -70 -77 -134 -77c-166 0 -172 210 -172 281c0 97 41 243 169 243c65 0 103 -26 129 -73h2v306h58zM103 255c0 -42 0 -208 116 -208c99 0 126 98 126 202c0 68 0 214 -125 214c-87 0 -117 -90 -117 -208z" />
    <glyph glyph-name="e" unicode="e" horiz-adv-x="426" 
d="M385 236h-282c0 -189 121 -189 144 -189c33 0 81 16 110 42l3 -67c-24 -13 -58 -29 -119 -29c-200 0 -200 211 -200 262c0 192 95 262 181 262c148 0 163 -157 163 -281zM103 290h220c0 135 -57 173 -104 173c-79 0 -116 -107 -116 -173z" />
    <glyph glyph-name="f" unicode="f" horiz-adv-x="259" 
d="M94 0v456h-79v54h79v109c0 77 21 143 125 143c20 0 34 -3 44 -5v-58c-10 4 -26 9 -46 9c-51 0 -65 -37 -65 -78v-120h90v-54h-90v-456h-58z" />
    <glyph glyph-name="g" unicode="g" horiz-adv-x="463" 
d="M41 236c0 71 6 281 172 281c64 0 104 -29 134 -82h2v75h54c-2 -44 -4 -89 -4 -169v-329c0 -144 -55 -234 -191 -234c-55 0 -81 8 -145 28l4 65c49 -28 107 -39 140 -39c126 0 134 116 134 168v70h-2c-30 -51 -68 -77 -129 -77c-128 0 -169 146 -169 243zM103 255
c0 -118 30 -208 117 -208c96 0 125 85 125 214c0 104 -27 202 -126 202c-116 0 -116 -166 -116 -208z" />
    <glyph glyph-name="h" unicode="h" horiz-adv-x="463" 
d="M68 0v750h58v-315h2c10 22 45 82 126 82c141 0 141 -141 141 -175v-342h-58v344c0 35 0 119 -95 119c-71 0 -116 -67 -116 -146v-317h-58z" />
    <glyph glyph-name="i" unicode="i" horiz-adv-x="204" 
d="M73 0v510h58v-510h-58zM67 623v90h70v-90h-70z" />
    <glyph glyph-name="j" unicode="j" horiz-adv-x="204" 
d="M73 -96v606h58v-598c0 -52 -4 -134 -102 -134c-21 0 -30 3 -38 6v58c7 -3 12 -6 27 -6c25 0 55 0 55 68zM67 623v90h70v-90h-70z" />
    <glyph glyph-name="k" unicode="k" horiz-adv-x="426" 
d="M70 0v750h58v-445l193 205h74l-216 -226l236 -284h-78l-207 259h-2v-259h-58z" />
    <glyph glyph-name="l" unicode="l" horiz-adv-x="204" 
d="M73 0v750h58v-750h-58z" />
    <glyph glyph-name="m" unicode="m" horiz-adv-x="686" 
d="M68 0v352c0 53 -3 105 -4 158h54c2 -23 3 -38 4 -75h2c16 37 53 82 118 82c84 0 105 -53 117 -82c15 24 53 82 127 82c103 0 132 -86 132 -166v-351h-58v344c0 35 0 119 -83 119c-72 -1 -105 -64 -105 -136v-327h-58v355c0 66 -29 108 -77 108c-66 0 -111 -67 -111 -146
v-317h-58z" />
    <glyph glyph-name="n" unicode="n" horiz-adv-x="463" 
d="M68 0v352c0 53 -3 105 -4 158h54c2 -23 3 -38 4 -75h2c12 22 45 82 130 82c141 0 141 -141 141 -175v-342h-58v344c0 35 0 119 -95 119c-71 0 -116 -67 -116 -146v-317h-58z" />
    <glyph glyph-name="o" unicode="o" horiz-adv-x="464" 
d="M232 47c129 0 129 167 129 208s0 208 -129 208s-129 -167 -129 -208s0 -208 129 -208zM232 -7c-149 0 -191 134 -191 262s42 262 191 262s191 -134 191 -262s-42 -262 -191 -262z" />
    <glyph glyph-name="p" unicode="p" horiz-adv-x="463" 
d="M64 -216v557c0 80 -2 125 -4 169h54v-75h2c34 53 76 82 134 82c166 0 172 -210 172 -245c0 -145 -47 -279 -169 -279c-61 0 -105 26 -129 71h-2v-280h-58zM360 255c0 42 0 208 -116 208c-99 0 -126 -98 -126 -202c0 -68 0 -214 125 -214c87 0 117 90 117 208z" />
    <glyph glyph-name="q" unicode="q" horiz-adv-x="463" 
d="M399 341v-557h-58v286h-2c-30 -51 -68 -77 -129 -77c-128 0 -169 146 -169 243c0 71 6 281 172 281c64 0 104 -29 134 -82h2v75h54c-2 -44 -4 -89 -4 -169zM103 255c0 -118 30 -208 117 -208c96 0 125 85 125 214c0 104 -27 202 -126 202c-116 0 -116 -166 -116 -208z
" />
    <glyph glyph-name="r" unicode="r" horiz-adv-x="278" 
d="M68 0v352c0 53 -3 105 -4 158h54c1 -30 3 -60 4 -81h2c37 73 80 88 136 88v-62c-92 0 -134 -40 -134 -134v-321h-58z" />
    <glyph glyph-name="s" unicode="s" horiz-adv-x="352" 
d="M287 502l-8 -60c-29 11 -54 21 -87 21c-60 0 -87 -45 -87 -81c0 -47 18 -57 87 -95c70 -38 124 -64 124 -146c0 -92 -65 -148 -151 -148c-63 0 -99 13 -129 24l8 65c17 -12 69 -35 116 -35c55 0 94 42 94 88c0 49 -31 69 -91 99c-86 43 -120 70 -120 142
c0 96 82 141 150 141c34 0 75 -9 94 -15z" />
    <glyph glyph-name="t" unicode="t" horiz-adv-x="278" 
d="M94 612l58 18v-120h104v-54h-104v-332c0 -41 7 -77 56 -77c27 0 37 6 48 11v-58c-14 -5 -40 -7 -67 -7c-75 0 -95 58 -95 115v348h-76v54h76v102z" />
    <glyph glyph-name="u" unicode="u" horiz-adv-x="463" 
d="M395 510v-352c0 -53 3 -105 4 -158h-54c-2 23 -3 38 -4 75h-2c-6 -22 -45 -82 -130 -82c-111 0 -141 80 -141 161v356h58v-344c0 -35 0 -119 95 -119c71 0 116 67 116 146v317h58z" />
    <glyph glyph-name="v" unicode="v" horiz-adv-x="390" 
d="M160 0l-149 510h62l121 -444h2l125 444h58l-149 -510h-70z" />
    <glyph glyph-name="w" unicode="w" horiz-adv-x="648" 
d="M148 0l-137 510h62l107 -448h2l103 448h74l112 -448h2l106 448h58l-133 -510h-72l-110 444h-2l-104 -444h-68z" />
    <glyph glyph-name="x" unicode="x" horiz-adv-x="389" 
d="M155 275l-132 235h70l101 -190l105 190h66l-138 -239l151 -271h-70l-118 224l-113 -224h-66z" />
    <glyph glyph-name="y" unicode="y" horiz-adv-x="370" 
d="M72 510l114 -424h2l114 424h58l-167 -605c-19 -69 -35 -127 -116 -127c-16 0 -25 2 -39 6l3 59c10 -7 28 -11 41 -11c28 0 43 27 52 59l26 97l-150 522h62z" />
    <glyph glyph-name="z" unicode="z" horiz-adv-x="370" 
d="M30 0v58l244 398h-236v54h298v-58l-244 -398h248v-54h-310z" />
    <glyph glyph-name="braceleft" unicode="{" horiz-adv-x="259" 
d="M241 756v-46h-30c-42 0 -63 -19 -63 -71v-211c0 -77 -25 -108 -64 -119v-2c39 -11 64 -42 64 -119v-211c0 -52 21 -71 63 -71h30v-46h-45c-69 0 -102 34 -102 116v180c0 101 -14 129 -60 129v46c46 0 60 28 60 129v180c0 82 33 116 102 116h45z" />
    <glyph glyph-name="bar" unicode="|" horiz-adv-x="222" 
d="M86 -250v1000h50v-1000h-50z" />
    <glyph glyph-name="braceright" unicode="}" horiz-adv-x="259" 
d="M165 156v-180c0 -82 -33 -116 -102 -116h-45v46h30c42 0 63 19 63 71v211c0 77 25 108 64 119v2c-39 11 -64 42 -64 119v211c0 52 -21 71 -63 71h-30v46h45c69 0 102 -34 102 -116v-180c0 -101 14 -129 60 -129v-46c-46 0 -60 -28 -60 -129z" />
    <glyph glyph-name="asciitilde" unicode="~" horiz-adv-x="600" 
d="M495 316l36 -36c-30 -42 -63 -86 -125 -86c-37 0 -69 15 -102 33c-32 18 -69 35 -107 35c-47 0 -72 -37 -92 -72l-36 36c22 42 58 86 125 86c34 0 73 -13 111 -32c36 -18 75 -36 102 -36c40 0 65 37 88 72z" />
    <glyph glyph-name="exclamdown" unicode="&#xa1;" horiz-adv-x="352" 
d="M203 338l10 -526h-74l10 526h54zM213 510v-90h-74v90h74z" />
    <glyph glyph-name="cent" unicode="&#xa2;" 
d="M234 64l59 395h-8c-79 0 -150 -54 -150 -189c0 -131 51 -186 99 -206zM333 453l-58 -400c6 -1 12 -2 18 -2c23 0 69 7 86 27l5 -66c-19 -14 -73 -19 -99 -19c-7 0 -13 1 -20 1l-18 -122h-42l20 131c-85 25 -152 108 -152 250c0 156 69 264 211 264h18l17 112h42l-18 -117
c14 -3 28 -7 36 -13l-4 -66c-11 9 -25 16 -42 20z" />
    <glyph glyph-name="sterling" unicode="&#xa3;" 
d="M63 0v58h71v287h-71v54h71c0 120 3 170 30 216c37 65 103 90 159 90c34 0 85 -8 115 -26l-10 -63c-22 17 -64 31 -102 31c-104 0 -130 -94 -130 -166v-82h160v-54h-160v-287h232v-58h-365z" />
    <glyph glyph-name="fraction" unicode="&#x2044;" horiz-adv-x="167" 
d="M-100 -33l313 764h54l-313 -764h-54z" />
    <glyph glyph-name="yen" unicode="&#xa5;" 
d="M80 287v42h117l-164 369h66l141 -339l141 339h66l-164 -369h117v-42h-129v-91h129v-42h-129v-154h-62v154h-129v42h129v91h-129z" />
    <glyph glyph-name="florin" unicode="&#x192;" 
d="M135 362v50h98l11 70c19 119 48 223 146 223c30 0 47 -8 58 -13l-9 -57c-14 10 -27 16 -46 16c-60 0 -73 -91 -87 -175l-11 -64h90v-50h-98l-56 -355c-14 -88 -47 -229 -154 -229c-2 0 -30 1 -45 10l8 60c12 -4 22 -8 35 -8c63 0 76 56 97 188l53 334h-90z" />
    <glyph glyph-name="section" unicode="&#xa7;" 
d="M79 -94l11 66c18 -13 75 -44 126 -44c53 0 114 29 114 98c0 57 -39 78 -95 110c-81 45 -141 83 -141 165c0 79 58 124 84 144c-24 15 -67 42 -67 116c0 59 45 144 160 144c38 0 83 -12 115 -27l-10 -62l-7 3c-33 16 -59 28 -95 28c-66 0 -101 -36 -101 -81
c0 -51 31 -70 110 -122c70 -44 118 -76 118 -157c0 -48 -22 -97 -74 -139c26 -22 65 -56 65 -122c0 -67 -48 -156 -176 -156c-57 0 -104 22 -137 36zM343 282c0 58 -64 103 -129 136c-22 -18 -62 -50 -62 -105c0 -39 15 -78 140 -139c28 34 51 63 51 108z" />
    <glyph glyph-name="currency" unicode="&#xa4;" 
d="M24 166l47 49c-32 38 -47 87 -47 134s15 96 47 134l-47 49l33 33l48 -48c39 32 89 48 135 48s96 -16 135 -48l48 48l33 -33l-47 -49c32 -38 47 -87 47 -134s-15 -96 -47 -134l47 -49l-33 -33l-48 48c-39 -32 -89 -48 -135 -48s-96 16 -135 48l-48 -48zM74 349
c0 -92 74 -166 166 -166s166 74 166 166s-74 166 -166 166s-166 -74 -166 -166z" />
    <glyph glyph-name="quotesingle" unicode="'" horiz-adv-x="240" 
d="M91 528v222h58v-222h-58z" />
    <glyph glyph-name="quotedblleft" unicode="&#x201c;" 
d="M107 528l64 222h58l-48 -222h-74zM251 528l64 222h58l-48 -222h-74z" />
    <glyph glyph-name="guillemotleft" unicode="&#xab;" 
d="M86 264l115 202h54l-107 -202l107 -210h-54zM225 264l115 202h54l-107 -202l107 -210h-54z" />
    <glyph glyph-name="guilsinglleft" unicode="&#x2039;" horiz-adv-x="259" 
d="M45 264l115 202h54l-107 -202l107 -210h-54z" />
    <glyph glyph-name="guilsinglright" unicode="&#x203a;" horiz-adv-x="259" 
d="M214 256l-115 -202h-54l107 202l-107 210h54z" />
    <glyph glyph-name="endash" unicode="&#x2013;" horiz-adv-x="500" 
d="M0 252v54h500v-54h-500z" />
    <glyph glyph-name="dagger" unicode="&#x2020;" 
d="M213 0v467h-140v50h140v181h54v-181h140v-50h-140v-467h-54z" />
    <glyph glyph-name="daggerdbl" unicode="&#x2021;" 
d="M213 524v174h54v-174h140v-50h-140v-250h140v-50h-140v-174h-54v174h-140v50h140v250h-140v50h140z" />
    <glyph glyph-name="periodcentered" unicode="&#xb7;" horiz-adv-x="240" 
d="M65 308c0 30 25 55 55 55s55 -25 55 -55s-25 -55 -55 -55s-55 25 -55 55z" />
    <glyph glyph-name="paragraph" unicode="&#xb6;" 
d="M230 -123v449c-113 2 -200 78 -200 183c0 122 80 189 215 189h185v-821h-50v775h-100v-775h-50z" />
    <glyph glyph-name="bullet" unicode="&#x2022;" horiz-adv-x="500" 
d="M75 349c0 97 78 175 175 175s175 -78 175 -175s-78 -175 -175 -175s-175 78 -175 175z" />
    <glyph glyph-name="quotesinglbase" unicode="&#x201a;" horiz-adv-x="240" 
d="M181 90l-64 -222h-58l48 222h74z" />
    <glyph glyph-name="quotedblbase" unicode="&#x201e;" 
d="M373 90l-64 -222h-58l48 222h74zM229 90l-64 -222h-58l48 222h74z" />
    <glyph glyph-name="quotedblright" unicode="&#x201d;" 
d="M373 750l-64 -222h-58l48 222h74zM229 750l-64 -222h-58l48 222h74z" />
    <glyph glyph-name="guillemotright" unicode="&#xbb;" 
d="M394 256l-115 -202h-54l107 202l-107 210h54zM255 256l-115 -202h-54l107 202l-107 210h54z" />
    <glyph glyph-name="ellipsis" unicode="&#x2026;" horiz-adv-x="1000" 
d="M128 0v98h78v-98h-78zM461 0v98h78v-98h-78zM794 0v98h78v-98h-78z" />
    <glyph glyph-name="perthousand" unicode="&#x2030;" horiz-adv-x="870" 
d="M449 -7c-97 0 -112 109 -112 185s15 185 112 185s112 -109 112 -185s-15 -185 -112 -185zM449 43c58 0 58 79 58 135s0 135 -58 135s-58 -79 -58 -135s0 -135 58 -135zM721 -7c-97 0 -112 109 -112 185s15 185 112 185s112 -109 112 -185s-15 -185 -112 -185zM721 43
c58 0 58 79 58 135s0 135 -58 135s-58 -79 -58 -135s0 -135 58 -135zM149 335c-97 0 -112 109 -112 185s15 185 112 185s112 -109 112 -185s-15 -185 -112 -185zM149 385c58 0 58 79 58 135s0 135 -58 135s-58 -79 -58 -135s0 -135 58 -135zM149 -33l256 763h42l-256 -763
h-42z" />
    <glyph glyph-name="questiondown" unicode="&#xbf;" horiz-adv-x="444" 
d="M350 -104l5 -68c-35 -14 -70 -23 -108 -23c-133 0 -179 83 -179 168c0 58 8 89 86 201c48 68 56 95 56 165h58c-5 -113 -11 -117 -76 -212c-50 -73 -58 -112 -58 -147c0 -68 42 -117 112 -117c17 0 58 3 104 33zM280 510v-90h-74v90h74z" />
    <glyph glyph-name="grave" unicode="`" horiz-adv-x="186" 
d="M-7 728h70l76 -142h-50z" />
    <glyph glyph-name="acute" unicode="&#xb4;" horiz-adv-x="186" 
d="M123 728h70l-96 -142h-50z" />
    <glyph glyph-name="circumflex" unicode="&#x2c6;" horiz-adv-x="186" 
d="M-33 586l97 142h58l97 -142h-58l-68 102l-68 -102h-58z" />
    <glyph glyph-name="tilde" unicode="&#x2dc;" horiz-adv-x="186" 
d="M1 605h-42c0 11 8 99 83 99c21 0 33 -7 61 -23c19 -11 35 -21 47 -21c16 0 35 19 35 49h42c0 -27 -19 -99 -77 -99c-27 0 -47 13 -63 24c-26 17 -35 20 -45 20c-29 0 -41 -37 -41 -49z" />
    <glyph glyph-name="macron" unicode="&#xaf;" horiz-adv-x="186" 
d="M-26 634v46h238v-46h-238z" />
    <glyph glyph-name="breve" unicode="&#x2d8;" horiz-adv-x="186" 
d="M-26 717h40c5 -43 33 -76 79 -76s74 33 79 76h40c0 -23 -16 -122 -119 -122s-119 99 -119 122z" />
    <glyph glyph-name="dotaccent" unicode="&#x2d9;" horiz-adv-x="186" 
d="M64 614v98h58v-98h-58z" />
    <glyph glyph-name="dieresis" unicode="&#xa8;" horiz-adv-x="186" 
d="M-11 614v98h58v-98h-58zM139 614v98h58v-98h-58z" />
    <glyph glyph-name="ring" unicode="&#x2da;" horiz-adv-x="186" 
d="M-4 665c0 54 43 97 97 97s97 -43 97 -97s-43 -97 -97 -97s-97 43 -97 97zM30 665c0 -35 28 -63 63 -63s63 28 63 63s-28 63 -63 63s-63 -28 -63 -63z" />
    <glyph glyph-name="cedilla" unicode="&#xb8;" horiz-adv-x="186" 
d="M88 0h36l-43 -55l2 -2c10 3 18 5 30 5c41 0 80 -22 80 -67c0 -59 -56 -81 -107 -81c-26 0 -65 2 -86 16l10 28c26 -9 39 -14 66 -14c32 0 63 8 63 46c0 28 -25 42 -49 42c-16 0 -31 -7 -46 -13l-13 14z" />
    <glyph glyph-name="hungarumlaut" unicode="&#x2dd;" horiz-adv-x="186" 
d="M193 728h70l-96 -142h-50zM53 728h70l-96 -142h-50z" />
    <glyph glyph-name="ogonek" unicode="&#x2db;" horiz-adv-x="186" 
d="M110 0h41c-50 -30 -84 -67 -84 -112c0 -38 27 -58 49 -58c17 0 37 4 48 12l13 -25c-26 -11 -48 -17 -70 -17c-55 0 -98 26 -98 81c0 41 32 89 101 119z" />
    <glyph glyph-name="caron" unicode="&#x2c7;" horiz-adv-x="186" 
d="M64 586l-97 142h58l68 -102l68 102h58l-97 -142h-58z" />
    <glyph glyph-name="emdash" unicode="&#x2014;" horiz-adv-x="1000" 
d="M0 252v54h1000v-54h-1000z" />
    <glyph glyph-name="AE" unicode="&#xc6;" horiz-adv-x="759" 
d="M405 648l-196 -398h198v398h-2zM13 0l357 698h321v-58h-222v-248h211v-58h-211v-276h233v-58h-295v192h-226l-98 -192h-70z" />
    <glyph glyph-name="ordfeminine" unicode="&#xaa;" horiz-adv-x="289" 
d="M253 605v-141c0 -22 2 -45 4 -68h-41l-3 44h-2c-22 -34 -54 -48 -86 -48c-51 0 -104 31 -104 87c0 99 112 101 166 101h24c0 32 0 87 -69 87c-44 0 -80 -29 -83 -32l-6 43c31 16 54 27 91 27c109 0 109 -79 109 -100zM211 514v32c-78 0 -144 1 -144 -61
c0 -24 21 -55 61 -55c18 0 83 7 83 84z" />
    <glyph glyph-name="Lslash" unicode="&#x141;" horiz-adv-x="389" 
d="M0 178v58l80 77v385h62v-326l164 157v-58l-164 -157v-256h227v-58h-289v255z" />
    <glyph glyph-name="Oslash" unicode="&#xd8;" horiz-adv-x="594" 
d="M139 181l298 378c-26 50 -69 88 -140 88c-180 0 -180 -243 -180 -298c0 -27 0 -101 22 -168zM454 521l-299 -379c26 -51 69 -91 142 -91c180 0 180 243 180 298c0 28 0 104 -23 172zM9 16l84 106c-42 87 -42 193 -42 227c0 61 0 356 246 356c90 0 147 -39 183 -92l77 98
l28 -24l-85 -108c43 -87 43 -196 43 -230c0 -61 0 -356 -246 -356c-91 0 -148 40 -185 95l-75 -95z" />
    <glyph glyph-name="OE" unicode="&#x152;" horiz-adv-x="741" 
d="M662 392v-58h-207v-276h229v-58h-274c-15 0 -31 -2 -47 -3c-16 -2 -31 -4 -47 -4c-201 0 -265 163 -265 356s64 356 265 356c16 0 31 -2 47 -3c16 -2 32 -4 47 -4h263v-58h-218v-248h207zM393 58v582c-9 3 -53 7 -80 7c-140 0 -200 -116 -200 -298s60 -298 200 -298
c27 0 71 4 80 7z" />
    <glyph glyph-name="ordmasculine" unicode="&#xba;" horiz-adv-x="312" 
d="M156 430c84 0 84 100 84 119c0 18 0 118 -84 118s-84 -100 -84 -118c0 -19 0 -119 84 -119zM26 549c0 76 27 156 130 156s130 -80 130 -156c0 -77 -27 -157 -130 -157s-130 80 -130 157z" />
    <glyph glyph-name="ae" unicode="&#xe6;" horiz-adv-x="685" 
d="M648 257h-283v-22c0 -37 13 -188 136 -188c45 0 85 25 109 37l4 -66c-30 -15 -87 -25 -118 -25c-92 0 -143 52 -164 115h-2c-9 -28 -41 -115 -156 -115c-129 0 -137 129 -137 147c0 126 100 167 210 167h56c0 74 -5 156 -98 156c-50 0 -83 -25 -111 -45l-5 57
c2 2 59 42 123 42c95 0 124 -75 129 -92c46 92 109 92 136 92c162 0 171 -192 171 -260zM99 140c0 -54 35 -93 86 -93c86 0 118 90 118 163v47c-81 0 -204 -3 -204 -117zM479 463c-111 0 -114 -149 -114 -156h221c0 17 0 156 -107 156z" />
    <glyph glyph-name="dotlessi" unicode="&#x131;" horiz-adv-x="204" 
d="M73 0v510h58v-510h-58z" />
    <glyph glyph-name="lslash" unicode="&#x142;" horiz-adv-x="204" 
d="M0 235v60l73 92v363h58v-290h2l71 89v-60l-73 -92v-397h-58v324h-2z" />
    <glyph glyph-name="oslash" unicode="&#xf8;" horiz-adv-x="463" 
d="M344 376l-212 -269c18 -34 49 -60 100 -60c129 0 129 167 129 208c0 21 0 74 -17 121zM16 14l59 75c-25 48 -34 108 -34 166c0 128 42 262 191 262c61 0 105 -23 134 -59l46 59l26 -22l-52 -66c27 -48 37 -112 37 -174c0 -128 -42 -262 -191 -262c-64 0 -108 25 -138 65
l-52 -65zM117 143l211 267c-18 30 -48 53 -96 53c-129 0 -129 -167 -129 -208c0 -19 0 -67 14 -112z" />
    <glyph glyph-name="oe" unicode="&#x153;" horiz-adv-x="741" 
d="M232 47c129 0 129 167 129 208s0 208 -129 208s-129 -167 -129 -208s0 -208 129 -208zM709 236h-286c0 -189 127 -189 148 -189c33 0 81 16 110 42l3 -67c-24 -13 -58 -29 -119 -29c-95 0 -145 48 -172 105c-26 -62 -76 -105 -161 -105c-149 0 -191 134 -191 262
s42 262 191 262c86 0 137 -45 163 -107c33 76 94 107 151 107c148 0 163 -157 163 -281zM423 290h224c0 135 -57 173 -104 173c-83 0 -120 -107 -120 -173z" />
    <glyph glyph-name="germandbls" unicode="&#xdf;" horiz-adv-x="463" 
d="M60 0v536c0 183 106 226 176 226c84 0 156 -64 156 -184c0 -25 -4 -148 -122 -173v-2c114 -14 152 -99 152 -198c0 -47 -13 -212 -177 -212c-17 0 -50 3 -66 7l7 62c14 -8 33 -11 49 -11c61 0 125 42 125 172c0 107 -70 142 -164 146v58c90 0 134 62 134 146
c0 26 0 131 -99 131c-104 0 -113 -114 -113 -188v-516h-58z" />
    <glyph glyph-name="onesuperior" unicode="&#xb9;" horiz-adv-x="312" 
d="M60 628l81 77h46v-423h-46v373l-59 -63z" />
    <glyph glyph-name="logicalnot" unicode="&#xac;" horiz-adv-x="600" 
d="M503 108v217h-456v50h506v-267h-50z" />
    <glyph glyph-name="mu" unicode="&#xb5;" horiz-adv-x="463" 
d="M395 510v-352c0 -53 3 -105 4 -158h-54c-2 23 -3 38 -4 75h-2c-6 -22 -45 -82 -130 -82c-42 0 -71 12 -81 31h-2v-240h-58v726h58v-344c0 -35 0 -119 95 -119c71 0 116 67 116 146v317h58z" />
    <glyph glyph-name="trademark" unicode="&#x2122;" horiz-adv-x="1000" 
d="M187 282v370h-135v46h320v-46h-135v-370h-50zM828 282v370h-2l-149 -370h-30l-149 370h-2v-370h-50v416h86l132 -334l128 334h86v-416h-50z" />
    <glyph glyph-name="Eth" unicode="&#xd0;" horiz-adv-x="556" 
d="M12 341v42h68v315h91c232 0 341 -113 341 -339c0 -203 -99 -359 -324 -359h-108v341h-68zM320 383v-42h-178v-283h64c155 0 240 116 240 291c0 109 -17 291 -251 291h-53v-257h178z" />
    <glyph glyph-name="onehalf" unicode="&#xbd;" horiz-adv-x="721" 
d="M159 -33l313 764h54l-313 -764h-54zM60 628l81 77h46v-423h-46v373l-59 -63zM433 0v37l34 39c53 60 142 156 142 233c3 40 -21 72 -68 72c-28 0 -65 -15 -86 -33l-6 48c21 16 57 27 96 27c84 0 114 -58 114 -110c0 -79 -77 -168 -115 -212l-53 -59h170v-42h-228z" />
    <glyph glyph-name="plusminus" unicode="&#xb1;" horiz-adv-x="600" 
d="M275 324v182h50v-182h228v-50h-228v-182h-50v182h-228v50h228zM47 0v50h506v-50h-506z" />
    <glyph glyph-name="Thorn" unicode="&#xde;" horiz-adv-x="463" 
d="M142 490v-278h63c92 0 153 31 153 139c0 139 -104 139 -162 139h-54zM80 0v698h62v-150h69c131 0 213 -56 213 -197c0 -151 -105 -197 -195 -197h-87v-154h-62z" />
    <glyph glyph-name="onequarter" unicode="&#xbc;" horiz-adv-x="721" 
d="M389 138l168 281h58v-281h46v-42h-46v-96h-46v96h-180v42zM569 138v227h-2l-136 -227h138zM147 -33l313 764h54l-313 -764h-54zM60 628l81 77h46v-423h-46v373l-59 -63z" />
    <glyph glyph-name="divide" unicode="&#xf7;" horiz-adv-x="600" 
d="M47 228v50h506v-50h-506zM245 458c0 30 25 55 55 55s55 -25 55 -55s-25 -55 -55 -55s-55 25 -55 55zM245 48c0 30 25 55 55 55s55 -25 55 -55s-25 -55 -55 -55s-55 25 -55 55z" />
    <glyph glyph-name="brokenbar" unicode="&#xa6;" horiz-adv-x="222" 
d="M86 -175v350h50v-350h-50zM86 325v350h50v-350h-50z" />
    <glyph glyph-name="degree" unicode="&#xb0;" horiz-adv-x="400" 
d="M55 560c0 80 65 145 145 145s145 -65 145 -145s-65 -145 -145 -145s-145 65 -145 145zM101 560c0 -55 44 -99 99 -99s99 44 99 99s-44 99 -99 99s-99 -44 -99 -99z" />
    <glyph glyph-name="thorn" unicode="&#xfe;" horiz-adv-x="463" 
d="M64 -216v797c0 80 -2 125 -4 169h62v-306h2c30 47 70 73 126 73c166 0 172 -210 172 -245c0 -145 -47 -279 -169 -279c-61 0 -105 26 -129 71h-2v-280h-58zM360 255c0 42 0 208 -116 208c-99 0 -126 -98 -126 -202c0 -68 0 -214 125 -214c87 0 117 90 117 208z" />
    <glyph glyph-name="threequarters" unicode="&#xbe;" horiz-adv-x="721" 
d="M410 138l168 281h58v-281h46v-42h-46v-96h-46v96h-180v42zM590 138v227h-2l-136 -227h138zM183 -33l313 764h54l-313 -764h-54zM88 479v42c60 0 131 9 131 74c0 11 -3 68 -87 68c-19 0 -44 -4 -75 -24l-3 46c17 11 62 20 83 20c102 0 132 -65 132 -106
c0 -51 -31 -81 -81 -94v-2c37 -5 85 -41 85 -105c0 -80 -55 -120 -151 -120c-46 0 -69 9 -83 17l3 47c11 -6 45 -22 80 -22c52 0 101 25 101 83c0 51 -46 76 -100 76h-35z" />
    <glyph glyph-name="twosuperior" unicode="&#xb2;" horiz-adv-x="312" 
d="M42 282v37l34 39c53 60 142 156 142 233c3 40 -21 72 -68 72c-28 0 -65 -15 -86 -33l-6 48c21 16 57 27 96 27c84 0 114 -58 114 -110c0 -79 -77 -168 -115 -212l-53 -59h170v-42h-228z" />
    <glyph glyph-name="registered" unicode="&#xae;" horiz-adv-x="800" 
d="M261 145v408h157c92 0 132 -40 132 -113c0 -72 -47 -105 -102 -114l120 -181h-54l-120 181h-87v-181h-46zM307 511v-143h101c54 0 96 15 96 72c0 56 -47 71 -96 71h-101zM94 349c0 -173 137 -310 306 -310s306 137 306 310s-137 310 -306 310s-306 -137 -306 -310z
M44 349c0 197 159 356 356 356s356 -159 356 -356s-159 -356 -356 -356s-356 159 -356 356z" />
    <glyph glyph-name="minus" unicode="&#x2212;" horiz-adv-x="600" 
d="M47 228v50h506v-50h-506z" />
    <glyph glyph-name="eth" unicode="&#xf0;" horiz-adv-x="464" 
d="M232 47c129 0 129 167 129 194c0 41 0 208 -129 208s-129 -167 -129 -208c0 -27 0 -194 129 -194zM74 728l34 34c45 -16 85 -36 118 -59l92 59l30 -26l-91 -58c122 -97 166 -241 166 -376c0 -205 -60 -309 -191 -309c-149 0 -191 134 -191 248c0 128 42 262 191 262
c60 0 92 -27 114 -53l2 2c-21 78 -69 148 -132 200l-98 -63l-30 26l95 61c-33 23 -70 41 -109 52z" />
    <glyph glyph-name="multiply" unicode="&#xd7;" horiz-adv-x="600" 
d="M300 288l190 191l36 -36l-191 -190l191 -190l-36 -36l-190 191l-190 -191l-36 36l190 190l-190 190l36 36z" />
    <glyph glyph-name="threesuperior" unicode="&#xb3;" horiz-adv-x="312" 
d="M88 479v42c60 0 131 9 131 74c0 11 -3 68 -87 68c-19 0 -44 -4 -75 -24l-3 46c17 11 62 20 83 20c102 0 132 -65 132 -106c0 -51 -31 -81 -81 -94v-2c37 -5 85 -41 85 -105c0 -80 -55 -120 -151 -120c-46 0 -69 9 -83 17l3 47c11 -6 45 -22 80 -22c52 0 101 25 101 83
c0 51 -46 76 -100 76h-35z" />
    <glyph glyph-name="copyright" unicode="&#xa9;" horiz-adv-x="800" 
d="M581 424h-50c-11 56 -58 98 -127 98c-100 0 -155 -75 -155 -173c0 -90 59 -173 155 -173c70 0 117 44 127 102h50c-21 -87 -87 -148 -177 -148c-123 0 -205 96 -205 219c0 127 76 219 205 219c90 0 164 -52 177 -144zM94 349c0 -173 137 -310 306 -310s306 137 306 310
s-137 310 -306 310s-306 -137 -306 -310zM44 349c0 197 159 356 356 356s356 -159 356 -356s-159 -356 -356 -356s-356 159 -356 356z" />
    <glyph glyph-name="Aacute" unicode="&#xc1;" horiz-adv-x="556" 
d="M13 0l232 698h66l232 -698h-66l-61 192h-278l-63 -192h-62zM277 632l-121 -382h241l-118 382h-2zM308 869h70l-96 -142h-50z" />
    <glyph glyph-name="Acircumflex" unicode="&#xc2;" horiz-adv-x="556" 
d="M13 0l232 698h66l232 -698h-66l-61 192h-278l-63 -192h-62zM277 632l-121 -382h241l-118 382h-2zM152 727l97 142h58l97 -142h-58l-68 102l-68 -102h-58z" />
    <glyph glyph-name="Adieresis" unicode="&#xc4;" horiz-adv-x="556" 
d="M13 0l232 698h66l232 -698h-66l-61 192h-278l-63 -192h-62zM277 632l-121 -382h241l-118 382h-2zM174 755v98h58v-98h-58zM324 755v98h58v-98h-58z" />
    <glyph glyph-name="Agrave" unicode="&#xc0;" horiz-adv-x="556" 
d="M13 0l232 698h66l232 -698h-66l-61 192h-278l-63 -192h-62zM277 632l-121 -382h241l-118 382h-2zM178 869h70l76 -142h-50z" />
    <glyph glyph-name="Aring" unicode="&#xc5;" horiz-adv-x="556" 
d="M13 0l232 698h66l232 -698h-66l-61 192h-278l-63 -192h-62zM277 632l-121 -382h241l-118 382h-2zM181 816c0 54 43 97 97 97s97 -43 97 -97s-43 -97 -97 -97s-97 43 -97 97zM215 816c0 -35 28 -63 63 -63s63 28 63 63s-28 63 -63 63s-63 -28 -63 -63z" />
    <glyph glyph-name="Atilde" unicode="&#xc3;" horiz-adv-x="556" 
d="M13 0l232 698h66l232 -698h-66l-61 192h-278l-63 -192h-62zM277 632l-121 -382h241l-118 382h-2zM186 746h-42c0 11 8 99 83 99c21 0 33 -7 61 -23c19 -11 35 -21 47 -21c16 0 35 19 35 49h42c0 -27 -19 -99 -77 -99c-27 0 -47 13 -63 24c-26 17 -35 20 -45 20
c-29 0 -41 -37 -41 -49z" />
    <glyph glyph-name="Ccedilla" unicode="&#xc7;" horiz-adv-x="537" 
d="M268 -95l-13 14l54 77c-176 23 -252 184 -252 357c0 180 85 352 300 352c36 0 84 -7 117 -23l-3 -70c-19 16 -69 35 -119 35c-49 0 -229 -23 -229 -296c0 -243 148 -300 228 -300c53 0 80 13 118 31l3 -67c-19 -7 -61 -22 -119 -22h-10l-38 -48l2 -2c10 3 18 5 30 5
c41 0 80 -22 80 -67c0 -59 -56 -81 -107 -81c-26 0 -65 2 -86 16l10 28c26 -9 39 -14 66 -14c32 0 63 8 63 46c0 28 -25 42 -49 42c-16 0 -31 -7 -46 -13z" />
    <glyph glyph-name="Eacute" unicode="&#xc9;" horiz-adv-x="444" 
d="M80 0v698h296v-58h-234v-248h223v-58h-223v-276h245v-58h-307zM272 869h70l-96 -142h-50z" />
    <glyph glyph-name="Ecircumflex" unicode="&#xca;" horiz-adv-x="444" 
d="M80 0v698h296v-58h-234v-248h223v-58h-223v-276h245v-58h-307zM116 727l97 142h58l97 -142h-58l-68 102l-68 -102h-58z" />
    <glyph glyph-name="Edieresis" unicode="&#xcb;" horiz-adv-x="444" 
d="M80 0v698h296v-58h-234v-248h223v-58h-223v-276h245v-58h-307zM138 755v98h58v-98h-58zM288 755v98h58v-98h-58z" />
    <glyph glyph-name="Egrave" unicode="&#xc8;" horiz-adv-x="444" 
d="M80 0v698h296v-58h-234v-248h223v-58h-223v-276h245v-58h-307zM142 869h70l76 -142h-50z" />
    <glyph glyph-name="Iacute" unicode="&#xcd;" horiz-adv-x="222" 
d="M80 0v698h62v-698h-62zM141 869h70l-96 -142h-50z" />
    <glyph glyph-name="Icircumflex" unicode="&#xce;" horiz-adv-x="222" 
d="M80 0v698h62v-698h-62zM-15 727l97 142h58l97 -142h-58l-68 102l-68 -102h-58z" />
    <glyph glyph-name="Idieresis" unicode="&#xcf;" horiz-adv-x="222" 
d="M80 0v698h62v-698h-62zM7 755v98h58v-98h-58zM157 755v98h58v-98h-58z" />
    <glyph glyph-name="Igrave" unicode="&#xcc;" horiz-adv-x="222" 
d="M80 0v698h62v-698h-62zM11 869h70l76 -142h-50z" />
    <glyph glyph-name="Ntilde" unicode="&#xd1;" horiz-adv-x="593" 
d="M80 0v698h80l293 -620h2v620h58v-698h-80l-293 616h-2v-616h-58zM205 746h-42c0 11 8 99 83 99c21 0 33 -7 61 -23c19 -11 35 -21 47 -21c16 0 35 19 35 49h42c0 -27 -19 -99 -77 -99c-27 0 -47 13 -63 24c-26 17 -35 20 -45 20c-29 0 -41 -37 -41 -49z" />
    <glyph glyph-name="Oacute" unicode="&#xd3;" horiz-adv-x="594" 
d="M51 349c0 61 0 356 246 356s246 -295 246 -356s0 -356 -246 -356s-246 295 -246 356zM117 349c0 -55 0 -298 180 -298s180 243 180 298s0 298 -180 298s-180 -243 -180 -298zM327 869h70l-96 -142h-50z" />
    <glyph glyph-name="Ocircumflex" unicode="&#xd4;" horiz-adv-x="594" 
d="M51 349c0 61 0 356 246 356s246 -295 246 -356s0 -356 -246 -356s-246 295 -246 356zM117 349c0 -55 0 -298 180 -298s180 243 180 298s0 298 -180 298s-180 -243 -180 -298zM171 727l97 142h58l97 -142h-58l-68 102l-68 -102h-58z" />
    <glyph glyph-name="Odieresis" unicode="&#xd6;" horiz-adv-x="594" 
d="M51 349c0 61 0 356 246 356s246 -295 246 -356s0 -356 -246 -356s-246 295 -246 356zM117 349c0 -55 0 -298 180 -298s180 243 180 298s0 298 -180 298s-180 -243 -180 -298zM193 755v98h58v-98h-58zM343 755v98h58v-98h-58z" />
    <glyph glyph-name="Ograve" unicode="&#xd2;" horiz-adv-x="594" 
d="M51 349c0 61 0 356 246 356s246 -295 246 -356s0 -356 -246 -356s-246 295 -246 356zM117 349c0 -55 0 -298 180 -298s180 243 180 298s0 298 -180 298s-180 -243 -180 -298zM197 869h70l76 -142h-50z" />
    <glyph glyph-name="Otilde" unicode="&#xd5;" horiz-adv-x="594" 
d="M51 349c0 61 0 356 246 356s246 -295 246 -356s0 -356 -246 -356s-246 295 -246 356zM117 349c0 -55 0 -298 180 -298s180 243 180 298s0 298 -180 298s-180 -243 -180 -298zM205 746h-42c0 11 8 99 83 99c21 0 33 -7 61 -23c19 -11 35 -21 47 -21c16 0 35 19 35 49h42
c0 -27 -19 -99 -77 -99c-27 0 -47 13 -63 24c-26 17 -35 20 -45 20c-29 0 -41 -37 -41 -49z" />
    <glyph glyph-name="Scaron" unicode="&#x160;" horiz-adv-x="426" 
d="M56 26l4 72c48 -43 105 -47 123 -47c112 0 126 100 126 126c0 81 -48 114 -132 170c-97 66 -126 110 -126 189c0 155 141 169 182 169c56 0 94 -16 110 -22l-3 -70c-27 16 -59 34 -111 34c-40 0 -112 -21 -112 -102c0 -69 36 -96 96 -140c124 -91 162 -123 162 -219
c0 -117 -80 -193 -187 -193c-43 0 -96 10 -132 33zM184 727l-97 142h58l68 -102l68 102h58l-97 -142h-58z" />
    <glyph glyph-name="Uacute" unicode="&#xda;" horiz-adv-x="574" 
d="M80 257v441h62v-440c0 -105 20 -207 145 -207c131 0 145 113 145 207v440h62v-441c0 -138 -45 -264 -207 -264s-207 114 -207 264zM317 869h70l-96 -142h-50z" />
    <glyph glyph-name="Ucircumflex" unicode="&#xdb;" horiz-adv-x="574" 
d="M80 257v441h62v-440c0 -105 20 -207 145 -207c131 0 145 113 145 207v440h62v-441c0 -138 -45 -264 -207 -264s-207 114 -207 264zM161 727l97 142h58l97 -142h-58l-68 102l-68 -102h-58z" />
    <glyph glyph-name="Udieresis" unicode="&#xdc;" horiz-adv-x="574" 
d="M80 257v441h62v-440c0 -105 20 -207 145 -207c131 0 145 113 145 207v440h62v-441c0 -138 -45 -264 -207 -264s-207 114 -207 264zM183 755v98h58v-98h-58zM333 755v98h58v-98h-58z" />
    <glyph glyph-name="Ugrave" unicode="&#xd9;" horiz-adv-x="574" 
d="M80 257v441h62v-440c0 -105 20 -207 145 -207c131 0 145 113 145 207v440h62v-441c0 -138 -45 -264 -207 -264s-207 114 -207 264zM187 869h70l76 -142h-50z" />
    <glyph glyph-name="Yacute" unicode="&#xdd;" horiz-adv-x="500" 
d="M219 0v303l-176 395h66l142 -338l140 338h66l-176 -395v-303h-62zM280 869h70l-96 -142h-50z" />
    <glyph glyph-name="Ydieresis" unicode="&#x178;" horiz-adv-x="500" 
d="M219 0v303l-176 395h66l142 -338l140 338h66l-176 -395v-303h-62zM146 755v98h58v-98h-58zM296 755v98h58v-98h-58z" />
    <glyph glyph-name="Zcaron" unicode="&#x17d;" horiz-adv-x="444" 
d="M36 0v62l299 578h-289v58h355v-60l-300 -580h307v-58h-372zM193 727l-97 142h58l68 -102l68 102h58l-97 -142h-58z" />
    <glyph glyph-name="aacute" unicode="&#xe1;" horiz-adv-x="444" 
d="M378 348v-234c0 -38 3 -76 6 -114h-52l-4 73h-2c-35 -56 -77 -80 -143 -80c-79 0 -142 65 -142 148c0 163 173 166 246 166h37c0 64 0 156 -106 156c-68 0 -122 -48 -128 -53l-9 62c48 26 84 45 140 45c157 0 157 -132 157 -169zM324 197v60c-120 0 -221 0 -221 -116
c0 -43 32 -94 94 -94c27 0 127 11 127 150zM252 728h70l-96 -142h-50z" />
    <glyph glyph-name="acircumflex" unicode="&#xe2;" horiz-adv-x="444" 
d="M378 348v-234c0 -38 3 -76 6 -114h-52l-4 73h-2c-35 -56 -77 -80 -143 -80c-79 0 -142 65 -142 148c0 163 173 166 246 166h37c0 64 0 156 -106 156c-68 0 -122 -48 -128 -53l-9 62c48 26 84 45 140 45c157 0 157 -132 157 -169zM324 197v60c-120 0 -221 0 -221 -116
c0 -43 32 -94 94 -94c27 0 127 11 127 150zM96 586l97 142h58l97 -142h-58l-68 102l-68 -102h-58z" />
    <glyph glyph-name="adieresis" unicode="&#xe4;" horiz-adv-x="444" 
d="M378 348v-234c0 -38 3 -76 6 -114h-52l-4 73h-2c-35 -56 -77 -80 -143 -80c-79 0 -142 65 -142 148c0 163 173 166 246 166h37c0 64 0 156 -106 156c-68 0 -122 -48 -128 -53l-9 62c48 26 84 45 140 45c157 0 157 -132 157 -169zM324 197v60c-120 0 -221 0 -221 -116
c0 -43 32 -94 94 -94c27 0 127 11 127 150zM268 614v98h58v-98h-58zM118 614v98h58v-98h-58z" />
    <glyph glyph-name="agrave" unicode="&#xe0;" horiz-adv-x="444" 
d="M378 348v-234c0 -38 3 -76 6 -114h-52l-4 73h-2c-35 -56 -77 -80 -143 -80c-79 0 -142 65 -142 148c0 163 173 166 246 166h37c0 64 0 156 -106 156c-68 0 -122 -48 -128 -53l-9 62c48 26 84 45 140 45c157 0 157 -132 157 -169zM324 197v60c-120 0 -221 0 -221 -116
c0 -43 32 -94 94 -94c27 0 127 11 127 150zM122 728h70l76 -142h-50z" />
    <glyph glyph-name="aring" unicode="&#xe5;" horiz-adv-x="444" 
d="M378 348v-234c0 -38 3 -76 6 -114h-52l-4 73h-2c-35 -56 -77 -80 -143 -80c-79 0 -142 65 -142 148c0 163 173 166 246 166h37c0 64 0 156 -106 156c-68 0 -122 -48 -128 -53l-9 62c48 26 84 45 140 45c157 0 157 -132 157 -169zM324 197v60c-120 0 -221 0 -221 -116
c0 -43 32 -94 94 -94c27 0 127 11 127 150zM125 665c0 54 43 97 97 97s97 -43 97 -97s-43 -97 -97 -97s-97 43 -97 97zM159 665c0 -35 28 -63 63 -63s63 28 63 63s-28 63 -63 63s-63 -28 -63 -63z" />
    <glyph glyph-name="atilde" unicode="&#xe3;" horiz-adv-x="444" 
d="M378 348v-234c0 -38 3 -76 6 -114h-52l-4 73h-2c-35 -56 -77 -80 -143 -80c-79 0 -142 65 -142 148c0 163 173 166 246 166h37c0 64 0 156 -106 156c-68 0 -122 -48 -128 -53l-9 62c48 26 84 45 140 45c157 0 157 -132 157 -169zM324 197v60c-120 0 -221 0 -221 -116
c0 -43 32 -94 94 -94c27 0 127 11 127 150zM130 605h-42c0 11 8 99 83 99c21 0 33 -7 61 -23c19 -11 35 -21 47 -21c16 0 35 19 35 49h42c0 -27 -19 -99 -77 -99c-27 0 -47 13 -63 24c-26 17 -35 20 -45 20c-29 0 -41 -37 -41 -49z" />
    <glyph glyph-name="ccedilla" unicode="&#xe7;" horiz-adv-x="370" 
d="M347 499l-3 -66c-23 19 -62 26 -92 26c-78 0 -149 -54 -149 -189c0 -187 103 -219 158 -219c23 0 69 7 86 27l5 -66c-25 -11 -63 -19 -99 -19h-8l-38 -48l2 -2c10 3 18 5 30 5c41 0 80 -22 80 -67c0 -59 -56 -81 -107 -81c-26 0 -65 2 -86 16l10 28c26 -9 39 -14 66 -14
c32 0 63 8 63 46c0 28 -25 42 -49 42c-16 0 -31 -7 -46 -13l-13 14l56 78c-93 18 -172 101 -172 256c0 156 69 264 211 264c41 0 71 -8 95 -18z" />
    <glyph glyph-name="eacute" unicode="&#xe9;" horiz-adv-x="426" 
d="M385 236h-282c0 -189 121 -189 144 -189c33 0 81 16 110 42l3 -67c-24 -13 -58 -29 -119 -29c-200 0 -200 211 -200 262c0 192 95 262 181 262c148 0 163 -157 163 -281zM103 290h220c0 135 -57 173 -104 173c-79 0 -116 -107 -116 -173zM243 728h70l-96 -142h-50z" />
    <glyph glyph-name="ecircumflex" unicode="&#xea;" horiz-adv-x="426" 
d="M385 236h-282c0 -189 121 -189 144 -189c33 0 81 16 110 42l3 -67c-24 -13 -58 -29 -119 -29c-200 0 -200 211 -200 262c0 192 95 262 181 262c148 0 163 -157 163 -281zM103 290h220c0 135 -57 173 -104 173c-79 0 -116 -107 -116 -173zM87 586l97 142h58l97 -142h-58
l-68 102l-68 -102h-58z" />
    <glyph glyph-name="edieresis" unicode="&#xeb;" horiz-adv-x="426" 
d="M385 236h-282c0 -189 121 -189 144 -189c33 0 81 16 110 42l3 -67c-24 -13 -58 -29 -119 -29c-200 0 -200 211 -200 262c0 192 95 262 181 262c148 0 163 -157 163 -281zM103 290h220c0 135 -57 173 -104 173c-79 0 -116 -107 -116 -173zM109 614v98h58v-98h-58zM259 614
v98h58v-98h-58z" />
    <glyph glyph-name="egrave" unicode="&#xe8;" horiz-adv-x="426" 
d="M385 236h-282c0 -189 121 -189 144 -189c33 0 81 16 110 42l3 -67c-24 -13 -58 -29 -119 -29c-200 0 -200 211 -200 262c0 192 95 262 181 262c148 0 163 -157 163 -281zM103 290h220c0 135 -57 173 -104 173c-79 0 -116 -107 -116 -173zM113 728h70l76 -142h-50z" />
    <glyph glyph-name="iacute" unicode="&#xed;" horiz-adv-x="204" 
d="M73 0v510h58v-510h-58zM132 728h70l-96 -142h-50z" />
    <glyph glyph-name="icircumflex" unicode="&#xee;" horiz-adv-x="204" 
d="M73 0v510h58v-510h-58zM-24 586l97 142h58l97 -142h-58l-68 102l-68 -102h-58z" />
    <glyph glyph-name="idieresis" unicode="&#xef;" horiz-adv-x="204" 
d="M73 0v510h58v-510h-58zM-2 614v98h58v-98h-58zM148 614v98h58v-98h-58z" />
    <glyph glyph-name="igrave" unicode="&#xec;" horiz-adv-x="204" 
d="M73 0v510h58v-510h-58zM2 728h70l76 -142h-50z" />
    <glyph glyph-name="ntilde" unicode="&#xf1;" horiz-adv-x="463" 
d="M68 0v352c0 53 -3 105 -4 158h54c2 -23 3 -38 4 -75h2c12 22 45 82 130 82c141 0 141 -141 141 -175v-342h-58v344c0 35 0 119 -95 119c-71 0 -116 -67 -116 -146v-317h-58zM140 605h-42c0 11 8 99 83 99c21 0 33 -7 61 -23c19 -11 35 -21 47 -21c16 0 35 19 35 49h42
c0 -27 -19 -99 -77 -99c-27 0 -47 13 -63 24c-26 17 -35 20 -45 20c-29 0 -41 -37 -41 -49z" />
    <glyph glyph-name="oacute" unicode="&#xf3;" horiz-adv-x="464" 
d="M232 47c129 0 129 167 129 208s0 208 -129 208s-129 -167 -129 -208s0 -208 129 -208zM232 -7c-149 0 -191 134 -191 262s42 262 191 262s191 -134 191 -262s-42 -262 -191 -262zM262 728h70l-96 -142h-50z" />
    <glyph glyph-name="ocircumflex" unicode="&#xf4;" horiz-adv-x="464" 
d="M232 47c129 0 129 167 129 208s0 208 -129 208s-129 -167 -129 -208s0 -208 129 -208zM232 -7c-149 0 -191 134 -191 262s42 262 191 262s191 -134 191 -262s-42 -262 -191 -262zM106 586l97 142h58l97 -142h-58l-68 102l-68 -102h-58z" />
    <glyph glyph-name="odieresis" unicode="&#xf6;" horiz-adv-x="464" 
d="M232 47c129 0 129 167 129 208s0 208 -129 208s-129 -167 -129 -208s0 -208 129 -208zM232 -7c-149 0 -191 134 -191 262s42 262 191 262s191 -134 191 -262s-42 -262 -191 -262zM128 614v98h58v-98h-58zM278 614v98h58v-98h-58z" />
    <glyph glyph-name="ograve" unicode="&#xf2;" horiz-adv-x="464" 
d="M232 47c129 0 129 167 129 208s0 208 -129 208s-129 -167 -129 -208s0 -208 129 -208zM232 -7c-149 0 -191 134 -191 262s42 262 191 262s191 -134 191 -262s-42 -262 -191 -262zM132 728h70l76 -142h-50z" />
    <glyph glyph-name="otilde" unicode="&#xf5;" horiz-adv-x="464" 
d="M232 47c129 0 129 167 129 208s0 208 -129 208s-129 -167 -129 -208s0 -208 129 -208zM232 -7c-149 0 -191 134 -191 262s42 262 191 262s191 -134 191 -262s-42 -262 -191 -262zM140 605h-42c0 11 8 99 83 99c21 0 33 -7 61 -23c19 -11 35 -21 47 -21c16 0 35 19 35 49
h42c0 -27 -19 -99 -77 -99c-27 0 -47 13 -63 24c-26 17 -35 20 -45 20c-29 0 -41 -37 -41 -49z" />
    <glyph glyph-name="scaron" unicode="&#x161;" horiz-adv-x="352" 
d="M287 502l-8 -60c-29 11 -54 21 -87 21c-60 0 -87 -45 -87 -81c0 -47 18 -57 87 -95c70 -38 124 -64 124 -146c0 -92 -65 -148 -151 -148c-63 0 -99 13 -129 24l8 65c17 -12 69 -35 116 -35c55 0 94 42 94 88c0 49 -31 69 -91 99c-86 43 -120 70 -120 142
c0 96 82 141 150 141c34 0 75 -9 94 -15zM147 586l-97 142h58l68 -102l68 102h58l-97 -142h-58z" />
    <glyph glyph-name="uacute" unicode="&#xfa;" horiz-adv-x="463" 
d="M395 510v-352c0 -53 3 -105 4 -158h-54c-2 23 -3 38 -4 75h-2c-6 -22 -45 -82 -130 -82c-111 0 -141 80 -141 161v356h58v-344c0 -35 0 -119 95 -119c71 0 116 67 116 146v317h58zM262 728h70l-96 -142h-50z" />
    <glyph glyph-name="ucircumflex" unicode="&#xfb;" horiz-adv-x="463" 
d="M395 510v-352c0 -53 3 -105 4 -158h-54c-2 23 -3 38 -4 75h-2c-6 -22 -45 -82 -130 -82c-111 0 -141 80 -141 161v356h58v-344c0 -35 0 -119 95 -119c71 0 116 67 116 146v317h58zM106 586l97 142h58l97 -142h-58l-68 102l-68 -102h-58z" />
    <glyph glyph-name="udieresis" unicode="&#xfc;" horiz-adv-x="463" 
d="M395 510v-352c0 -53 3 -105 4 -158h-54c-2 23 -3 38 -4 75h-2c-6 -22 -45 -82 -130 -82c-111 0 -141 80 -141 161v356h58v-344c0 -35 0 -119 95 -119c71 0 116 67 116 146v317h58zM128 614v98h58v-98h-58zM278 614v98h58v-98h-58z" />
    <glyph glyph-name="ugrave" unicode="&#xf9;" horiz-adv-x="463" 
d="M395 510v-352c0 -53 3 -105 4 -158h-54c-2 23 -3 38 -4 75h-2c-6 -22 -45 -82 -130 -82c-111 0 -141 80 -141 161v356h58v-344c0 -35 0 -119 95 -119c71 0 116 67 116 146v317h58zM132 728h70l76 -142h-50z" />
    <glyph glyph-name="yacute" unicode="&#xfd;" horiz-adv-x="370" 
d="M72 510l114 -424h2l114 424h58l-167 -605c-19 -69 -35 -127 -116 -127c-16 0 -25 2 -39 6l3 59c10 -7 28 -11 41 -11c28 0 43 27 52 59l26 97l-150 522h62zM215 728h70l-96 -142h-50z" />
    <glyph glyph-name="ydieresis" unicode="&#xff;" horiz-adv-x="370" 
d="M72 510l114 -424h2l114 424h58l-167 -605c-19 -69 -35 -127 -116 -127c-16 0 -25 2 -39 6l3 59c10 -7 28 -11 41 -11c28 0 43 27 52 59l26 97l-150 522h62zM81 614v98h58v-98h-58zM231 614v98h58v-98h-58z" />
    <glyph glyph-name="zcaron" unicode="&#x17e;" horiz-adv-x="370" 
d="M30 0v58l244 398h-236v54h298v-58l-244 -398h248v-54h-310zM156 586l-97 142h58l68 -102l68 102h58l-97 -142h-58z" />
    <glyph glyph-name="Delta" unicode="&#x2206;" horiz-adv-x="560" 
d="M29 0v42l220 662h65l218 -661v-43h-503zM87 49h383l-131 397c-16 54 -47 132 -58 179h-4c-8 -40 -36 -112 -52 -166z" />
    <glyph glyph-name="Omega" unicode="&#x2126;" horiz-adv-x="621" 
d="M177 50v3c-65 66 -120 177 -120 316c0 200 112 328 257 328c151 0 249 -144 249 -324c0 -145 -60 -261 -121 -320v-3h133v-50h-203v37c69 55 133 173 133 324c0 129 -63 285 -193 285c-121 0 -197 -125 -197 -286c0 -142 66 -270 133 -323v-37h-203v50h132z" />
    <glyph glyph-name="uni03BC" unicode="&#x3bc;" horiz-adv-x="463" 
d="M395 510v-352c0 -53 3 -105 4 -158h-54c-2 23 -3 38 -4 75h-2c-6 -22 -45 -82 -130 -82c-42 0 -71 12 -81 31h-2v-240h-58v726h58v-344c0 -35 0 -119 95 -119c71 0 116 67 116 146v317h58z" />
    <glyph glyph-name="pi" unicode="&#x3c0;" horiz-adv-x="493" 
d="M467 458h-71v-319c0 -80 6 -115 13 -139h-56c-8 15 -15 55 -15 134v324h-162c-5 -134 -33 -364 -66 -458h-57c35 105 61 319 65 458c-56 0 -80 -5 -97 -12l-10 39c21 14 56 25 122 25h340z" />
    <glyph glyph-name="Euro" unicode="&#x20ac;" 
d="M478 682l-12 -65c-15 18 -79 31 -101 31c-125 0 -187 -101 -208 -210h281l-8 -42h-279c-3 -32 -3 -62 0 -94h265l-7 -42h-252c21 -107 83 -210 207 -210c39 0 67 10 102 27l6 -66c-37 -11 -68 -18 -106 -18c-164 0 -251 119 -276 267h-73l8 42h61c-3 32 -3 62 0 94h-69
l8 42h66c25 149 115 267 279 267c38 0 73 -7 108 -23z" />
    <glyph glyph-name="afii61289" unicode="&#x2113;" horiz-adv-x="421" 
d="M371 134l29 -24c-36 -71 -89 -112 -158 -112c-103 0 -142 85 -143 190c-1 5 -1 10 -1 14c-16 -14 -34 -30 -51 -46l-19 36c25 23 49 44 70 67v273c0 177 68 229 131 229c70 0 105 -64 105 -152c0 -124 -72 -244 -181 -361v-34c0 -124 46 -169 99 -169c56 0 97 48 119 89z
M153 536v-225c79 94 141 194 141 297c0 65 -19 106 -66 106c-35 0 -75 -46 -75 -178z" />
    <glyph glyph-name="estimated" unicode="&#x212e;" horiz-adv-x="858" 
d="M824 339h-640c-3 0 -5 -1 -5 -4v-194c0 -8 3 -16 8 -22c62 -64 147 -105 242 -105c102 0 193 46 255 118h57c-71 -84 -185 -138 -313 -138c-218 0 -395 159 -395 355s177 356 395 356c219 0 396 -160 396 -356v-10zM679 364v195c0 9 -3 17 -10 23
c-62 61 -146 101 -240 101s-179 -41 -241 -104c-6 -6 -9 -15 -9 -24v-191c0 -2 2 -6 5 -6h491c3 0 4 4 4 6z" />
    <glyph glyph-name="partialdiff" unicode="&#x2202;" horiz-adv-x="474" 
d="M90 678l-21 44c29 25 74 52 142 52c109 0 218 -108 218 -368c0 -243 -78 -408 -225 -408c-110 0 -165 102 -165 223c0 154 91 252 188 252c79 0 129 -57 144 -88h1c1 11 1 30 1 41c0 180 -77 298 -168 298c-53 0 -90 -24 -115 -46zM209 48h1c86 0 143 123 155 270
c-15 46 -61 105 -130 105c-75 0 -138 -91 -138 -201c0 -105 43 -174 112 -174z" />
    <glyph glyph-name="product" unicode="&#x220f;" horiz-adv-x="606" 
d="M581 632h-95v-727h-56v727h-255v-727h-57v727h-94v54h557v-54z" />
    <glyph glyph-name="summation" unicode="&#x2211;" horiz-adv-x="484" 
d="M463 -95h-442v42l241 347l-230 350v42h416v-51h-337v-4l217 -328l-234 -337v-4h369v-57z" />
    <glyph glyph-name="uni2219" unicode="&#x2219;" horiz-adv-x="240" 
d="M65 308c0 30 25 55 55 55s55 -25 55 -55s-25 -55 -55 -55s-55 25 -55 55z" />
    <glyph glyph-name="radical" unicode="&#x221a;" horiz-adv-x="505" 
d="M500 815l-195 -964h-52l-144 463l-66 -25l-12 38l116 44l115 -368c6 -24 13 -54 16 -72h1c2 17 7 46 11 70l166 814h44z" />
    <glyph glyph-name="infinity" unicode="&#x221e;" horiz-adv-x="704" 
d="M658 287v-1c0 -87 -66 -143 -138 -143c-58 0 -103 37 -167 109c-48 -54 -98 -109 -173 -109c-73 0 -134 61 -134 139c0 82 59 142 140 142c69 0 122 -53 170 -109c49 54 95 109 171 109c79 0 131 -56 131 -137zM186 182h1c60 0 105 59 144 99c-42 50 -85 106 -151 106
c-59 0 -92 -50 -92 -106c0 -55 39 -99 98 -99zM522 387h-1c-61 0 -112 -70 -144 -102c61 -66 96 -103 147 -103c58 0 92 51 92 101c0 66 -40 104 -94 104z" />
    <glyph glyph-name="integral" unicode="&#x222b;" horiz-adv-x="317" 
d="M301 824l-12 -43c-7 5 -20 10 -32 10c-15 0 -33 -7 -45 -24c-23 -29 -31 -79 -31 -178c0 -152 11 -343 11 -500c0 -109 -18 -166 -40 -199c-19 -30 -51 -45 -84 -45c-22 0 -45 8 -55 15l12 44c8 -4 22 -11 39 -11c16 0 32 9 43 24c17 25 30 71 30 173
c0 157 -11 352 -11 505c0 106 12 165 47 204c21 25 51 37 81 37c17 0 37 -7 47 -12z" />
    <glyph glyph-name="approxequal" unicode="&#x2248;" horiz-adv-x="499" 
d="M431 409l26 -21c-22 -47 -57 -87 -113 -87c-36 0 -61 14 -104 38c-29 17 -55 32 -84 32c-41 0 -66 -32 -88 -69l-27 20c26 55 69 88 121 88c44 0 77 -25 101 -38c31 -17 52 -32 84 -32c36 0 60 24 84 69zM431 258l26 -21c-22 -47 -57 -87 -113 -87c-36 0 -61 14 -104 39
c-29 16 -54 31 -84 31c-42 0 -67 -33 -88 -69l-27 20c26 55 69 88 121 88c44 0 77 -25 101 -38c30 -17 52 -32 85 -32c36 0 59 24 83 69z" />
    <glyph glyph-name="notequal" unicode="&#x2260;" horiz-adv-x="499" 
d="M352 476l-40 -90h140v-41h-156l-61 -133h217v-40h-233l-48 -106l-32 15l41 91h-134v40h151l60 133h-211v41h227l47 104z" />
    <glyph glyph-name="lessequal" unicode="&#x2264;" horiz-adv-x="499" 
d="M450 103l-399 209v42l399 208v-49l-355 -178v-2l355 -180v-50zM452 23h-406v41h406v-41z" />
    <glyph glyph-name="greaterequal" unicode="&#x2265;" horiz-adv-x="499" 
d="M52 562l399 -208v-42l-399 -209v50l354 179v2l-354 179v49zM452 23h-405v41h405v-41z" />
    <glyph glyph-name="lozenge" unicode="&#x25ca;" horiz-adv-x="506" 
d="M455 343l-180 -381h-48l-177 381l179 381h49zM401 341l-131 278c-7 17 -13 39 -17 52h-2c-4 -15 -9 -33 -17 -52l-130 -275l131 -279c9 -20 14 -39 16 -51h3c3 12 10 36 16 50z" />
    <glyph glyph-name="uni00A0" unicode="&#xa0;" horiz-adv-x="240" 
 />
    <glyph glyph-name="uni00AD" unicode="&#xad;" horiz-adv-x="296" 
d="M46 250v58h204v-58h-204z" />
    <glyph glyph-name="uni02C9" unicode="&#x2c9;" horiz-adv-x="186" 
d="M-26 634v46h238v-46h-238z" />
    <glyph glyph-name="uni03A9" unicode="&#x3a9;" horiz-adv-x="621" 
d="M177 50v3c-65 66 -120 177 -120 316c0 200 112 328 257 328c151 0 249 -144 249 -324c0 -145 -60 -261 -121 -320v-3h133v-50h-203v37c69 55 133 173 133 324c0 129 -63 285 -193 285c-121 0 -197 -125 -197 -286c0 -142 66 -270 133 -323v-37h-203v50h132z" />
    <glyph glyph-name="uni2215" unicode="&#x2215;" horiz-adv-x="167" 
d="M-100 -33l313 764h54l-313 -764h-54z" />
    </font>
</defs>
</svg>
