<?xml version="1.0" standalone="no"?>
<!DOCTYPE svg PUBLIC "-//W3C//DTD SVG 1.1//EN" "http://www.w3.org/Graphics/SVG/1.1/DTD/svg11.dtd" >
<svg xmlns="http://www.w3.org/2000/svg" xmlns:xlink="http://www.w3.org/1999/xlink" version="1.1">
<metadata>
Created by FontForge 20230101 at Wed Jun  5 17:35:43 2002
 By Webmaster
 The digitally encoded machine readable software for producing the
 Typefaces licensed to you is copyrighted (c) 1988, 1990, 1994, 2002 Adobe Systems.
 All Rights Reserved. This software is the property of Adobe Systems
 Incorporated and its licensors, and may not be reproduced, used, 
 displayed, modified, disclosed or transferred without the express 
 written approval of Adobe.
 
 The digitally encoded machine readable outline data for producing the Typefaces 
 provided as part of your laser printer is copyrighted (c) 1981, 2002 Heidelberger Druckmaschinen AG. 
 All rights reserved. This data is the property of Heidelberger Druckmaschinen AG, 
 and may not be reproduced, used, displayed, modified, disclosed or transferred 
 without the express written approval of Heidelberger Druckmaschinen AG. 
</metadata>
<defs>
<font id="FrutigerLTStd-Black" horiz-adv-x="611" >
  <font-face 
    font-family="Frutiger LT Std"
    font-weight="850"
    font-stretch="normal"
    units-per-em="1000"
    panose-1="2 11 8 3 3 5 4 3 2 4"
    ascent="750"
    descent="-250"
    x-height="521"
    cap-height="698"
    bbox="-164 -250 1000 954"
    underline-thickness="50"
    underline-position="-100"
    stemh="126"
    stemv="180"
    unicode-range="U+0020-FB02"
  />
<missing-glyph horiz-adv-x="500" 
d="M0 0v700h500v-700h-500zM250 395l170 255h-340zM280 350l170 -255v510zM80 50h340l-170 255zM50 605v-510l170 255z" />
    <glyph glyph-name="fi" unicode="fi" horiz-adv-x="778" 
d="M119 0v395h-106v126h109v32c0 155 73 209 217 209c39 0 69 -6 92 -10l-11 -124c-15 5 -30 8 -57 8c-46 0 -64 -32 -64 -83v-32h128v-126h-128v-395h-180zM521 0v521h180v-521h-180zM701 738v-132h-180v132h180z" />
    <glyph glyph-name="fl" unicode="fl" horiz-adv-x="778" 
d="M119 0v395h-106v126h109v32c0 155 73 209 217 209c39 0 69 -6 92 -10l-11 -124c-15 5 -30 8 -57 8c-46 0 -64 -32 -64 -83v-32h128v-126h-128v-395h-180zM521 0v750h180v-750h-180z" />
    <glyph glyph-name=".notdef" horiz-adv-x="500" 
d="M0 0v700h500v-700h-500zM250 395l170 255h-340zM280 350l170 -255v510zM80 50h340l-170 255zM50 605v-510l170 255z" />
    <glyph glyph-name="space" unicode=" " horiz-adv-x="306" 
 />
    <glyph glyph-name="exclam" unicode="!" horiz-adv-x="444" 
d="M315 698l-26 -461h-134l-26 461h186zM138 0v162h168v-162h-168z" />
    <glyph glyph-name="quotedbl" unicode="&#x22;" 
d="M337 427v271h132v-271h-132zM142 427v271h132v-271h-132z" />
    <glyph glyph-name="numbersign" unicode="#" horiz-adv-x="612" 
d="M58 187v108h99l15 110h-84v108h99l26 185h106l-26 -185h87l25 185h105l-25 -185h69v-108h-84l-15 -110h69v-108h-84l-26 -187h-105l26 187h-87l-26 -187h-106l26 187h-84zM350 295l15 110h-87l-15 -110h87z" />
    <glyph glyph-name="dollar" unicode="$" horiz-adv-x="612" 
d="M266 120v169c-112 17 -228 83 -228 211c0 143 109 204 241 210v85h60v-85c62 0 139 -9 185 -31l-12 -135c-45 22 -116 40 -173 40v-151c127 -28 236 -68 236 -229c0 -146 -126 -214 -249 -216v-86h-60v86c-64 0 -161 10 -202 26l13 142c62 -25 128 -36 189 -36zM279 445
v139c-45 -2 -79 -30 -79 -68c0 -44 37 -66 79 -71zM326 280v-160c53 5 87 29 87 86c0 49 -46 67 -87 74z" />
    <glyph glyph-name="percent" unicode="%" horiz-adv-x="1000" 
d="M602 195c0 115 44 207 175 207s175 -92 175 -207c0 -121 -44 -207 -175 -207s-175 86 -175 207zM728 195c0 -51 0 -117 49 -117s49 66 49 117c0 50 0 117 -49 117s-49 -67 -49 -117zM48 503c0 115 44 207 175 207s175 -92 175 -207c0 -121 -44 -207 -175 -207
s-175 86 -175 207zM174 503c0 -51 0 -117 49 -117s49 66 49 117c0 50 0 117 -49 117s-49 -67 -49 -117zM253 -22l382 742h109l-381 -742h-110z" />
    <glyph glyph-name="ampersand" unicode="&#x26;" horiz-adv-x="778" 
d="M587 377h162c-4 -89 -42 -175 -107 -239l124 -138h-199c-14 19 -27 37 -42 53c-60 -52 -141 -65 -217 -65c-133 0 -264 68 -264 212c0 97 51 150 137 190c-56 44 -84 92 -84 153c0 123 122 167 232 167c122 0 242 -42 242 -172c0 -88 -76 -133 -150 -176
c41 -36 81 -73 120 -111c32 35 44 81 46 126zM214 204c0 -60 56 -96 112 -96c42 0 71 12 106 38c-50 55 -102 105 -155 154c-39 -21 -63 -46 -63 -96zM257 534c0 -40 39 -72 67 -94c34 20 85 48 85 94c0 41 -35 62 -78 62s-74 -27 -74 -62z" />
    <glyph glyph-name="quoteright" unicode="&#x2019;" horiz-adv-x="333" 
d="M49 427l67 271h168l-98 -271h-137z" />
    <glyph glyph-name="parenleft" unicode="(" horiz-adv-x="389" 
d="M228 756h147c-87 -136 -144 -285 -144 -448c0 -160 56 -311 137 -448h-142c-98 132 -157 282 -157 448c0 164 67 315 159 448z" />
    <glyph glyph-name="parenright" unicode=")" horiz-adv-x="389" 
d="M161 -140h-147c86 135 144 287 144 448s-58 314 -144 448h147c99 -129 159 -284 159 -448c0 -163 -67 -316 -159 -448z" />
    <glyph glyph-name="asterisk" unicode="*" 
d="M135 372l103 103l-142 27l38 116l133 -66l-21 146h122l-20 -144l130 64l37 -117l-144 -25l102 -103l-101 -73l-67 129l-72 -128z" />
    <glyph glyph-name="plus" unicode="+" horiz-adv-x="600" 
d="M47 190v126h190v190h126v-190h190v-126h-190v-190h-126v190h-190z" />
    <glyph glyph-name="comma" unicode="," horiz-adv-x="306" 
d="M2 -109l67 271h168l-98 -271h-137z" />
    <glyph glyph-name="hyphen" unicode="-" horiz-adv-x="333" 
d="M31 203v132h271v-132h-271z" />
    <glyph glyph-name="period" unicode="." horiz-adv-x="306" 
d="M69 0v162h168v-162h-168z" />
    <glyph glyph-name="slash" unicode="/" horiz-adv-x="278" 
d="M-21 -12l194 722h126l-194 -722h-126z" />
    <glyph glyph-name="zero" unicode="0" horiz-adv-x="612" 
d="M306 -12c-231 0 -271 180 -271 361s40 361 271 361s271 -180 271 -361s-40 -361 -271 -361zM306 114c84 0 91 124 91 235s-7 235 -91 235s-91 -124 -91 -235s7 -235 91 -235z" />
    <glyph glyph-name="one" unicode="1" horiz-adv-x="612" 
d="M280 0v512l-132 -94l-83 126l237 154h164v-698h-186z" />
    <glyph glyph-name="two" unicode="2" horiz-adv-x="612" 
d="M42 0v133c142 123 306 257 306 351c0 62 -43 88 -99 88c-60 0 -140 -23 -183 -48l-7 145c100 36 166 41 207 41c156 0 268 -66 268 -205c0 -136 -147 -273 -213 -330l-50 -43h276v-132h-505z" />
    <glyph glyph-name="three" unicode="3" horiz-adv-x="612" 
d="M72 544l-9 137c64 19 126 29 203 29c130 0 274 -39 274 -191c0 -80 -51 -132 -128 -153v-2c84 -17 139 -72 139 -159c0 -172 -169 -217 -305 -217c-78 0 -154 6 -204 24l9 147c45 -26 107 -33 173 -33c55 0 141 17 141 89s-83 80 -127 80c-30 0 -56 -1 -78 -2v124
c32 -3 54 -2 80 -2c43 0 114 20 114 77c0 67 -64 80 -120 80c-62 0 -122 -10 -162 -28z" />
    <glyph glyph-name="four" unicode="4" horiz-adv-x="612" 
d="M320 0v133h-312v148l280 417h206v-439h99v-126h-99v-133h-174zM332 259v295h-2l-190 -295h192z" />
    <glyph glyph-name="five" unicode="5" horiz-adv-x="612" 
d="M75 323l5 375h455v-126h-295v-116c26 2 43 4 55 4c142 0 267 -62 267 -216c0 -195 -151 -256 -307 -256c-69 0 -130 11 -187 25l3 151c53 -26 111 -38 170 -38c68 0 141 23 141 112c0 78 -81 102 -155 102c-51 0 -102 -4 -152 -17z" />
    <glyph glyph-name="six" unicode="6" horiz-adv-x="612" 
d="M530 678l-11 -137c-30 20 -79 37 -147 37c-124 0 -162 -82 -163 -205h2c33 47 81 71 151 71c128 0 209 -95 209 -220c0 -129 -108 -236 -262 -236c-199 0 -268 156 -268 331c0 214 77 391 308 391c71 0 128 -11 181 -32zM217 215c0 -57 31 -107 91 -107c58 0 89 45 89 99
c0 58 -24 111 -89 111c-61 0 -91 -49 -91 -103z" />
    <glyph glyph-name="seven" unicode="7" horiz-adv-x="612" 
d="M102 0l260 566h-312v132h502v-151l-250 -547h-200z" />
    <glyph glyph-name="eight" unicode="8" horiz-adv-x="612" 
d="M171 359v1c-65 22 -120 80 -120 149c0 149 124 201 262 201s240 -56 240 -179c0 -86 -54 -137 -115 -160v-2c76 -24 141 -67 141 -172c0 -150 -128 -209 -274 -209c-150 0 -272 56 -272 199c0 102 63 150 138 172zM219 508c0 -53 44 -73 87 -92c49 28 79 53 79 100
c0 50 -43 74 -84 74c-45 0 -82 -34 -82 -82zM213 201c0 -50 41 -87 90 -87c53 0 96 33 96 90c0 62 -58 87 -105 101c-45 -21 -81 -50 -81 -104z" />
    <glyph glyph-name="nine" unicode="9" horiz-adv-x="612" 
d="M82 20l11 137c30 -20 79 -37 147 -37c124 0 162 82 163 205h-2c-33 -47 -81 -71 -151 -71c-128 0 -209 95 -209 220c0 129 108 236 262 236c199 0 268 -156 268 -331c0 -214 -77 -391 -308 -391c-71 0 -128 11 -181 32zM395 483c0 57 -31 107 -91 107
c-58 0 -89 -45 -89 -99c0 -58 24 -111 89 -111c61 0 91 49 91 103z" />
    <glyph glyph-name="colon" unicode=":" horiz-adv-x="306" 
d="M69 359v162h168v-162h-168zM69 0v162h168v-162h-168z" />
    <glyph glyph-name="semicolon" unicode=";" horiz-adv-x="306" 
d="M2 -109l67 271h168l-98 -271h-137zM69 359v162h168v-162h-168z" />
    <glyph glyph-name="less" unicode="&#x3c;" horiz-adv-x="600" 
d="M553 514v-122l-341 -139l341 -139v-122l-506 208v106z" />
    <glyph glyph-name="equal" unicode="=" horiz-adv-x="600" 
d="M47 305v126h506v-126h-506zM47 75v126h506v-126h-506z" />
    <glyph glyph-name="greater" unicode="&#x3e;" horiz-adv-x="600" 
d="M47 -8v122l341 139l-341 139v122l506 -208v-106z" />
    <glyph glyph-name="question" unicode="?" horiz-adv-x="556" 
d="M69 541l-4 140c68 21 139 29 210 29c110 0 241 -43 241 -168c0 -136 -152 -172 -163 -305h-146c0 128 129 180 129 269c0 51 -62 72 -110 72c-55 0 -108 -12 -157 -37zM196 0v162h168v-162h-168z" />
    <glyph glyph-name="at" unicode="@" horiz-adv-x="800" 
d="M392 235c58 0 93 46 93 109c0 54 -33 93 -83 93c-59 0 -94 -53 -94 -106c0 -54 29 -96 84 -96zM613 137h102c-70 -97 -170 -149 -291 -149c-219 0 -387 151 -387 361c0 206 159 361 381 361c185 0 345 -113 345 -292c0 -221 -199 -279 -255 -279c-27 0 -50 16 -51 49h-2
c-24 -27 -61 -49 -101 -49c-82 0 -154 80 -154 193c0 104 76 201 190 201c49 0 91 -17 120 -57l9 47h94l-34 -209c-5 -26 -10 -45 -10 -55c0 -11 2 -19 13 -19c37 0 84 43 85 147c1 143 -79 227 -257 227c-157 0 -259 -113 -259 -267c0 -170 110 -263 271 -263
c84 0 148 23 191 53z" />
    <glyph glyph-name="A" unicode="A" horiz-adv-x="778" 
d="M8 0l265 698h228l269 -698h-204l-52 149h-262l-55 -149h-189zM470 281l-83 273h-2l-90 -273h175z" />
    <glyph glyph-name="B" unicode="B" horiz-adv-x="667" 
d="M60 0v698h321c130 0 227 -57 227 -177c0 -88 -45 -137 -123 -163v-2c93 -19 141 -69 141 -154c0 -167 -147 -202 -272 -202h-294zM246 296v-164h55c68 0 139 10 139 81c0 76 -73 83 -137 83h-57zM246 566v-144h52c61 0 124 15 124 74c0 64 -60 70 -122 70h-54z" />
    <glyph glyph-name="C" unicode="C" horiz-adv-x="667" 
d="M638 162l9 -146c-53 -13 -112 -28 -207 -28c-186 0 -401 94 -401 358c0 243 170 364 400 364c71 0 140 -16 207 -36l-15 -151c-60 33 -118 49 -182 49c-132 0 -218 -96 -218 -226c0 -137 97 -220 233 -220c61 0 123 16 174 36z" />
    <glyph glyph-name="D" unicode="D" horiz-adv-x="778" 
d="M65 0v698h254c243 0 413 -76 413 -346c0 -261 -175 -352 -413 -352h-254zM251 560v-422h72c139 0 217 72 217 211s-81 211 -217 211h-72z" />
    <glyph glyph-name="E" unicode="E" 
d="M60 0v698h492v-132h-306v-144h289v-132h-289v-158h317v-132h-503z" />
    <glyph glyph-name="F" unicode="F" horiz-adv-x="556" 
d="M60 0v698h467v-132h-281v-153h269v-132h-269v-281h-186z" />
    <glyph glyph-name="G" unicode="G" horiz-adv-x="778" 
d="M710 408v-388c-118 -30 -206 -32 -270 -32c-186 0 -401 94 -401 358c0 263 185 364 441 364c46 0 143 -5 211 -31l-15 -152c-58 34 -126 45 -170 45c-151 0 -275 -63 -275 -226c0 -137 97 -220 233 -220c25 0 49 4 66 12v138h-109v132h289z" />
    <glyph glyph-name="H" unicode="H" horiz-adv-x="722" 
d="M65 0v698h186v-267h220v267h186v-698h-186v299h-220v-299h-186z" />
    <glyph glyph-name="I" unicode="I" horiz-adv-x="334" 
d="M74 0v698h186v-698h-186z" />
    <glyph glyph-name="J" unicode="J" horiz-adv-x="444" 
d="M14 7v154c23 -11 52 -17 84 -17c55 0 95 39 95 153v401h186v-457c0 -150 -61 -253 -250 -253c-41 0 -83 11 -115 19z" />
    <glyph glyph-name="K" unicode="K" horiz-adv-x="722" 
d="M65 0v698h186v-285h2l210 285h224l-258 -325l278 -373h-237l-217 317h-2v-317h-186z" />
    <glyph glyph-name="L" unicode="L" horiz-adv-x="556" 
d="M65 0v698h186v-560h288v-138h-474z" />
    <glyph glyph-name="M" unicode="M" horiz-adv-x="1000" 
d="M60 0v698h293l148 -464h2l155 464h282v-698h-182l3 536h-2l-178 -536h-171l-170 536h-2l4 -536h-182z" />
    <glyph glyph-name="N" unicode="N" horiz-adv-x="778" 
d="M68 0v698h237l236 -474h2l-3 474h170v-698h-231l-244 477h-2l6 -477h-171z" />
    <glyph glyph-name="O" unicode="O" horiz-adv-x="778" 
d="M39 349c0 224 120 361 350 361s350 -137 350 -361c0 -222 -122 -361 -350 -361s-350 139 -350 361zM231 349c0 -115 45 -223 158 -223s158 108 158 223c0 121 -45 223 -158 223s-158 -102 -158 -223z" />
    <glyph glyph-name="P" unicode="P" 
d="M55 0v698h222c213 0 313 -72 313 -229c0 -141 -103 -225 -277 -225h-72v-244h-186zM241 566v-190h48c64 0 115 23 115 96c0 71 -51 94 -115 94h-48z" />
    <glyph glyph-name="Q" unicode="Q" horiz-adv-x="778" 
d="M231 349c0 -115 45 -223 158 -223s158 108 158 223c0 121 -45 223 -158 223s-158 -102 -158 -223zM516 -132l-117 120h-10c-228 0 -350 139 -350 361c0 224 120 361 350 361s350 -137 350 -361c0 -157 -61 -273 -178 -326l165 -155h-210z" />
    <glyph glyph-name="R" unicode="R" horiz-adv-x="667" 
d="M60 0v698h332c124 0 225 -56 225 -176c0 -93 -44 -155 -134 -176v-2c60 -16 64 -69 99 -154l68 -190h-194l-40 126c-38 120 -62 150 -131 150h-39v-276h-186zM246 566v-158h49c60 0 136 2 136 81c0 65 -65 77 -136 77h-49z" />
    <glyph glyph-name="S" unicode="S" 
d="M51 18l16 154c48 -26 115 -46 192 -46c59 0 115 12 115 68c0 130 -330 48 -330 302c0 168 164 214 304 214c67 0 133 -10 180 -26l-12 -144c-48 22 -102 32 -155 32c-47 0 -125 -4 -125 -65c0 -113 330 -37 330 -289c0 -181 -152 -230 -307 -230c-65 0 -146 10 -208 30z
" />
    <glyph glyph-name="T" unicode="T" horiz-adv-x="556" 
d="M185 0v560h-172v138h530v-138h-172v-560h-186z" />
    <glyph glyph-name="U" unicode="U" horiz-adv-x="722" 
d="M667 698v-433c0 -191 -124 -277 -306 -277s-306 86 -306 277v433h186v-402c0 -92 25 -170 120 -170s120 78 120 170v402h186z" />
    <glyph glyph-name="V" unicode="V" horiz-adv-x="722" 
d="M244 0l-234 698h198l155 -548h2l156 548h191l-238 -698h-230z" />
    <glyph glyph-name="W" unicode="W" horiz-adv-x="1000" 
d="M163 0l-155 698h190l90 -536h2l94 536h236l98 -536h2l91 536h181l-156 -698h-239l-99 536h-2l-92 -536h-241z" />
    <glyph glyph-name="X" unicode="X" horiz-adv-x="722" 
d="M10 0l226 367l-202 331h217l117 -230l120 230h204l-204 -331l224 -367h-222l-135 257l-134 -257h-211z" />
    <glyph glyph-name="Y" unicode="Y" horiz-adv-x="722" 
d="M269 0v263l-258 435h214l137 -280l135 280h214l-256 -435v-263h-186z" />
    <glyph glyph-name="Z" unicode="Z" 
d="M570 698v-148l-342 -412h344v-138h-546v148l332 412h-323v138h535z" />
    <glyph glyph-name="bracketleft" unicode="[" horiz-adv-x="389" 
d="M352 756v-114h-114v-668h114v-114h-264v896h264z" />
    <glyph glyph-name="backslash" unicode="\" horiz-adv-x="278" 
d="M173 -12l-194 722h126l194 -722h-126z" />
    <glyph glyph-name="bracketright" unicode="]" horiz-adv-x="389" 
d="M37 -140v114h114v668h-114v114h264v-896h-264z" />
    <glyph glyph-name="asciicircum" unicode="^" horiz-adv-x="600" 
d="M70 333l174 365h112l174 -365h-122l-108 227l-108 -227h-122z" />
    <glyph glyph-name="underscore" unicode="_" horiz-adv-x="500" 
d="M0 -75h500v-50h-500v50z" />
    <glyph glyph-name="quoteleft" unicode="&#x2018;" horiz-adv-x="333" 
d="M284 698l-67 -271h-168l98 271h137z" />
    <glyph glyph-name="a" unicode="a" 
d="M562 0h-165c-1 28 -4 55 -4 82h-2c-41 -65 -91 -94 -165 -94c-103 0 -195 51 -195 164c0 159 173 178 269 178c29 0 61 -3 84 -7c-1 71 -54 90 -119 90c-58 0 -116 -11 -166 -39l-3 122c64 26 131 37 208 37c133 0 248 -57 248 -216v-194c0 -41 2 -82 10 -123zM199 165
c0 -36 32 -57 74 -57c68 0 111 62 111 123c-23 1 -49 3 -76 3c-61 0 -109 -19 -109 -69z" />
    <glyph glyph-name="b" unicode="b" horiz-adv-x="668" 
d="M52 0v750h181v-296h2c46 58 107 79 179 79c144 0 223 -137 223 -263c0 -154 -83 -282 -238 -282c-83 0 -156 47 -179 105h-2v-93h-166zM451 266c0 69 -39 129 -109 129c-66 0 -110 -58 -110 -136c0 -76 50 -133 110 -133c68 0 109 57 109 140z" />
    <glyph glyph-name="c" unicode="c" horiz-adv-x="500" 
d="M477 504l-13 -132c-33 20 -66 29 -109 29c-78 0 -138 -54 -138 -144c0 -83 70 -137 148 -137c41 0 82 9 112 25l4 -134c-45 -15 -99 -23 -147 -23c-172 0 -303 100 -303 272c0 173 131 273 303 273c54 0 102 -9 143 -29z" />
    <glyph glyph-name="d" unicode="d" horiz-adv-x="668" 
d="M616 750v-750h-166v93h-2c-23 -58 -96 -105 -179 -105c-155 0 -238 128 -238 282c0 128 79 263 223 263c72 0 133 -19 179 -79h2v296h181zM217 266c0 -83 41 -140 109 -140c60 0 110 57 110 133c0 79 -44 136 -110 136c-70 0 -109 -60 -109 -129z" />
    <glyph glyph-name="e" unicode="e" 
d="M573 208h-360c10 -72 65 -100 153 -100c49 0 105 11 159 40v-127c-58 -23 -124 -33 -191 -33c-172 0 -303 101 -303 273s117 272 279 272c193 0 263 -137 263 -292v-33zM211 310h200c0 60 -28 109 -100 109c-65 0 -96 -49 -100 -109z" />
    <glyph glyph-name="f" unicode="f" horiz-adv-x="444" 
d="M119 0v395h-106v126h109v32c0 155 73 209 217 209c39 0 69 -6 92 -10l-11 -124c-15 5 -30 8 -57 8c-46 0 -64 -32 -64 -83v-32h128v-126h-128v-395h-180z" />
    <glyph glyph-name="g" unicode="g" horiz-adv-x="668" 
d="M608 521v-460c0 -214 -104 -283 -314 -283c-86 0 -157 18 -199 33l9 142c55 -27 101 -43 176 -43c104 0 160 49 160 151v28h-2c-43 -61 -103 -89 -175 -89c-143 0 -232 108 -232 262c0 155 73 271 235 271c77 0 139 -42 177 -106h2v94h163zM217 265
c0 -81 48 -127 102 -127c64 0 115 54 115 134c0 58 -34 123 -115 123c-67 0 -102 -59 -102 -130z" />
    <glyph glyph-name="h" unicode="h" horiz-adv-x="667" 
d="M56 0v750h180v-306h2c39 54 96 89 174 89c142 0 199 -100 199 -208v-325h-180v252c0 98 -34 131 -83 131c-74 0 -112 -51 -112 -163v-220h-180z" />
    <glyph glyph-name="i" unicode="i" horiz-adv-x="334" 
d="M77 0v521h180v-521h-180zM257 738v-132h-180v132h180z" />
    <glyph glyph-name="j" unicode="j" horiz-adv-x="334" 
d="M-25 -213l4 114c13 -3 26 -3 38 -3c56 0 60 52 60 102v521h180v-526c0 -130 -42 -217 -181 -217c-38 0 -69 2 -101 9zM257 738v-132h-180v132h180z" />
    <glyph glyph-name="k" unicode="k" 
d="M56 0v750h180v-448h2l150 219h197l-181 -239l196 -282h-218l-144 258h-2v-258h-180z" />
    <glyph glyph-name="l" unicode="l" horiz-adv-x="334" 
d="M77 0v750h180v-750h-180z" />
    <glyph glyph-name="m" unicode="m" horiz-adv-x="1000" 
d="M56 0v521h164v-96h2c36 75 108 108 190 108c74 0 135 -32 163 -100c42 70 111 100 185 100c150 0 184 -85 184 -226v-307h-180v280c0 59 -21 103 -72 103c-64 0 -102 -51 -102 -163v-220h-180v280c0 59 -21 103 -72 103c-64 0 -102 -51 -102 -163v-220h-180z" />
    <glyph glyph-name="n" unicode="n" horiz-adv-x="667" 
d="M56 0v521h164v-96h2c36 75 108 108 190 108c142 0 199 -100 199 -208v-325h-180v252c0 98 -34 131 -83 131c-74 0 -112 -51 -112 -163v-220h-180z" />
    <glyph glyph-name="o" unicode="o" horiz-adv-x="668" 
d="M334 -12c-172 0 -303 100 -303 272c0 173 131 273 303 273s303 -100 303 -273c0 -172 -131 -272 -303 -272zM334 114c83 0 117 69 117 146c0 78 -34 147 -117 147s-117 -69 -117 -147c0 -77 34 -146 117 -146z" />
    <glyph glyph-name="p" unicode="p" horiz-adv-x="668" 
d="M52 -210v731h166v-94h2c36 73 112 106 194 106c144 0 223 -137 223 -263c0 -154 -83 -282 -238 -282c-63 0 -131 23 -165 85h-2v-283h-180zM451 266c0 69 -39 129 -109 129c-66 0 -110 -58 -110 -136c0 -76 50 -133 110 -133c68 0 109 57 109 140z" />
    <glyph glyph-name="q" unicode="q" horiz-adv-x="668" 
d="M616 521v-731h-180v283h-2c-34 -62 -102 -85 -165 -85c-155 0 -238 128 -238 282c0 128 79 263 223 263c82 0 158 -32 194 -106h2v94h166zM217 266c0 -83 41 -140 109 -140c60 0 110 57 110 133c0 79 -44 136 -110 136c-70 0 -109 -60 -109 -129z" />
    <glyph glyph-name="r" unicode="r" horiz-adv-x="444" 
d="M437 527l-9 -150c-20 6 -40 6 -61 6c-84 0 -131 -61 -131 -163v-220h-180v521h164v-96h2c31 66 76 108 154 108c21 0 43 -3 61 -6z" />
    <glyph glyph-name="s" unicode="s" horiz-adv-x="500" 
d="M36 13l10 131c42 -18 104 -36 169 -36c37 0 73 6 73 42c0 88 -256 26 -256 214c0 120 118 169 222 169c62 0 125 -7 183 -30l-14 -125c-38 23 -95 35 -140 35c-39 0 -83 -7 -83 -36c0 -81 268 -17 268 -215c0 -139 -125 -174 -243 -174c-81 0 -136 8 -189 25z" />
    <glyph glyph-name="t" unicode="t" horiz-adv-x="444" 
d="M10 395v126h106v117l177 55v-172h126v-126h-126v-192c0 -63 15 -95 72 -95c18 0 37 4 55 7l6 -117c-34 -4 -68 -10 -113 -10c-161 0 -200 71 -200 195v212h-103z" />
    <glyph glyph-name="u" unicode="u" horiz-adv-x="667" 
d="M611 521v-521h-164v96h-2c-36 -75 -108 -108 -190 -108c-142 0 -199 100 -199 208v325h180v-252c0 -98 34 -131 83 -131c74 0 112 51 112 163v220h180z" />
    <glyph glyph-name="v" unicode="v" 
d="M203 0l-193 521h193l108 -371h2l109 371h179l-193 -521h-205z" />
    <glyph glyph-name="w" unicode="w" horiz-adv-x="944" 
d="M169 0l-160 521h188l84 -375h2l90 375h216l88 -375h2l82 375h174l-159 -521h-209l-88 377h-2l-99 -377h-209z" />
    <glyph glyph-name="x" unicode="x" 
d="M9 0l177 265l-163 256h213l77 -156l81 156h197l-163 -254l174 -267h-217l-87 162l-86 -162h-203z" />
    <glyph glyph-name="y" unicode="y" 
d="M45 -210l12 137c24 -8 46 -11 71 -11c44 0 78 26 91 72l-211 533h194l112 -340h2l107 340h180l-191 -485c-51 -131 -90 -258 -255 -258c-38 0 -75 4 -112 12z" />
    <glyph glyph-name="z" unicode="z" horiz-adv-x="500" 
d="M26 0v144l238 245h-233v132h439v-144l-238 -245h242v-132h-448z" />
    <glyph glyph-name="braceleft" unicode="{" horiz-adv-x="389" 
d="M359 756v-90h-47c-54 0 -58 -37 -58 -64v-183c-1 -90 -73 -107 -116 -110v-2c43 -3 115 -10 116 -117v-176c0 -27 4 -64 58 -64h47v-90h-100c-72 0 -143 42 -143 137v193c0 66 -63 73 -86 73v90c23 0 86 6 86 66v200c0 95 71 137 143 137h100z" />
    <glyph glyph-name="bar" unicode="|" horiz-adv-x="222" 
d="M48 750h126v-1000h-126v1000z" />
    <glyph glyph-name="braceright" unicode="}" horiz-adv-x="389" 
d="M30 -140v90h47c54 0 58 37 58 64v183c1 90 73 107 116 110v2c-43 3 -115 10 -116 117v176c0 27 -4 64 -58 64h-47v90h100c72 0 143 -42 143 -137v-193c0 -66 63 -73 86 -73v-90c-23 0 -86 -6 -86 -66v-200c0 -95 -71 -137 -143 -137h-100z" />
    <glyph glyph-name="asciitilde" unicode="~" horiz-adv-x="600" 
d="M495 353l36 -109c-22 -42 -58 -86 -125 -86c-81 0 -150 64 -213 64c-40 0 -65 -35 -88 -69l-36 109c22 42 58 86 125 86c81 0 150 -64 213 -64c40 0 65 35 88 69z" />
    <glyph glyph-name="exclamdown" unicode="&#xa1;" horiz-adv-x="444" 
d="M129 -177l26 461h134l26 -461h-186zM306 521v-162h-168v162h168z" />
    <glyph glyph-name="cent" unicode="&#xa2;" horiz-adv-x="612" 
d="M314 150l75 251c-74 -3 -130 -56 -130 -144c0 -47 23 -85 55 -107zM226 -140l43 143c-117 33 -196 124 -196 257c0 173 131 273 303 273c18 0 35 -1 52 -3l36 117h59l-39 -129c13 -4 24 -9 35 -14l-13 -132c-19 11 -38 20 -59 25l-81 -271c14 -4 27 -6 41 -6
c41 0 82 9 112 25l4 -134c-45 -15 -99 -23 -147 -23c-17 0 -34 1 -50 3l-40 -131h-60z" />
    <glyph glyph-name="sterling" unicode="&#xa3;" horiz-adv-x="612" 
d="M53 0v132h92v190h-84v90h86v53c0 168 106 245 282 245c46 0 91 -7 135 -18l-8 -132c-26 9 -53 12 -83 12c-110 0 -142 -47 -142 -127v-33h152v-90h-152v-190h225v-132h-503z" />
    <glyph glyph-name="fraction" unicode="&#x2044;" horiz-adv-x="167" 
d="M-164 -22l387 742h109l-387 -742h-109z" />
    <glyph glyph-name="yen" unicode="&#xa5;" horiz-adv-x="612" 
d="M216 0v136h-148v84h148v43l-9 19h-139v84h97l-165 332h186l120 -282l118 282h188l-165 -332h97v-84h-138l-10 -19v-43h148v-84h-148v-136h-180z" />
    <glyph glyph-name="florin" unicode="&#x192;" horiz-adv-x="612" 
d="M103 314v108h128l23 108c22 107 71 180 191 180c42 0 83 -5 127 -26l-21 -126c-12 13 -33 26 -58 26c-42 0 -53 -41 -61 -79l-18 -83h99v-108h-124l-72 -336c-37 -174 -111 -200 -203 -200c-33 0 -76 7 -114 26l21 120c10 -10 32 -20 51 -20c38 0 53 22 59 48l77 362
h-105z" />
    <glyph glyph-name="section" unicode="&#xa7;" 
d="M84 -109l9 131c50 -23 124 -40 178 -40c50 0 88 10 88 52c0 86 -299 79 -299 253c0 64 35 102 90 136c-45 20 -79 67 -79 116c0 143 142 171 260 171c54 0 110 -11 162 -25l-8 -124c-48 19 -103 29 -155 29c-41 0 -79 -8 -79 -46c0 -80 300 -67 300 -255
c0 -57 -35 -103 -82 -136c43 -22 70 -74 70 -121c0 -125 -151 -170 -261 -170c-79 0 -150 17 -194 29zM243 382c-16 -19 -33 -44 -33 -70c0 -16 5 -30 17 -41c36 -34 89 -48 144 -70c17 20 30 49 30 76c0 22 -17 37 -32 46c-35 21 -83 41 -126 59z" />
    <glyph glyph-name="currency" unicode="&#xa4;" horiz-adv-x="612" 
d="M46 151l58 57c-34 34 -46 94 -46 141s12 107 46 141l-58 57l63 62l57 -54c35 28 96 42 140 42s105 -14 140 -42l57 54l63 -62l-58 -57c34 -34 46 -94 46 -141s-12 -107 -46 -141l58 -57l-63 -62l-57 54c-35 -28 -96 -42 -140 -42s-105 14 -140 42l-57 -54zM306 227
c67 0 116 52 116 122s-49 122 -116 122s-116 -52 -116 -122s49 -122 116 -122z" />
    <glyph glyph-name="quotesingle" unicode="'" horiz-adv-x="333" 
d="M101 427v271h132v-271h-132z" />
    <glyph glyph-name="quotedblleft" unicode="&#x201c;" 
d="M308 698l-67 -271h-168l98 271h137zM538 698l-67 -271h-168l98 271h137z" />
    <glyph glyph-name="guillemotleft" unicode="&#xab;" 
d="M166 65l-119 204l119 204h148l-110 -204l110 -204h-148zM404 65l-119 204l119 204h148l-110 -204l110 -204h-148z" />
    <glyph glyph-name="guilsinglleft" unicode="&#x2039;" horiz-adv-x="333" 
d="M147 65l-119 204l119 204h148l-110 -204l110 -204h-148z" />
    <glyph glyph-name="guilsinglright" unicode="&#x203a;" horiz-adv-x="333" 
d="M186 473l119 -204l-119 -204h-148l110 204l-110 204h148z" />
    <glyph glyph-name="endash" unicode="&#x2013;" horiz-adv-x="500" 
d="M0 206v126h500v-126h-500z" />
    <glyph glyph-name="dagger" unicode="&#x2020;" 
d="M225 0v399h-173v132h173v167h162v-167h173v-132h-173v-399h-162z" />
    <glyph glyph-name="daggerdbl" unicode="&#x2021;" 
d="M225 0v135h-173v120h173v187h-173v120h173v136h162v-136h173v-120h-173v-187h173v-120h-173v-135h-162z" />
    <glyph glyph-name="periodcentered" unicode="&#xb7;" horiz-adv-x="306" 
d="M60 272c0 51 42 93 93 93s93 -42 93 -93s-42 -93 -93 -93s-93 42 -93 93z" />
    <glyph glyph-name="paragraph" unicode="&#xb6;" horiz-adv-x="620" 
d="M241 -126v474c-124 0 -223 39 -223 175s99 175 223 175h337v-824h-120v734h-97v-734h-120z" />
    <glyph glyph-name="bullet" unicode="&#x2022;" horiz-adv-x="500" 
d="M76 349c0 96 78 174 174 174s175 -78 175 -174s-79 -175 -175 -175s-174 79 -174 175z" />
    <glyph glyph-name="quotesinglbase" unicode="&#x201a;" horiz-adv-x="333" 
d="M49 -109l67 271h168l-98 -271h-137z" />
    <glyph glyph-name="quotedblbase" unicode="&#x201e;" 
d="M73 -109l67 271h169l-98 -271h-138zM302 -109l67 271h169l-98 -271h-138z" />
    <glyph glyph-name="quotedblright" unicode="&#x201d;" 
d="M73 427l67 271h168l-98 -271h-137zM303 427l67 271h168l-98 -271h-137z" />
    <glyph glyph-name="guillemotright" unicode="&#xbb;" 
d="M207 473l119 -204l-119 -204h-148l110 204l-110 204h148zM445 473l119 -204l-119 -204h-148l110 204l-110 204h148z" />
    <glyph glyph-name="ellipsis" unicode="&#x2026;" horiz-adv-x="1000" 
d="M83 0v162h168v-162h-168zM416 0v162h168v-162h-168zM749 0v162h168v-162h-168z" />
    <glyph glyph-name="perthousand" unicode="&#x2030;" horiz-adv-x="1000" 
d="M505 72c41 0 41 67 41 106s0 106 -41 106s-41 -67 -41 -106s0 -106 41 -106zM505 -12c-122 0 -155 91 -155 196c0 106 32 196 155 196c115 0 155 -83 155 -196c0 -107 -37 -196 -155 -196zM844 -12c-122 0 -155 91 -155 196c0 106 32 196 155 196c115 0 155 -83 155 -196
c0 -107 -37 -196 -155 -196zM844 72c41 0 41 67 41 106s0 106 -41 106s-41 -67 -41 -106s0 -106 41 -106zM156 318c-122 0 -155 91 -155 196c0 106 32 196 155 196c115 0 155 -83 155 -196c0 -107 -37 -196 -155 -196zM156 408c41 0 41 67 41 106s0 106 -41 106
s-41 -67 -41 -106s0 -106 41 -106zM97 -22l387 742h80l-389 -742h-78z" />
    <glyph glyph-name="questiondown" unicode="&#xbf;" horiz-adv-x="556" 
d="M487 -20l4 -140c-68 -21 -139 -29 -210 -29c-110 0 -241 43 -241 168c0 136 152 172 163 305h146c0 -128 -129 -180 -129 -269c0 -51 62 -72 110 -72c55 0 108 12 157 37zM360 521v-162h-168v162h168z" />
    <glyph glyph-name="grave" unicode="`" horiz-adv-x="333" 
d="M246 585h-126l-129 144h187z" />
    <glyph glyph-name="acute" unicode="&#xb4;" horiz-adv-x="333" 
d="M99 585l68 144h187l-129 -144h-126z" />
    <glyph glyph-name="circumflex" unicode="&#x2c6;" horiz-adv-x="333" 
d="M-26 585l113 144h162l109 -144h-125l-65 78l-69 -78h-125z" />
    <glyph glyph-name="tilde" unicode="&#x2dc;" horiz-adv-x="333" 
d="M291 729h72c-9 -76 -47 -141 -129 -141c-52 0 -109 36 -142 36c-31 0 -43 -14 -49 -39h-72c8 70 47 141 127 141c53 0 107 -36 143 -36c27 0 45 12 50 39z" />
    <glyph glyph-name="macron" unicode="&#xaf;" horiz-adv-x="333" 
d="M-21 623v84h375v-84h-375z" />
    <glyph glyph-name="breve" unicode="&#x2d8;" horiz-adv-x="333" 
d="M-22 729h76c13 -55 61 -73 113 -73s100 18 113 73h76c-10 -95 -70 -157 -189 -157s-179 62 -189 157z" />
    <glyph glyph-name="dotaccent" unicode="&#x2d9;" horiz-adv-x="333" 
d="M95 585v144h144v-144h-144z" />
    <glyph glyph-name="dieresis" unicode="&#xa8;" horiz-adv-x="333" 
d="M209 585v144h144v-144h-144zM-19 585v144h144v-144h-144z" />
    <glyph glyph-name="ring" unicode="&#x2da;" horiz-adv-x="333" 
d="M55 678c0 61 51 112 112 112c62 0 112 -51 112 -112s-50 -112 -112 -112c-61 0 -112 51 -112 112zM119 678c0 -27 21 -48 48 -48s48 21 48 48s-21 48 -48 48s-48 -21 -48 -48z" />
    <glyph glyph-name="cedilla" unicode="&#xb8;" horiz-adv-x="333" 
d="M147 0h66l-27 -65c14 3 26 5 48 5c38 0 78 -23 78 -87c0 -56 -61 -75 -132 -75c-54 0 -90 9 -125 23l17 46c29 -13 58 -21 87 -21c32 0 51 9 51 31c0 28 -18 35 -38 35c-9 0 -18 -2 -28 -6l-39 24z" />
    <glyph glyph-name="hungarumlaut" unicode="&#x2dd;" horiz-adv-x="333" 
d="M-25 585l68 144h187l-129 -144h-126zM223 585l68 144h187l-129 -144h-126z" />
    <glyph glyph-name="ogonek" unicode="&#x2db;" horiz-adv-x="333" 
d="M167 0h69c-41 -32 -86 -71 -86 -115c0 -25 21 -41 43 -41c24 0 48 14 62 28l38 -17c-38 -58 -79 -77 -148 -77c-61 0 -97 31 -97 88c0 63 65 104 119 134z" />
    <glyph glyph-name="caron" unicode="&#x2c7;" horiz-adv-x="333" 
d="M359 729l-113 -144h-162l-109 144h111l79 -78l83 78h111z" />
    <glyph glyph-name="emdash" unicode="&#x2014;" horiz-adv-x="1000" 
d="M0 206v126h1000v-126h-1000z" />
    <glyph glyph-name="AE" unicode="&#xc6;" horiz-adv-x="1000" 
d="M-4 0l365 698h588v-132h-286v-144h268v-132h-268v-158h298v-132h-484v149h-213l-73 -149h-195zM477 281v285h-9l-139 -285h148z" />
    <glyph glyph-name="ordfeminine" unicode="&#xaa;" horiz-adv-x="397" 
d="M63 615v73c41 15 85 22 135 22c86 0 172 -14 172 -117v-144c1 -20 3 -41 6 -61h-118l-6 47h-2c-22 -37 -55 -55 -103 -55c-67 0 -126 30 -126 100c0 96 112 108 158 108c34 0 56 -3 71 -4c0 45 -35 56 -77 56c-38 0 -76 -7 -110 -25zM250 524h-43c-40 0 -66 -10 -66 -36
c0 -25 17 -38 43 -38c38 0 66 34 66 74z" />
    <glyph glyph-name="Lslash" unicode="&#x141;" horiz-adv-x="556" 
d="M65 0v208l-65 -38v109l65 38v381h186v-271l183 108v-109l-183 -108v-180h288v-138h-474z" />
    <glyph glyph-name="Oslash" unicode="&#xd8;" horiz-adv-x="778" 
d="M242 260l250 269c-25 27 -59 43 -103 43c-113 0 -158 -102 -158 -223c0 -31 3 -62 11 -89zM535 447l-253 -272c24 -30 59 -49 107 -49c113 0 158 108 158 223c0 35 -4 69 -12 98zM15 17l91 97c-44 59 -67 139 -67 235c0 224 120 361 350 361c89 0 161 -21 216 -59l84 91
l64 -60l-84 -91c46 -61 70 -143 70 -242c0 -222 -122 -361 -350 -361c-92 0 -166 22 -222 64l-88 -95z" />
    <glyph glyph-name="OE" unicode="&#x152;" horiz-adv-x="1000" 
d="M971 698v-132h-290v-144h271v-132h-268v-158h298v-132h-416c-33 0 -65 -1 -98 -3c-33 -1 -66 -3 -100 -3c-228 0 -350 140 -350 355c0 217 120 355 350 355c47 0 93 -1 139 -3c47 -1 93 -3 138 -3h326zM492 136v426c-38 0 -82 4 -124 4c-129 0 -158 -102 -158 -217
c0 -109 54 -217 176 -217c41 0 80 4 106 4z" />
    <glyph glyph-name="ordmasculine" unicode="&#xba;" horiz-adv-x="434" 
d="M17 545c0 104 85 165 200 165s200 -61 200 -165s-85 -165 -200 -165s-200 61 -200 165zM143 545c0 -41 22 -81 74 -81s74 40 74 81c0 40 -22 81 -74 81s-74 -41 -74 -81z" />
    <glyph glyph-name="ae" unicode="&#xe6;" horiz-adv-x="944" 
d="M869 148v-127c-58 -23 -124 -33 -191 -33c-89 0 -182 15 -237 117c-51 -92 -130 -117 -224 -117c-103 0 -195 51 -195 165c0 158 173 177 269 177c29 0 61 -3 84 -5c-1 69 -54 88 -119 88c-58 0 -116 -11 -166 -39l-3 123c64 25 131 36 208 36c70 -2 137 -19 175 -64
c46 37 107 64 184 64c193 0 263 -137 263 -292v-33h-360c10 -72 65 -100 153 -100c49 0 105 11 159 40zM190 166c0 -37 32 -58 74 -58c68 0 111 64 111 126h-69c-68 0 -116 -18 -116 -68zM555 310h200c0 60 -28 109 -100 109c-65 0 -96 -49 -100 -109z" />
    <glyph glyph-name="dotlessi" unicode="&#x131;" horiz-adv-x="334" 
d="M77 0v521h180v-521h-180z" />
    <glyph glyph-name="lslash" unicode="&#x142;" horiz-adv-x="334" 
d="M77 0v276l-77 -46v100l77 46v374h180v-268l77 45v-100l-77 -45v-382h-180z" />
    <glyph glyph-name="oslash" unicode="&#xf8;" horiz-adv-x="668" 
d="M445 314l-175 -181c16 -12 38 -19 64 -19c83 0 117 69 117 146c0 19 -2 37 -6 54zM223 205l176 183c-17 12 -38 19 -65 19c-83 0 -117 -69 -117 -147c0 -19 2 -38 6 -55zM32 7l68 70c-43 45 -69 107 -69 183c0 173 131 273 303 273c62 0 120 -13 167 -39l75 78l61 -58
l-68 -71c43 -46 68 -107 68 -183c0 -172 -131 -272 -303 -272c-62 0 -118 13 -166 39l-75 -78z" />
    <glyph glyph-name="oe" unicode="&#x153;" horiz-adv-x="1000" 
d="M27 260c0 183 131 273 283 273c88 0 155 -17 206 -79c55 62 132 79 194 79c193 0 263 -137 263 -292v-33h-360c10 -72 65 -100 153 -100c49 0 105 11 159 40v-127c-58 -23 -124 -33 -191 -33c-89 0 -165 18 -216 84c-53 -72 -137 -84 -214 -84c-156 0 -277 93 -277 272z
M213 260c0 -75 34 -152 109 -152s109 77 109 152c0 76 -34 153 -109 153s-109 -77 -109 -153zM611 310h200c0 60 -28 109 -100 109c-65 0 -96 -49 -100 -109z" />
    <glyph glyph-name="germandbls" unicode="&#xdf;" horiz-adv-x="667" 
d="M56 0v494c0 225 157 268 284 268c129 0 261 -48 261 -206c0 -92 -42 -140 -125 -169v-2c109 -17 152 -81 152 -174c0 -172 -133 -217 -256 -217c-38 0 -66 3 -89 6l5 131c20 -3 42 -5 65 -5c51 0 95 24 95 103c0 64 -40 98 -91 98c-17 0 -33 0 -49 -2v128h25
c50 0 88 39 88 95c0 62 -32 94 -86 94c-76 0 -99 -66 -99 -135v-507h-180z" />
    <glyph glyph-name="onesuperior" unicode="&#xb9;" horiz-adv-x="398" 
d="M163 282v288l-79 -48l-54 87l152 93h113v-420h-132z" />
    <glyph glyph-name="logicalnot" unicode="&#xac;" horiz-adv-x="600" 
d="M47 305v126h506v-323h-126v197h-380z" />
    <glyph glyph-name="mu" unicode="&#xb5;" horiz-adv-x="667" 
d="M611 521v-521h-164v96h-2c-36 -75 -108 -108 -190 -108h-17v-198h-182v731h180v-252c0 -98 34 -131 83 -131c74 0 112 51 112 163v220h180z" />
    <glyph glyph-name="trademark" unicode="&#x2122;" horiz-adv-x="1000" 
d="M155 282v326h-118v90h344v-90h-118v-326h-108zM477 282v416h154l89 -242l89 242h154v-416h-108v272h-2l-89 -272h-88l-89 272h-2v-272h-108z" />
    <glyph glyph-name="Eth" unicode="&#xd0;" horiz-adv-x="778" 
d="M251 560v-146h167v-102h-167v-174h72c139 0 217 72 217 211s-81 211 -217 211h-72zM65 0v312h-67v102h67v284h254c243 0 413 -76 413 -346c0 -261 -175 -352 -413 -352h-254z" />
    <glyph glyph-name="onehalf" unicode="&#xbd;" horiz-adv-x="916" 
d="M201 -22l387 742h109l-387 -742h-109zM155 282v288l-79 -48l-54 87l152 93h113v-420h-132zM556 0v90c85 58 194 144 194 198c0 29 -28 44 -61 44c-37 0 -81 -8 -116 -24l-5 96c48 15 101 24 167 24c83 0 159 -42 159 -123c0 -77 -70 -137 -140 -199l-18 -16h150v-90h-330
z" />
    <glyph glyph-name="plusminus" unicode="&#xb1;" horiz-adv-x="600" 
d="M47 268v126h190v112h126v-112h190v-126h-190v-112h-126v112h-190zM47 0v126h506v-126h-506z" />
    <glyph glyph-name="Thorn" unicode="&#xde;" 
d="M55 0v698h186v-87h36c213 0 313 -61 313 -229c0 -153 -103 -225 -277 -225h-72v-157h-186zM241 479v-190h48c64 0 115 23 115 96c0 71 -51 94 -115 94h-48z" />
    <glyph glyph-name="onequarter" unicode="&#xbc;" horiz-adv-x="916" 
d="M714 0v71h-210v101l179 248h151v-259h60v-90h-60v-71h-120zM714 161v172h-2l-121 -172h123zM209 -22l387 742h109l-387 -742h-109zM163 284v288l-79 -48l-54 87l152 93h113v-420h-132z" />
    <glyph glyph-name="divide" unicode="&#xf7;" horiz-adv-x="600" 
d="M47 190v126h506v-126h-506zM206 461c0 51 42 93 93 93s93 -42 93 -93s-42 -93 -93 -93s-93 42 -93 93zM206 45c0 51 42 93 93 93s93 -42 93 -93s-42 -93 -93 -93s-93 42 -93 93z" />
    <glyph glyph-name="brokenbar" unicode="&#xa6;" horiz-adv-x="222" 
d="M48 675h126v-350h-126v350zM48 175h126v-350h-126v350z" />
    <glyph glyph-name="degree" unicode="&#xb0;" horiz-adv-x="400" 
d="M53 563c0 81 66 147 147 147s147 -66 147 -147s-66 -147 -147 -147s-147 66 -147 147zM129 563c0 -39 32 -71 71 -71s71 32 71 71s-32 71 -71 71s-71 -32 -71 -71z" />
    <glyph glyph-name="thorn" unicode="&#xfe;" horiz-adv-x="668" 
d="M52 -210v960h181v-296h2c46 58 107 79 179 79c144 0 223 -137 223 -263c0 -154 -83 -282 -238 -282c-63 0 -131 23 -165 85h-2v-283h-180zM451 266c0 69 -39 129 -109 129c-66 0 -110 -58 -110 -136c0 -76 50 -133 110 -133c68 0 109 57 109 140z" />
    <glyph glyph-name="threequarters" unicode="&#xbe;" horiz-adv-x="916" 
d="M714 0v71h-210v101l179 248h151v-259h60v-90h-60v-71h-120zM714 161v172h-2l-121 -172h123zM209 -22l387 742h109l-387 -742h-109zM49 594l-6 98c42 12 82 18 140 18c86 0 180 -24 180 -116c0 -48 -33 -79 -85 -92v-2c56 -9 92 -43 92 -95c0 -104 -108 -131 -200 -131
c-59 0 -108 3 -142 14l6 104c30 -15 71 -22 110 -22c53 0 88 15 88 41c0 30 -37 38 -79 38c-20 0 -37 -1 -51 -2v89c14 -3 34 -3 55 -3c44 0 68 18 68 44c0 29 -44 37 -75 37c-36 0 -75 -9 -101 -20z" />
    <glyph glyph-name="twosuperior" unicode="&#xb2;" horiz-adv-x="398" 
d="M30 282v90c85 58 194 144 194 198c0 29 -28 44 -61 44c-37 0 -81 -8 -116 -24l-5 96c48 15 101 24 167 24c83 0 159 -42 159 -123c0 -77 -70 -137 -140 -199l-18 -16h150v-90h-330z" />
    <glyph glyph-name="registered" unicode="&#xae;" horiz-adv-x="800" 
d="M400 -12c-199 0 -361 162 -361 361s162 361 361 361s361 -162 361 -361s-162 -361 -361 -361zM400 90c136 0 247 111 247 259s-111 259 -247 259s-247 -111 -247 -259s111 -259 247 -259zM257 154v393h160c98 0 151 -27 151 -115c0 -74 -47 -105 -110 -108l94 -170h-96
l-86 164h-17v-164h-96zM353 471v-77h58c36 0 61 11 61 43c0 30 -39 34 -69 34h-50z" />
    <glyph glyph-name="minus" unicode="&#x2212;" horiz-adv-x="600" 
d="M47 190v126h506v-126h-506z" />
    <glyph glyph-name="eth" unicode="&#xf0;" horiz-adv-x="668" 
d="M217 249c0 -66 31 -135 113 -135c87 0 121 69 121 136c0 66 -34 131 -121 131c-82 0 -113 -65 -113 -132zM81 594l107 49c-31 13 -62 24 -89 34l104 109c55 -19 107 -41 155 -66l146 66l62 -64l-120 -54c115 -81 191 -194 191 -366c0 -193 -112 -314 -311 -314
c-185 0 -295 84 -295 261c0 140 102 258 244 258c64 0 134 -20 160 -81l2 2c-23 73 -83 126 -152 167l-144 -66z" />
    <glyph glyph-name="multiply" unicode="&#xd7;" horiz-adv-x="600" 
d="M214 253l-152 152l86 86l152 -152l152 152l86 -86l-153 -152l153 -152l-86 -86l-152 153l-152 -153l-86 86z" />
    <glyph glyph-name="threesuperior" unicode="&#xb3;" horiz-adv-x="398" 
d="M49 594l-6 98c42 12 82 18 140 18c86 0 180 -24 180 -116c0 -48 -33 -79 -85 -92v-2c56 -9 92 -43 92 -95c0 -104 -108 -131 -200 -131c-59 0 -108 3 -142 14l6 104c30 -15 71 -22 110 -22c53 0 88 15 88 41c0 30 -37 38 -79 38c-20 0 -37 -1 -51 -2v89
c14 -3 34 -3 55 -3c44 0 68 18 68 44c0 29 -44 37 -75 37c-36 0 -75 -9 -101 -20z" />
    <glyph glyph-name="copyright" unicode="&#xa9;" horiz-adv-x="800" 
d="M477 292h96c-2 -94 -64 -151 -168 -151c-121 0 -194 89 -194 208c0 118 73 207 194 207c104 0 166 -57 168 -151h-96c-11 36 -27 55 -72 55c-50 0 -80 -44 -80 -111c0 -68 30 -112 80 -112c45 0 61 19 72 55zM39 349c0 199 162 361 361 361s361 -162 361 -361
s-162 -361 -361 -361s-361 162 -361 361zM153 349c0 -148 111 -259 247 -259s247 111 247 259s-111 259 -247 259s-247 -111 -247 -259z" />
    <glyph glyph-name="Aacute" unicode="&#xc1;" horiz-adv-x="778" 
d="M8 0l265 698h228l269 -698h-204l-52 149h-262l-55 -149h-189zM470 281l-83 273h-2l-90 -273h175zM308 735l68 144h187l-129 -144h-126z" />
    <glyph glyph-name="Acircumflex" unicode="&#xc2;" horiz-adv-x="778" 
d="M8 0l265 698h228l269 -698h-204l-52 149h-262l-55 -149h-189zM470 281l-83 273h-2l-90 -273h175zM197 735l113 144h162l109 -144h-125l-65 78l-69 -78h-125z" />
    <glyph glyph-name="Adieresis" unicode="&#xc4;" horiz-adv-x="778" 
d="M8 0l265 698h228l269 -698h-204l-52 149h-262l-55 -149h-189zM470 281l-83 273h-2l-90 -273h175zM432 735v144h144v-144h-144zM204 735v144h144v-144h-144z" />
    <glyph glyph-name="Agrave" unicode="&#xc0;" horiz-adv-x="778" 
d="M8 0l265 698h228l269 -698h-204l-52 149h-262l-55 -149h-189zM470 281l-83 273h-2l-90 -273h175zM469 735h-126l-129 144h187z" />
    <glyph glyph-name="Aring" unicode="&#xc5;" horiz-adv-x="778" 
d="M8 0l265 698h228l269 -698h-204l-52 149h-262l-55 -149h-189zM470 281l-83 273h-2l-90 -273h175zM278 842c0 61 51 112 112 112c62 0 112 -51 112 -112s-50 -112 -112 -112c-61 0 -112 51 -112 112zM342 842c0 -27 21 -48 48 -48s48 21 48 48s-21 48 -48 48
s-48 -21 -48 -48z" />
    <glyph glyph-name="Atilde" unicode="&#xc3;" horiz-adv-x="778" 
d="M8 0l265 698h228l269 -698h-204l-52 149h-262l-55 -149h-189zM470 281l-83 273h-2l-90 -273h175zM514 879h72c-9 -76 -47 -141 -129 -141c-52 0 -109 36 -142 36c-31 0 -43 -14 -49 -39h-72c8 70 47 141 127 141c53 0 107 -36 143 -36c27 0 45 12 50 39z" />
    <glyph glyph-name="Ccedilla" unicode="&#xc7;" horiz-adv-x="667" 
d="M638 162l9 -146c-53 -13 -112 -28 -207 -28h-11l-22 -53c14 3 26 5 48 5c38 0 78 -23 78 -87c0 -56 -61 -75 -132 -75c-54 0 -90 9 -125 23l17 46c29 -13 58 -21 87 -21c32 0 51 9 51 31c0 28 -18 35 -38 35c-9 0 -18 -2 -28 -6l-39 24l39 84c-165 23 -326 124 -326 352
c0 243 170 364 400 364c71 0 140 -16 207 -36l-15 -151c-60 33 -118 49 -182 49c-132 0 -218 -96 -218 -226c0 -137 97 -220 233 -220c61 0 123 16 174 36z" />
    <glyph glyph-name="Eacute" unicode="&#xc9;" 
d="M60 0v698h492v-132h-306v-144h289v-132h-289v-158h317v-132h-503zM224 735l68 144h187l-129 -144h-126z" />
    <glyph glyph-name="Ecircumflex" unicode="&#xca;" 
d="M60 0v698h492v-132h-306v-144h289v-132h-289v-158h317v-132h-503zM113 735l113 144h162l109 -144h-125l-65 78l-69 -78h-125z" />
    <glyph glyph-name="Edieresis" unicode="&#xcb;" 
d="M60 0v698h492v-132h-306v-144h289v-132h-289v-158h317v-132h-503zM348 735v144h144v-144h-144zM120 735v144h144v-144h-144z" />
    <glyph glyph-name="Egrave" unicode="&#xc8;" 
d="M60 0v698h492v-132h-306v-144h289v-132h-289v-158h317v-132h-503zM385 735h-126l-129 144h187z" />
    <glyph glyph-name="Iacute" unicode="&#xcd;" horiz-adv-x="334" 
d="M74 0v698h186v-698h-186zM85 735l68 144h187l-129 -144h-126z" />
    <glyph glyph-name="Icircumflex" unicode="&#xce;" horiz-adv-x="334" 
d="M74 0v698h186v-698h-186zM-25 735l113 144h162l109 -144h-125l-65 78l-69 -78h-125z" />
    <glyph glyph-name="Idieresis" unicode="&#xcf;" horiz-adv-x="334" 
d="M74 0v698h186v-698h-186zM210 735v144h144v-144h-144zM-18 735v144h144v-144h-144z" />
    <glyph glyph-name="Igrave" unicode="&#xcc;" horiz-adv-x="334" 
d="M74 0v698h186v-698h-186zM247 735h-126l-129 144h187z" />
    <glyph glyph-name="Ntilde" unicode="&#xd1;" horiz-adv-x="778" 
d="M68 0v698h237l236 -474h2l-3 474h170v-698h-231l-244 477h-2l6 -477h-171zM514 879h72c-9 -76 -47 -141 -129 -141c-52 0 -109 36 -142 36c-31 0 -43 -14 -49 -39h-72c8 70 47 141 127 141c53 0 107 -36 143 -36c27 0 45 12 50 39z" />
    <glyph glyph-name="Oacute" unicode="&#xd3;" horiz-adv-x="778" 
d="M39 349c0 224 120 361 350 361s350 -137 350 -361c0 -222 -122 -361 -350 -361s-350 139 -350 361zM231 349c0 -115 45 -223 158 -223s158 108 158 223c0 121 -45 223 -158 223s-158 -102 -158 -223zM308 735l68 144h187l-129 -144h-126z" />
    <glyph glyph-name="Ocircumflex" unicode="&#xd4;" horiz-adv-x="778" 
d="M39 349c0 224 120 361 350 361s350 -137 350 -361c0 -222 -122 -361 -350 -361s-350 139 -350 361zM231 349c0 -115 45 -223 158 -223s158 108 158 223c0 121 -45 223 -158 223s-158 -102 -158 -223zM197 735l113 144h162l109 -144h-125l-65 78l-69 -78h-125z" />
    <glyph glyph-name="Odieresis" unicode="&#xd6;" horiz-adv-x="778" 
d="M39 349c0 224 120 361 350 361s350 -137 350 -361c0 -222 -122 -361 -350 -361s-350 139 -350 361zM231 349c0 -115 45 -223 158 -223s158 108 158 223c0 121 -45 223 -158 223s-158 -102 -158 -223zM432 735v144h144v-144h-144zM204 735v144h144v-144h-144z" />
    <glyph glyph-name="Ograve" unicode="&#xd2;" horiz-adv-x="778" 
d="M39 349c0 224 120 361 350 361s350 -137 350 -361c0 -222 -122 -361 -350 -361s-350 139 -350 361zM231 349c0 -115 45 -223 158 -223s158 108 158 223c0 121 -45 223 -158 223s-158 -102 -158 -223zM469 735h-126l-129 144h187z" />
    <glyph glyph-name="Otilde" unicode="&#xd5;" horiz-adv-x="778" 
d="M39 349c0 224 120 361 350 361s350 -137 350 -361c0 -222 -122 -361 -350 -361s-350 139 -350 361zM231 349c0 -115 45 -223 158 -223s158 108 158 223c0 121 -45 223 -158 223s-158 -102 -158 -223zM514 879h72c-9 -76 -47 -141 -129 -141c-52 0 -109 36 -142 36
c-31 0 -43 -14 -49 -39h-72c8 70 47 141 127 141c53 0 107 -36 143 -36c27 0 45 12 50 39z" />
    <glyph glyph-name="Scaron" unicode="&#x160;" 
d="M51 18l16 154c48 -26 115 -46 192 -46c59 0 115 12 115 68c0 130 -330 48 -330 302c0 168 164 214 304 214c67 0 133 -10 180 -26l-12 -144c-48 22 -102 32 -155 32c-47 0 -125 -4 -125 -65c0 -113 330 -37 330 -289c0 -181 -152 -230 -307 -230c-65 0 -146 10 -208 30z
M498 879l-113 -144h-162l-109 144h111l79 -78l83 78h111z" />
    <glyph glyph-name="Uacute" unicode="&#xda;" horiz-adv-x="722" 
d="M667 698v-433c0 -191 -124 -277 -306 -277s-306 86 -306 277v433h186v-402c0 -92 25 -170 120 -170s120 78 120 170v402h186zM280 735l68 144h187l-129 -144h-126z" />
    <glyph glyph-name="Ucircumflex" unicode="&#xdb;" horiz-adv-x="722" 
d="M667 698v-433c0 -191 -124 -277 -306 -277s-306 86 -306 277v433h186v-402c0 -92 25 -170 120 -170s120 78 120 170v402h186zM169 735l113 144h162l109 -144h-125l-65 78l-69 -78h-125z" />
    <glyph glyph-name="Udieresis" unicode="&#xdc;" horiz-adv-x="722" 
d="M667 698v-433c0 -191 -124 -277 -306 -277s-306 86 -306 277v433h186v-402c0 -92 25 -170 120 -170s120 78 120 170v402h186zM404 735v144h144v-144h-144zM176 735v144h144v-144h-144z" />
    <glyph glyph-name="Ugrave" unicode="&#xd9;" horiz-adv-x="722" 
d="M667 698v-433c0 -191 -124 -277 -306 -277s-306 86 -306 277v433h186v-402c0 -92 25 -170 120 -170s120 78 120 170v402h186zM441 735h-126l-129 144h187z" />
    <glyph glyph-name="Yacute" unicode="&#xdd;" horiz-adv-x="722" 
d="M269 0v263l-258 435h214l137 -280l135 280h214l-256 -435v-263h-186zM294 735l68 144h187l-129 -144h-126z" />
    <glyph glyph-name="Ydieresis" unicode="&#x178;" horiz-adv-x="722" 
d="M269 0v263l-258 435h214l137 -280l135 280h214l-256 -435v-263h-186zM404 735v144h144v-144h-144zM176 735v144h144v-144h-144z" />
    <glyph glyph-name="Zcaron" unicode="&#x17d;" 
d="M570 698v-148l-342 -412h344v-138h-546v148l332 412h-323v138h535zM498 879l-113 -144h-162l-109 144h111l79 -78l83 78h111z" />
    <glyph glyph-name="aacute" unicode="&#xe1;" 
d="M562 0h-165c-1 28 -4 55 -4 82h-2c-41 -65 -91 -94 -165 -94c-103 0 -195 51 -195 164c0 159 173 178 269 178c29 0 61 -3 84 -7c-1 71 -54 90 -119 90c-58 0 -116 -11 -166 -39l-3 122c64 26 131 37 208 37c133 0 248 -57 248 -216v-194c0 -41 2 -82 10 -123zM199 165
c0 -36 32 -57 74 -57c68 0 111 62 111 123c-23 1 -49 3 -76 3c-61 0 -109 -19 -109 -69zM238 585l68 144h187l-129 -144h-126z" />
    <glyph glyph-name="acircumflex" unicode="&#xe2;" 
d="M562 0h-165c-1 28 -4 55 -4 82h-2c-41 -65 -91 -94 -165 -94c-103 0 -195 51 -195 164c0 159 173 178 269 178c29 0 61 -3 84 -7c-1 71 -54 90 -119 90c-58 0 -116 -11 -166 -39l-3 122c64 26 131 37 208 37c133 0 248 -57 248 -216v-194c0 -41 2 -82 10 -123zM199 165
c0 -36 32 -57 74 -57c68 0 111 62 111 123c-23 1 -49 3 -76 3c-61 0 -109 -19 -109 -69zM113 585l113 144h162l109 -144h-125l-65 78l-69 -78h-125z" />
    <glyph glyph-name="adieresis" unicode="&#xe4;" 
d="M562 0h-165c-1 28 -4 55 -4 82h-2c-41 -65 -91 -94 -165 -94c-103 0 -195 51 -195 164c0 159 173 178 269 178c29 0 61 -3 84 -7c-1 71 -54 90 -119 90c-58 0 -116 -11 -166 -39l-3 122c64 26 131 37 208 37c133 0 248 -57 248 -216v-194c0 -41 2 -82 10 -123zM199 165
c0 -36 32 -57 74 -57c68 0 111 62 111 123c-23 1 -49 3 -76 3c-61 0 -109 -19 -109 -69zM348 585v144h144v-144h-144zM120 585v144h144v-144h-144z" />
    <glyph glyph-name="agrave" unicode="&#xe0;" 
d="M562 0h-165c-1 28 -4 55 -4 82h-2c-41 -65 -91 -94 -165 -94c-103 0 -195 51 -195 164c0 159 173 178 269 178c29 0 61 -3 84 -7c-1 71 -54 90 -119 90c-58 0 -116 -11 -166 -39l-3 122c64 26 131 37 208 37c133 0 248 -57 248 -216v-194c0 -41 2 -82 10 -123zM199 165
c0 -36 32 -57 74 -57c68 0 111 62 111 123c-23 1 -49 3 -76 3c-61 0 -109 -19 -109 -69zM385 585h-126l-129 144h187z" />
    <glyph glyph-name="aring" unicode="&#xe5;" 
d="M562 0h-165c-1 28 -4 55 -4 82h-2c-41 -65 -91 -94 -165 -94c-103 0 -195 51 -195 164c0 159 173 178 269 178c29 0 61 -3 84 -7c-1 71 -54 90 -119 90c-58 0 -116 -11 -166 -39l-3 122c64 26 131 37 208 37c133 0 248 -57 248 -216v-194c0 -41 2 -82 10 -123zM199 165
c0 -36 32 -57 74 -57c68 0 111 62 111 123c-23 1 -49 3 -76 3c-61 0 -109 -19 -109 -69zM194 678c0 61 51 112 112 112c62 0 112 -51 112 -112s-50 -112 -112 -112c-61 0 -112 51 -112 112zM258 678c0 -27 21 -48 48 -48s48 21 48 48s-21 48 -48 48s-48 -21 -48 -48z" />
    <glyph glyph-name="atilde" unicode="&#xe3;" 
d="M562 0h-165c-1 28 -4 55 -4 82h-2c-41 -65 -91 -94 -165 -94c-103 0 -195 51 -195 164c0 159 173 178 269 178c29 0 61 -3 84 -7c-1 71 -54 90 -119 90c-58 0 -116 -11 -166 -39l-3 122c64 26 131 37 208 37c133 0 248 -57 248 -216v-194c0 -41 2 -82 10 -123zM199 165
c0 -36 32 -57 74 -57c68 0 111 62 111 123c-23 1 -49 3 -76 3c-61 0 -109 -19 -109 -69zM430 729h72c-9 -76 -47 -141 -129 -141c-52 0 -109 36 -142 36c-31 0 -43 -14 -49 -39h-72c8 70 47 141 127 141c53 0 107 -36 143 -36c27 0 45 12 50 39z" />
    <glyph glyph-name="ccedilla" unicode="&#xe7;" horiz-adv-x="500" 
d="M477 504l-13 -132c-33 20 -66 29 -109 29c-78 0 -138 -54 -138 -144c0 -83 70 -137 148 -137c41 0 82 9 112 25l4 -134c-45 -15 -99 -23 -147 -23c-5 0 -11 0 -15 1l-22 -54c14 3 26 5 48 5c38 0 78 -23 78 -87c0 -56 -61 -75 -132 -75c-54 0 -90 9 -125 23l17 46
c29 -13 58 -21 87 -21c32 0 51 9 51 31c0 28 -18 35 -38 35c-9 0 -18 -2 -28 -6l-39 24l40 87c-132 25 -225 118 -225 263c0 173 131 273 303 273c54 0 102 -9 143 -29z" />
    <glyph glyph-name="eacute" unicode="&#xe9;" 
d="M573 208h-360c10 -72 65 -100 153 -100c49 0 105 11 159 40v-127c-58 -23 -124 -33 -191 -33c-172 0 -303 101 -303 273s117 272 279 272c193 0 263 -137 263 -292v-33zM211 310h200c0 60 -28 109 -100 109c-65 0 -96 -49 -100 -109zM238 585l68 144h187l-129 -144h-126z
" />
    <glyph glyph-name="ecircumflex" unicode="&#xea;" 
d="M573 208h-360c10 -72 65 -100 153 -100c49 0 105 11 159 40v-127c-58 -23 -124 -33 -191 -33c-172 0 -303 101 -303 273s117 272 279 272c193 0 263 -137 263 -292v-33zM211 310h200c0 60 -28 109 -100 109c-65 0 -96 -49 -100 -109zM113 585l113 144h162l109 -144h-125
l-65 78l-69 -78h-125z" />
    <glyph glyph-name="edieresis" unicode="&#xeb;" 
d="M573 208h-360c10 -72 65 -100 153 -100c49 0 105 11 159 40v-127c-58 -23 -124 -33 -191 -33c-172 0 -303 101 -303 273s117 272 279 272c193 0 263 -137 263 -292v-33zM211 310h200c0 60 -28 109 -100 109c-65 0 -96 -49 -100 -109zM348 585v144h144v-144h-144zM120 585
v144h144v-144h-144z" />
    <glyph glyph-name="egrave" unicode="&#xe8;" 
d="M573 208h-360c10 -72 65 -100 153 -100c49 0 105 11 159 40v-127c-58 -23 -124 -33 -191 -33c-172 0 -303 101 -303 273s117 272 279 272c193 0 263 -137 263 -292v-33zM211 310h200c0 60 -28 109 -100 109c-65 0 -96 -49 -100 -109zM385 585h-126l-129 144h187z" />
    <glyph glyph-name="iacute" unicode="&#xed;" horiz-adv-x="334" 
d="M77 0v521h180v-521h-180zM100 585l68 144h187l-129 -144h-126z" />
    <glyph glyph-name="icircumflex" unicode="&#xee;" horiz-adv-x="334" 
d="M77 0v521h180v-521h-180zM-25 585l113 144h162l109 -144h-125l-65 78l-69 -78h-125z" />
    <glyph glyph-name="idieresis" unicode="&#xef;" horiz-adv-x="334" 
d="M77 0v521h180v-521h-180zM210 585v144h144v-144h-144zM-18 585v144h144v-144h-144z" />
    <glyph glyph-name="igrave" unicode="&#xec;" horiz-adv-x="334" 
d="M77 0v521h180v-521h-180zM247 585h-126l-129 144h187z" />
    <glyph glyph-name="ntilde" unicode="&#xf1;" horiz-adv-x="667" 
d="M56 0v521h164v-96h2c36 75 108 108 190 108c142 0 199 -100 199 -208v-325h-180v252c0 98 -34 131 -83 131c-74 0 -112 -51 -112 -163v-220h-180zM458 729h72c-9 -76 -47 -141 -129 -141c-52 0 -109 36 -142 36c-31 0 -43 -14 -49 -39h-72c8 70 47 141 127 141
c53 0 107 -36 143 -36c27 0 45 12 50 39z" />
    <glyph glyph-name="oacute" unicode="&#xf3;" horiz-adv-x="668" 
d="M334 -12c-172 0 -303 100 -303 272c0 173 131 273 303 273s303 -100 303 -273c0 -172 -131 -272 -303 -272zM334 114c83 0 117 69 117 146c0 78 -34 147 -117 147s-117 -69 -117 -147c0 -77 34 -146 117 -146zM267 585l68 144h187l-129 -144h-126z" />
    <glyph glyph-name="ocircumflex" unicode="&#xf4;" horiz-adv-x="668" 
d="M334 -12c-172 0 -303 100 -303 272c0 173 131 273 303 273s303 -100 303 -273c0 -172 -131 -272 -303 -272zM334 114c83 0 117 69 117 146c0 78 -34 147 -117 147s-117 -69 -117 -147c0 -77 34 -146 117 -146zM142 585l113 144h162l109 -144h-125l-65 78l-69 -78h-125z
" />
    <glyph glyph-name="odieresis" unicode="&#xf6;" horiz-adv-x="668" 
d="M334 -12c-172 0 -303 100 -303 272c0 173 131 273 303 273s303 -100 303 -273c0 -172 -131 -272 -303 -272zM334 114c83 0 117 69 117 146c0 78 -34 147 -117 147s-117 -69 -117 -147c0 -77 34 -146 117 -146zM377 585v144h144v-144h-144zM149 585v144h144v-144h-144z
" />
    <glyph glyph-name="ograve" unicode="&#xf2;" horiz-adv-x="668" 
d="M334 -12c-172 0 -303 100 -303 272c0 173 131 273 303 273s303 -100 303 -273c0 -172 -131 -272 -303 -272zM334 114c83 0 117 69 117 146c0 78 -34 147 -117 147s-117 -69 -117 -147c0 -77 34 -146 117 -146zM414 585h-126l-129 144h187z" />
    <glyph glyph-name="otilde" unicode="&#xf5;" horiz-adv-x="668" 
d="M334 -12c-172 0 -303 100 -303 272c0 173 131 273 303 273s303 -100 303 -273c0 -172 -131 -272 -303 -272zM334 114c83 0 117 69 117 146c0 78 -34 147 -117 147s-117 -69 -117 -147c0 -77 34 -146 117 -146zM459 729h72c-9 -76 -47 -141 -129 -141
c-52 0 -109 36 -142 36c-31 0 -43 -14 -49 -39h-72c8 70 47 141 127 141c53 0 107 -36 143 -36c27 0 45 12 50 39z" />
    <glyph glyph-name="scaron" unicode="&#x161;" horiz-adv-x="500" 
d="M36 13l10 131c42 -18 104 -36 169 -36c37 0 73 6 73 42c0 88 -256 26 -256 214c0 120 118 169 222 169c62 0 125 -7 183 -30l-14 -125c-38 23 -95 35 -140 35c-39 0 -83 -7 -83 -36c0 -81 268 -17 268 -215c0 -139 -125 -174 -243 -174c-81 0 -136 8 -189 25zM443 729
l-113 -144h-162l-109 144h111l79 -78l83 78h111z" />
    <glyph glyph-name="uacute" unicode="&#xfa;" horiz-adv-x="667" 
d="M611 521v-521h-164v96h-2c-36 -75 -108 -108 -190 -108c-142 0 -199 100 -199 208v325h180v-252c0 -98 34 -131 83 -131c74 0 112 51 112 163v220h180zM266 585l68 144h187l-129 -144h-126z" />
    <glyph glyph-name="ucircumflex" unicode="&#xfb;" horiz-adv-x="667" 
d="M611 521v-521h-164v96h-2c-36 -75 -108 -108 -190 -108c-142 0 -199 100 -199 208v325h180v-252c0 -98 34 -131 83 -131c74 0 112 51 112 163v220h180zM141 585l113 144h162l109 -144h-125l-65 78l-69 -78h-125z" />
    <glyph glyph-name="udieresis" unicode="&#xfc;" horiz-adv-x="667" 
d="M611 521v-521h-164v96h-2c-36 -75 -108 -108 -190 -108c-142 0 -199 100 -199 208v325h180v-252c0 -98 34 -131 83 -131c74 0 112 51 112 163v220h180zM376 585v144h144v-144h-144zM148 585v144h144v-144h-144z" />
    <glyph glyph-name="ugrave" unicode="&#xf9;" horiz-adv-x="667" 
d="M611 521v-521h-164v96h-2c-36 -75 -108 -108 -190 -108c-142 0 -199 100 -199 208v325h180v-252c0 -98 34 -131 83 -131c74 0 112 51 112 163v220h180zM413 585h-126l-129 144h187z" />
    <glyph glyph-name="yacute" unicode="&#xfd;" 
d="M45 -210l12 137c24 -8 46 -11 71 -11c44 0 78 26 91 72l-211 533h194l112 -340h2l107 340h180l-191 -485c-51 -131 -90 -258 -255 -258c-38 0 -75 4 -112 12zM238 585l68 144h187l-129 -144h-126z" />
    <glyph glyph-name="ydieresis" unicode="&#xff;" 
d="M45 -210l12 137c24 -8 46 -11 71 -11c44 0 78 26 91 72l-211 533h194l112 -340h2l107 340h180l-191 -485c-51 -131 -90 -258 -255 -258c-38 0 -75 4 -112 12zM348 585v144h144v-144h-144zM120 585v144h144v-144h-144z" />
    <glyph glyph-name="zcaron" unicode="&#x17e;" horiz-adv-x="500" 
d="M26 0v144l238 245h-233v132h439v-144l-238 -245h242v-132h-448zM443 729l-113 -144h-162l-109 144h111l79 -78l83 78h111z" />
    <glyph glyph-name="Delta" unicode="&#x2206;" horiz-adv-x="715" 
d="M26 0v81l243 629h181l237 -627v-83h-661zM184 117h337l-110 279c-16 51 -45 128 -56 171h-4c-9 -33 -36 -104 -52 -156z" />
    <glyph glyph-name="Omega" unicode="&#x2126;" horiz-adv-x="778" 
d="M185 117v3c-64 52 -132 143 -132 269c0 171 134 318 338 318c214 0 331 -164 331 -313c0 -127 -65 -219 -134 -274v-3h148v-117h-299v88c70 42 132 123 132 276c0 120 -65 224 -178 224c-109 0 -184 -95 -184 -230c0 -137 60 -232 132 -270v-88h-300v117h146z" />
    <glyph glyph-name="uni03BC" unicode="&#x3bc;" horiz-adv-x="667" 
d="M611 521v-521h-164v96h-2c-36 -75 -108 -108 -190 -108h-17v-198h-182v731h180v-252c0 -98 34 -131 83 -131c74 0 112 51 112 163v220h180z" />
    <glyph glyph-name="pi" unicode="&#x3c0;" horiz-adv-x="659" 
d="M634 402h-73v-245c0 -74 6 -124 13 -157h-147c-13 21 -19 78 -19 148v254h-136c-5 -109 -30 -306 -66 -402h-147c34 112 62 296 63 402c-46 0 -79 -3 -104 -10l-16 96c27 21 85 36 183 36h461z" />
    <glyph glyph-name="Euro" unicode="&#x20ac;" horiz-adv-x="612" 
d="M630 682l-33 -128c-32 14 -75 20 -110 20c-84 0 -149 -46 -179 -121h264l-17 -69h-267c-3 -23 -3 -47 0 -70h250l-18 -69h-212c31 -73 97 -118 178 -118c35 0 79 7 111 20l6 -140c-46 -14 -99 -19 -147 -19c-169 0 -310 87 -350 257h-104l17 69h77c-2 23 -2 47 0 70h-94
l17 69h88c41 159 182 257 344 257c62 0 121 -9 179 -28z" />
    <glyph glyph-name="afii61289" unicode="&#x2113;" horiz-adv-x="570" 
d="M488 201l61 -63c-60 -109 -149 -147 -236 -147c-122 0 -180 68 -196 156c-1 3 -1 6 -1 9c-18 -12 -34 -25 -53 -38l-38 77c30 24 61 45 89 68v235c0 185 85 267 199 267c111 0 160 -84 160 -183c0 -119 -81 -226 -214 -343v-36c3 -59 41 -93 90 -93c57 0 107 45 139 91z
M259 514v-145c68 73 115 153 115 217c0 48 -15 77 -53 77c-30 0 -62 -32 -62 -149z" />
    <glyph glyph-name="estimated" unicode="&#x212e;" horiz-adv-x="870" 
d="M836 339h-650c-3 0 -5 -1 -5 -4v-197c0 -8 3 -16 9 -22c63 -65 149 -107 245 -107c104 0 196 47 259 119h57c-71 -84 -188 -139 -317 -139c-221 0 -400 161 -400 360s179 361 400 361c222 0 402 -162 402 -361v-10zM688 365v197c0 9 -3 17 -9 24
c-63 62 -149 102 -244 102s-181 -42 -244 -106c-7 -6 -10 -15 -10 -24v-193c0 -3 2 -7 5 -7h498c3 0 4 4 4 7z" />
    <glyph glyph-name="partialdiff" unicode="&#x2202;" horiz-adv-x="627" 
d="M108 620l-42 106c32 22 99 60 206 60c168 0 306 -138 306 -383s-120 -411 -311 -411c-158 0 -231 137 -231 239c0 157 100 262 234 262c89 0 143 -57 160 -83h1v29c0 118 -67 228 -179 228c-68 0 -117 -27 -144 -47zM282 111h1c75 0 123 101 133 184
c-8 29 -49 83 -113 83c-70 0 -118 -71 -118 -150c0 -65 40 -117 97 -117z" />
    <glyph glyph-name="product" unicode="&#x220f;" horiz-adv-x="780" 
d="M756 565h-110v-661h-148v661h-218v-661h-147v661h-110v130h733v-130z" />
    <glyph glyph-name="summation" unicode="&#x2211;" horiz-adv-x="606" 
d="M587 -96h-564v89l253 306l-243 296v100h535v-124h-331v-3l208 -248l-231 -281v-3h373v-132z" />
    <glyph glyph-name="uni2219" unicode="&#x2219;" horiz-adv-x="306" 
d="M60 272c0 51 42 93 93 93s93 -42 93 -93s-42 -93 -93 -93s-93 42 -93 93z" />
    <glyph glyph-name="radical" unicode="&#x221a;" horiz-adv-x="642" 
d="M658 834l-246 -975h-118l-160 430l-78 -31l-25 78l190 77l110 -313c8 -31 16 -62 23 -86l1 -1c5 23 10 58 18 94l180 727h105z" />
    <glyph glyph-name="infinity" unicode="&#x221e;" horiz-adv-x="807" 
d="M758 288v-1c0 -115 -83 -183 -169 -183c-58 0 -117 24 -185 116c-53 -66 -107 -116 -190 -116c-87 0 -166 71 -166 177c0 107 76 180 175 180c77 0 133 -43 186 -112c41 46 92 113 185 112c92 0 164 -68 164 -173zM223 182h2c56 0 99 51 136 96c-41 56 -75 107 -141 107
c-55 0 -92 -43 -92 -104c0 -54 41 -99 95 -99zM587 385h-2c-60 0 -105 -62 -137 -100c61 -78 94 -103 143 -103c56 0 87 55 87 99c0 60 -36 104 -91 104z" />
    <glyph glyph-name="integral" unicode="&#x222b;" horiz-adv-x="419" 
d="M400 851l-14 -97c-11 4 -24 8 -39 8c-21 0 -41 -8 -54 -26c-21 -28 -27 -83 -27 -164c0 -163 17 -289 17 -471c0 -91 -15 -157 -37 -197c-31 -58 -88 -80 -143 -80c-34 0 -69 8 -86 17l18 101c10 -5 27 -11 46 -11c18 0 36 6 47 20c19 24 29 64 29 150
c0 185 -17 313 -17 485c0 118 19 183 65 229c32 33 82 48 129 48c27 0 54 -7 66 -12z" />
    <glyph glyph-name="approxequal" unicode="&#x2248;" horiz-adv-x="585" 
d="M494 462l51 -50c-38 -65 -90 -106 -147 -106c-44 0 -72 13 -119 41c-29 18 -55 34 -90 34c-46 0 -73 -37 -101 -73l-52 50c32 58 93 105 159 105c50 0 83 -20 111 -37c39 -23 59 -37 91 -37c40 0 67 29 97 73zM494 265l51 -50c-37 -63 -89 -106 -148 -106
c-43 0 -73 15 -118 41c-31 19 -56 34 -89 34c-48 0 -74 -36 -102 -74l-52 51c32 58 93 105 159 105c50 0 83 -20 110 -36c32 -18 56 -38 91 -38c41 0 66 28 98 73z" />
    <glyph glyph-name="notequal" unicode="&#x2260;" horiz-adv-x="585" 
d="M433 521l-39 -88h141v-83h-174l-60 -135h234v-83h-267l-53 -118l-66 28l41 90h-140v83h173l59 135h-232v83h265l52 115z" />
    <glyph glyph-name="lessequal" unicode="&#x2264;" horiz-adv-x="585" 
d="M532 105l-478 226v90l478 227v-95l-393 -175v-2l393 -176v-95zM535 -17h-484v85h484v-85z" />
    <glyph glyph-name="greaterequal" unicode="&#x2265;" horiz-adv-x="585" 
d="M56 648l478 -227v-90l-478 -226v95l393 176v2l-393 175v95zM533 -17h-481v85h481v-85z" />
    <glyph glyph-name="lozenge" unicode="&#x25ca;" horiz-adv-x="642" 
d="M591 347l-215 -398h-116l-209 398l213 398h117zM461 344l-120 232c-7 17 -15 39 -19 55h-3c-5 -16 -12 -37 -20 -55l-119 -226l120 -236c8 -18 15 -40 18 -52h4c4 13 13 40 18 51z" />
    <glyph glyph-name="uni00A0" unicode="&#xa0;" horiz-adv-x="306" 
 />
    <glyph glyph-name="uni00AD" unicode="&#xad;" horiz-adv-x="333" 
d="M31 203v132h271v-132h-271z" />
    <glyph glyph-name="uni02C9" unicode="&#x2c9;" horiz-adv-x="333" 
d="M-21 623v84h375v-84h-375z" />
    <glyph glyph-name="uni03A9" unicode="&#x3a9;" horiz-adv-x="778" 
d="M185 117v3c-64 52 -132 143 -132 269c0 171 134 318 338 318c214 0 331 -164 331 -313c0 -127 -65 -219 -134 -274v-3h148v-117h-299v88c70 42 132 123 132 276c0 120 -65 224 -178 224c-109 0 -184 -95 -184 -230c0 -137 60 -232 132 -270v-88h-300v117h146z" />
    <glyph glyph-name="uni2215" unicode="&#x2215;" horiz-adv-x="167" 
d="M-164 -22l387 742h109l-387 -742h-109z" />
    </font>
</defs>
</svg>
