<svg width="20" height="21" viewBox="0 0 20 21" fill="none" xmlns="http://www.w3.org/2000/svg">
<g id="contract_FILL1_wght400_GRAD-25_opsz20 1">
<path id="Vector" d="M5.10415 18.2917C4.58331 18.2917 4.13713 18.1094 3.7656 17.7448C3.39408 17.3802 3.20831 16.9375 3.20831 16.4167V14.7917C3.20831 14.4078 3.34499 14.0792 3.61833 13.8059C3.89169 13.5325 4.2203 13.3958 4.60415 13.3958H4.99998V4.10417C4.99998 3.72031 5.13665 3.3917 5.41 3.11836C5.68335 2.84501 6.01195 2.70834 6.39581 2.70834H15.3958C15.7797 2.70834 16.1083 2.84501 16.3816 3.11836C16.655 3.3917 16.7916 3.72031 16.7916 4.10417V16.1667C16.7916 16.7569 16.5816 17.2587 16.1614 17.6719C15.7413 18.0851 15.2361 18.2917 14.6458 18.2917H5.10415ZM14.6414 16.8958C14.8527 16.8958 15.0312 16.826 15.1771 16.6862C15.3229 16.5464 15.3958 16.3733 15.3958 16.1667V4.10417H6.39581V13.3958H12.5208C12.9047 13.3958 13.2333 13.5325 13.5066 13.8059C13.78 14.0792 13.9166 14.4078 13.9166 14.7917V16.1667C13.9166 16.3733 13.9861 16.5464 14.125 16.6862C14.2639 16.826 14.4361 16.8958 14.6414 16.8958ZM8.1979 7.79167C8.00623 7.79167 7.84199 7.72369 7.70519 7.58773C7.56838 7.45176 7.49998 7.28857 7.49998 7.09815C7.49998 6.90772 7.56838 6.74306 7.70519 6.60417C7.84199 6.46528 8.00623 6.39584 8.1979 6.39584H13.5937C13.7854 6.39584 13.9496 6.46382 14.0864 6.59977C14.2232 6.73575 14.2916 6.89894 14.2916 7.08936C14.2916 7.27979 14.2232 7.44445 14.0864 7.58334C13.9496 7.72222 13.7854 7.79167 13.5937 7.79167H8.1979ZM8.1979 10.2917C8.00623 10.2917 7.84199 10.2237 7.70519 10.0877C7.56838 9.95176 7.49998 9.78857 7.49998 9.59815C7.49998 9.40772 7.56838 9.24306 7.70519 9.10417C7.84199 8.96528 8.00623 8.89584 8.1979 8.89584H13.5937C13.7854 8.89584 13.9496 8.96382 14.0864 9.09977C14.2232 9.23575 14.2916 9.39894 14.2916 9.58936C14.2916 9.77979 14.2232 9.94445 14.0864 10.0833C13.9496 10.2222 13.7854 10.2917 13.5937 10.2917H8.1979Z" fill="white"/>
</g>
</svg>
