<svg width="24" height="24" viewBox="0 0 24 24" fill="none" xmlns="http://www.w3.org/2000/svg">
<rect width="24" height="24" fill="#000E1A"/>
<path d="M6.4945 11C6.0815 11 5.72917 10.8507 5.4375 10.5521C5.14583 10.2535 5 9.90278 5 9.5V6.5C5 6.0875 5.14706 5.73438 5.44117 5.44063C5.73528 5.14688 6.08883 5 6.50183 5H9.5055C9.9185 5 10.2708 5.14688 10.5625 5.44063C10.8542 5.73438 11 6.0875 11 6.5V9.5C11 9.90278 10.8529 10.2535 10.5588 10.5521C10.2647 10.8507 9.91117 11 9.49817 11H6.4945ZM6.4945 19C6.0815 19 5.72917 18.8529 5.4375 18.5588C5.14583 18.2647 5 17.9112 5 17.4982V14.4945C5 14.0815 5.14706 13.7292 5.44117 13.4375C5.73528 13.1458 6.08883 13 6.50183 13H9.5055C9.9185 13 10.2708 13.1471 10.5625 13.4412C10.8542 13.7353 11 14.0888 11 14.5018V17.5055C11 17.9185 10.8529 18.2708 10.5588 18.5625C10.2647 18.8542 9.91117 19 9.49817 19H6.4945ZM14.5 11C14.0972 11 13.7465 10.8507 13.4479 10.5521C13.1493 10.2535 13 9.90278 13 9.5V6.5C13 6.0875 13.1493 5.73438 13.4479 5.44063C13.7465 5.14688 14.0972 5 14.5 5H17.5C17.9125 5 18.2656 5.14688 18.5594 5.44063C18.8531 5.73438 19 6.0875 19 6.5V9.5C19 9.90278 18.8531 10.2535 18.5594 10.5521C18.2656 10.8507 17.9125 11 17.5 11H14.5ZM14.5 19C14.0972 19 13.7465 18.8529 13.4479 18.5588C13.1493 18.2647 13 17.9112 13 17.4982V14.4945C13 14.0815 13.1493 13.7292 13.4479 13.4375C13.7465 13.1458 14.0972 13 14.5 13H17.5C17.9125 13 18.2656 13.1471 18.5594 13.4412C18.8531 13.7353 19 14.0888 19 14.5018V17.5055C19 17.9185 18.8531 18.2708 18.5594 18.5625C18.2656 18.8542 17.9125 19 17.5 19H14.5Z" fill="white"/>
</svg>
