<svg width="14" height="14" viewBox="0 0 14 14" fill="none" xmlns="http://www.w3.org/2000/svg">
<path id="Vector" d="M1.4945 6C1.0815 6 0.729167 5.85069 0.4375 5.55208C0.145833 5.25347 0 4.90278 0 4.5V1.5C0 1.0875 0.147055 0.734376 0.441167 0.440626C0.735278 0.146876 1.08883 0 1.50183 0H4.5055C4.9185 0 5.27083 0.146876 5.5625 0.440626C5.85417 0.734376 6 1.0875 6 1.5V4.5C6 4.90278 5.85294 5.25347 5.55883 5.55208C5.26472 5.85069 4.91117 6 4.49817 6H1.4945ZM1.4945 14C1.0815 14 0.729167 13.8529 0.4375 13.5588C0.145833 13.2647 0 12.9112 0 12.4982V9.4945C0 9.0815 0.147055 8.72917 0.441167 8.4375C0.735278 8.14583 1.08883 8 1.50183 8H4.5055C4.9185 8 5.27083 8.14706 5.5625 8.44117C5.85417 8.73528 6 9.08883 6 9.50183V12.5055C6 12.9185 5.85294 13.2708 5.55883 13.5625C5.26472 13.8542 4.91117 14 4.49817 14H1.4945ZM9.5 6C9.09722 6 8.74653 5.85069 8.44792 5.55208C8.14931 5.25347 8 4.90278 8 4.5V1.5C8 1.0875 8.14931 0.734376 8.44792 0.440626C8.74653 0.146876 9.09722 0 9.5 0H12.5C12.9125 0 13.2656 0.146876 13.5594 0.440626C13.8531 0.734376 14 1.0875 14 1.5V4.5C14 4.90278 13.8531 5.25347 13.5594 5.55208C13.2656 5.85069 12.9125 6 12.5 6H9.5ZM9.5 14C9.09722 14 8.74653 13.8529 8.44792 13.5588C8.14931 13.2647 8 12.9112 8 12.4982V9.4945C8 9.0815 8.14931 8.72917 8.44792 8.4375C8.74653 8.14583 9.09722 8 9.5 8H12.5C12.9125 8 13.2656 8.14706 13.5594 8.44117C13.8531 8.73528 14 9.08883 14 9.50183V12.5055C14 12.9185 13.8531 13.2708 13.5594 13.5625C13.2656 13.8542 12.9125 14 12.5 14H9.5Z" fill="white"/>
</svg>
