<svg width="86" height="24" viewBox="0 0 86 24" fill="none" xmlns="http://www.w3.org/2000/svg">
<g clip-path="url(#clip0_183_172)">
<path d="M34.0978 23.1912C34.1009 22.8826 34.1152 22.891 34.395 22.8491C34.7195 22.8006 35.0503 22.745 35.3562 22.6323C35.8421 22.4533 36.1074 22.0542 36.2041 21.56C36.2779 21.1825 36.341 20.7953 36.3423 20.4122C36.353 17.2261 36.3539 14.04 36.3428 10.8539C36.341 10.3412 36.3023 9.8239 36.0888 9.3391C35.8665 8.83453 35.5154 8.75471 35.0371 8.77271C34.7319 8.78419 34.4289 8.8471 34.1239 8.87651C34.0856 8.88021 34.0396 8.82188 34.0006 8.78822C33.9918 8.7806 33.9968 8.75597 33.9969 8.73918C33.9979 8.19682 33.9483 8.29117 34.4045 8.14836C35.3976 7.83745 36.3915 7.52893 37.3815 7.20831C37.8551 7.05495 38.3201 6.87536 38.7898 6.70982C38.8738 6.6802 38.9603 6.64846 39.0478 6.63983C39.2553 6.61938 39.3368 6.69632 39.3372 6.90452C39.3389 7.68422 39.3381 8.46392 39.3383 9.24361C39.3383 9.31511 39.3383 9.38662 39.3383 9.45812C39.3528 9.46713 39.3673 9.47614 39.3818 9.48516C39.5003 9.38227 39.6227 9.28348 39.7368 9.17584C40.4543 8.49876 41.1852 7.83604 42.0439 7.34058C43.3869 6.56581 44.7994 6.36286 46.2657 6.93786C47.2633 7.32907 47.9408 8.07266 48.3652 9.04852C48.6766 9.76468 48.841 10.5179 48.8806 11.2976C48.8962 11.6051 48.9109 11.9131 48.9112 12.2209C48.9135 14.9919 48.9086 17.7629 48.9175 20.5339C48.9186 20.8843 48.9626 21.2393 49.0297 21.5838C49.1488 22.1955 49.5482 22.5617 50.1398 22.7136C50.3987 22.7801 50.6659 22.8184 50.9314 22.8535C51.0699 22.8718 51.1255 22.929 51.1305 23.0672C51.1446 23.4565 51.1433 23.4615 50.7533 23.4615C48.458 23.4615 46.1628 23.4624 43.8675 23.4584C43.764 23.4582 43.5895 23.4371 43.5713 23.3837C43.5273 23.2541 43.5387 23.0964 43.5656 22.9574C43.5744 22.9121 43.6971 22.8753 43.7729 22.859C44.0456 22.8004 44.3264 22.7728 44.5933 22.6956C45.0737 22.5567 45.3752 22.2162 45.5532 21.7572C45.7445 21.2641 45.816 20.7459 45.8176 20.2246C45.8264 17.4368 45.8283 14.6489 45.8167 11.8611C45.8141 11.2446 45.7317 10.6322 45.4838 10.0544C45.1519 9.28083 44.5551 8.86994 43.7423 8.71494C42.6166 8.50025 41.6714 8.89477 40.8096 9.56141C40.3816 9.89244 39.9861 10.2654 39.5747 10.618C39.4731 10.7051 39.4376 10.8113 39.4377 10.9445C39.4399 14.3325 39.437 17.7205 39.4428 21.1086C39.4434 21.4932 39.5231 21.8671 39.7756 22.1801C39.9649 22.4148 40.2113 22.5741 40.4963 22.6468C40.8468 22.7362 41.2074 22.7852 41.5624 22.858C41.656 22.8772 41.8102 22.9032 41.8233 22.9549C41.8586 23.0945 41.8368 23.2499 41.8273 23.3984C41.8259 23.4194 41.7684 23.4449 41.7333 23.4537C41.6908 23.4644 41.6444 23.4611 41.5997 23.4611C39.1869 23.4614 36.7741 23.4616 34.3612 23.4611C34.1159 23.461 34.1052 23.4489 34.0978 23.1912Z" fill="white"/>
<path d="M12.3232 17.6374C11.401 17.6491 10.4936 17.6949 9.58903 17.6624C8.62449 17.6279 7.66112 17.5343 6.69995 17.439C5.72405 17.3424 4.76703 17.1329 3.82481 16.8615C2.95621 16.6114 2.11037 16.3043 1.36354 15.7768C0.98869 15.512 0.647996 15.2098 0.515871 14.7476C0.386779 14.296 0.506563 13.8941 0.811357 13.5456C1.12548 13.1863 1.50983 12.919 1.92982 12.6989C2.97708 12.1502 4.10118 11.8269 5.25508 11.6214C6.17817 11.4571 7.11232 11.3505 8.04428 11.2418C9.19687 11.1073 10.3571 11.1126 11.5136 11.15C13.0569 11.1998 14.5911 11.3599 16.1021 11.6992C17.1042 11.9243 18.0854 12.213 19.0015 12.6873C19.4552 12.9222 19.8805 13.2019 20.196 13.6192C20.6152 14.1736 20.5697 14.8179 20.0951 15.3296C19.6373 15.8234 19.0625 16.1313 18.4589 16.3901C17.2154 16.9234 15.9057 17.2153 14.5721 17.3988C13.8309 17.5008 13.0837 17.5592 12.3232 17.6374Z" fill="white"/>
<path d="M65.3527 20.0749C64.9757 20.6699 64.5365 21.2005 64.0398 21.6788C62.9313 22.7464 61.6337 23.4605 60.1063 23.7179C58.8076 23.9368 57.528 23.8547 56.2896 23.3912C55.5557 23.1165 54.8944 22.7108 54.3206 22.1669C53.1218 21.0305 52.4979 19.6002 52.1723 18.0104C51.951 16.9305 51.9293 15.8381 51.9794 14.7461C52.0284 13.6784 52.2284 12.6318 52.5998 11.6251C52.9282 10.735 53.3877 9.91958 53.9988 9.19055C54.6266 8.44173 55.3804 7.85022 56.2437 7.40559C56.9997 7.0162 57.8019 6.7516 58.653 6.66626C59.6765 6.56364 60.6894 6.62622 61.6732 6.94165C62.6241 7.24655 63.4471 7.75984 64.1026 8.52622C65.0289 9.60928 65.4811 10.896 65.7069 12.2788C65.7547 12.5714 65.778 12.8681 65.8208 13.1617C65.8388 13.2852 65.7872 13.3273 65.6763 13.328C65.6035 13.3285 65.5308 13.3295 65.458 13.3295C61.9086 13.3296 58.3592 13.3295 54.8098 13.3296C54.5163 13.3296 54.5023 13.331 54.5258 13.6251C54.6068 14.6379 54.7596 15.6393 55.0399 16.6182C55.2866 17.48 55.6255 18.3005 56.132 19.0448C57.0121 20.3381 58.2119 21.1022 59.782 21.2431C61.3428 21.3832 62.7194 20.9409 63.9166 19.9257C64.6825 19.2763 65.2657 18.4795 65.7937 17.6361C65.9192 17.4356 65.9223 17.4308 66.1368 17.5192C66.5517 17.69 66.5502 17.6894 66.389 18.1046C66.12 18.7972 65.7709 19.4474 65.3527 20.0749ZM59.1082 12.1515C59.1865 12.1515 59.2649 12.1515 59.3432 12.1515C60.1824 12.1513 61.0215 12.1521 61.8607 12.1504C62.0645 12.15 62.0823 12.1263 62.0519 11.9227C62.0296 11.7732 62.0044 11.6242 61.9794 11.4751C61.8647 10.7931 61.7104 10.1218 61.3806 9.50678C60.9973 8.79209 60.4259 8.30984 59.6328 8.09528C59.0538 7.9386 58.4694 7.94516 57.8856 8.0172C57.0847 8.11602 56.3935 8.45687 55.8693 9.07933C55.1625 9.91864 54.849 10.9313 54.6491 11.9885C54.6277 12.102 54.6727 12.1464 54.7782 12.1491C54.8397 12.1507 54.9012 12.1514 54.9627 12.1514C56.3334 12.1515 57.704 12.1515 59.1082 12.1515Z" fill="white"/>
<path d="M72.2376 7.75275C73.2891 7.14127 74.4048 6.77198 75.6062 6.6611C77.2176 6.51238 78.7134 6.89616 80.0908 7.70572C80.9706 8.22288 81.5323 9.02267 81.7393 10.0383C81.8891 10.7736 81.5484 11.446 80.8684 11.7553C80.2821 12.022 79.6928 12.0711 79.1352 11.6619C78.8764 11.4719 78.6672 11.228 78.5506 10.9382C78.3653 10.4775 78.2263 9.99799 78.0729 9.52477C78.0072 9.32239 77.9569 9.1151 77.8956 8.91126C77.6991 8.25853 77.2515 7.89752 76.5898 7.78464C75.7468 7.64086 74.9328 7.71696 74.1458 8.07151C73.3173 8.44473 72.655 9.00858 72.1414 9.7555C71.5368 10.6349 71.218 11.6221 71.0925 12.669C71.0188 13.2844 70.9821 13.9091 70.9914 14.5286C71.008 15.6422 71.2329 16.7179 71.6874 17.7426C72.0258 18.5058 72.4824 19.1842 73.0856 19.7578C73.9192 20.5503 74.9039 21.0277 76.0559 21.1421C77.1337 21.2491 78.1544 21.0611 79.0937 20.5181C79.4204 20.3292 79.7242 20.0918 80.0114 19.8451C80.6576 19.29 81.1545 18.6048 81.6225 17.8993C81.7109 17.7661 81.7872 17.745 81.9194 17.8315C82.3712 18.1268 82.2968 18.0435 82.1047 18.4397C81.6314 19.4159 81.0754 20.3412 80.3834 21.1795C79.3878 22.3855 78.186 23.2837 76.6399 23.6478C75.433 23.932 74.2306 23.91 73.0481 23.5159C72.2661 23.2553 71.5524 22.8623 70.9171 22.3335C69.5049 21.1579 68.695 19.6291 68.3467 17.8466C68.2399 17.2997 68.207 16.7369 68.1621 16.1797C68.0737 15.0806 68.2025 13.9976 68.4663 12.9322C68.8003 11.5831 69.405 10.3663 70.3336 9.32707C70.8841 8.71097 71.5045 8.17092 72.2376 7.75275Z" fill="white"/>
<path d="M18.0873 5.7351C19.0544 5.50666 20.0177 5.33742 20.997 5.28404C21.8167 5.23935 22.6382 5.1798 23.458 5.19131C25.1889 5.2156 26.9079 5.37683 28.5789 5.86515C29.2232 6.05343 29.8608 6.27462 30.3976 6.70032C30.5444 6.81677 30.6837 6.95579 30.7882 7.1104C31.0959 7.56561 30.8982 8.03395 30.5532 8.33695C30.142 8.69806 29.6563 8.92376 29.1493 9.10714C28.2352 9.43784 27.2872 9.6244 26.3276 9.76172C24.9448 9.95959 23.5531 10.0068 22.1614 9.95666C20.4704 9.89579 18.7948 9.69998 17.1794 9.1533C16.6318 8.96798 16.1046 8.74013 15.661 8.35368C15.1935 7.94637 15.0889 7.40854 15.5505 6.9202C15.9066 6.54345 16.3561 6.31609 16.8288 6.13828C17.2363 5.98499 17.6583 5.87062 18.0873 5.7351Z" fill="white"/>
<path d="M31.3115 3.87068C29.9787 3.75633 28.6654 3.6167 27.4328 3.09125C27.1942 2.98955 26.9672 2.84426 26.7618 2.68437C26.4149 2.41434 26.4282 1.98733 26.7607 1.7017C27.1716 1.34872 27.6662 1.1704 28.1725 1.02398C29.0078 0.782421 29.8647 0.659269 30.7283 0.566499C31.7378 0.458049 32.7505 0.440941 33.7611 0.478673C35.2214 0.533199 36.6736 0.679135 38.0676 1.16502C38.4387 1.29436 38.796 1.45487 39.0788 1.74281C39.3976 2.06727 39.3692 2.4414 39.0082 2.72355C38.5985 3.04383 38.1229 3.22356 37.6321 3.36391C36.7039 3.62931 35.7543 3.77659 34.7922 3.83942C34.3241 3.86999 33.855 3.89239 33.386 3.90224C32.8783 3.9129 32.3702 3.90749 31.8623 3.90306C31.6839 3.9015 31.5056 3.8821 31.3115 3.87068Z" fill="white"/>
<path d="M82.2708 8.27782C82.1308 7.48018 82.6908 6.70432 83.4824 6.56626C84.3419 6.41633 85.217 6.99633 85.2495 8.01149C85.2714 8.69333 84.8759 9.28519 84.1762 9.48351C83.2785 9.73797 82.4509 9.2118 82.2708 8.27782ZM84.9154 8.276C84.9184 8.16976 84.9256 8.06345 84.9238 7.95728C84.9148 7.42844 84.5424 6.95923 84.0315 6.82987C83.5454 6.70678 82.9983 6.93585 82.7459 7.36817C82.461 7.85617 82.5198 8.5352 82.8931 8.91691C83.21 9.24101 83.6014 9.37158 84.0416 9.25313C84.5211 9.1241 84.807 8.79264 84.9154 8.276Z" fill="white"/>
<path d="M84.9124 8.29037C84.807 8.79264 84.5211 9.1241 84.0416 9.25313C83.6014 9.37158 83.21 9.24101 82.8931 8.91691C82.5198 8.5352 82.461 7.85617 82.7459 7.36817C82.9983 6.93585 83.5454 6.70678 84.0315 6.82987C84.5424 6.95923 84.9148 7.42844 84.9238 7.95728C84.9256 8.06345 84.9184 8.16976 84.9124 8.29037ZM83.179 7.36463C83.1789 7.8125 83.1788 8.26036 83.1788 8.70822C83.1788 8.81512 83.1858 8.91747 83.3322 8.9154C83.48 8.91331 83.4788 8.80652 83.4799 8.70239C83.4814 8.56805 83.4756 8.43318 83.4864 8.29963C83.4902 8.25217 83.5266 8.17686 83.5602 8.16955C83.6088 8.15896 83.6741 8.18955 83.7212 8.21989C83.7554 8.24194 83.7716 8.292 83.7958 8.32957C83.9049 8.49866 84.01 8.67057 84.1247 8.83569C84.1824 8.91867 84.3971 8.95788 84.4196 8.89396C84.4389 8.83888 84.4019 8.75213 84.3677 8.69211C84.2693 8.51988 84.1597 8.35412 84.0529 8.18322C84.089 8.16299 84.1025 8.15313 84.1176 8.14724C84.3843 8.04326 84.5012 7.82395 84.4465 7.52935C84.4051 7.3063 84.2372 7.17786 83.9674 7.17172C83.7663 7.16714 83.5651 7.17195 83.364 7.17044C83.2518 7.1696 83.1797 7.20972 83.179 7.36463Z" fill="white"/>
<path d="M83.1796 7.34929C83.1797 7.20972 83.2518 7.1696 83.364 7.17044C83.5651 7.17195 83.7663 7.16714 83.9674 7.17172C84.2372 7.17786 84.4051 7.3063 84.4465 7.52935C84.5012 7.82395 84.3843 8.04326 84.1176 8.14724C84.1025 8.15313 84.089 8.16299 84.0529 8.18322C84.1597 8.35412 84.2693 8.51988 84.3677 8.69211C84.4019 8.75213 84.4389 8.83888 84.4196 8.89396C84.3971 8.95788 84.1824 8.91867 84.1247 8.83569C84.01 8.67057 83.9049 8.49866 83.7958 8.32957C83.7716 8.292 83.7554 8.24194 83.7212 8.21989C83.6741 8.18955 83.6088 8.15896 83.5602 8.16955C83.5266 8.17686 83.4902 8.25217 83.4864 8.29963C83.4756 8.43318 83.4814 8.56805 83.4799 8.70239C83.4788 8.80652 83.48 8.91331 83.3322 8.9154C83.1858 8.91747 83.1788 8.81512 83.1788 8.70822C83.1788 8.26036 83.1789 7.8125 83.1796 7.34929ZM83.4978 7.83311C83.6238 7.93967 83.9569 7.93696 84.0684 7.82846C84.1851 7.715 84.1687 7.51421 84.0175 7.46977C83.8697 7.42629 83.6983 7.41045 83.5522 7.44522C83.5059 7.45624 83.5072 7.66885 83.4871 7.78926C83.4862 7.79447 83.4885 7.80023 83.4978 7.83311Z" fill="white"/>
<path d="M83.4936 7.81942C83.4885 7.80023 83.4862 7.79447 83.4871 7.78926C83.5072 7.66885 83.5059 7.45624 83.5522 7.44522C83.6983 7.41045 83.8697 7.42629 84.0175 7.46977C84.1687 7.51421 84.1851 7.715 84.0684 7.82846C83.9569 7.93696 83.6238 7.93967 83.4936 7.81942Z" fill="white"/>
</g>
<defs>
<clipPath id="clip0_183_172">
<rect width="86" height="24" fill="white"/>
</clipPath>
</defs>
</svg>
