<svg width="14" height="12" viewBox="0 0 14 12" fill="none" xmlns="http://www.w3.org/2000/svg">
<path id="Vector" d="M0.75 8.66667C0.513889 8.66667 0.329861 8.60069 0.197917 8.46875C0.0659722 8.33681 0 8.15278 0 7.91667V7.41667C0 7.18056 0.0659722 6.99653 0.197917 6.86458C0.329861 6.73264 0.513889 6.66667 0.75 6.66667H13.25C13.4861 6.66667 13.6701 6.73264 13.8021 6.86458C13.934 6.99653 14 7.18056 14 7.41667V7.91667C14 8.15278 13.934 8.33681 13.8021 8.46875C13.6701 8.60069 13.4861 8.66667 13.25 8.66667H0.75ZM0.75 5.33333C0.513889 5.33333 0.329861 5.26736 0.197917 5.13542C0.0659722 5.00347 0 4.81944 0 4.58333V4.08333C0 3.84722 0.0659722 3.66319 0.197917 3.53125C0.329861 3.39931 0.513889 3.33333 0.75 3.33333H13.25C13.4861 3.33333 13.6701 3.39931 13.8021 3.53125C13.934 3.66319 14 3.84722 14 4.08333V4.58333C14 4.81944 13.934 5.00347 13.8021 5.13542C13.6701 5.26736 13.4861 5.33333 13.25 5.33333H0.75ZM0.75 2C0.513889 2 0.329861 1.93403 0.197917 1.80208C0.0659722 1.67014 0 1.48611 0 1.25V0.75C0 0.513889 0.0659722 0.329861 0.197917 0.197917C0.329861 0.0659722 0.513889 0 0.75 0H13.25C13.4861 0 13.6701 0.0659722 13.8021 0.197917C13.934 0.329861 14 0.513889 14 0.75V1.25C14 1.48611 13.934 1.67014 13.8021 1.80208C13.6701 1.93403 13.4861 2 13.25 2H0.75ZM0.75 12C0.513889 12 0.329861 11.934 0.197917 11.8021C0.0659722 11.6701 0 11.4861 0 11.25V10.75C0 10.5139 0.0659722 10.3299 0.197917 10.1979C0.329861 10.066 0.513889 10 0.75 10H13.25C13.4861 10 13.6701 10.066 13.8021 10.1979C13.934 10.3299 14 10.5139 14 10.75V11.25C14 11.4861 13.934 11.6701 13.8021 11.8021C13.6701 11.934 13.4861 12 13.25 12H0.75Z" fill="#909498"/>
</svg>
