<svg width="24" height="24" viewBox="0 0 24 24" fill="none" xmlns="http://www.w3.org/2000/svg">
<rect width="24" height="24" fill="#F3F3F7"/>
<path d="M5.75 14.6667C5.51389 14.6667 5.32986 14.6007 5.19792 14.4688C5.06597 14.3368 5 14.1528 5 13.9167V13.4167C5 13.1806 5.06597 12.9965 5.19792 12.8646C5.32986 12.7326 5.51389 12.6667 5.75 12.6667H18.25C18.4861 12.6667 18.6701 12.7326 18.8021 12.8646C18.934 12.9965 19 13.1806 19 13.4167V13.9167C19 14.1528 18.934 14.3368 18.8021 14.4688C18.6701 14.6007 18.4861 14.6667 18.25 14.6667H5.75ZM5.75 11.3333C5.51389 11.3333 5.32986 11.2674 5.19792 11.1354C5.06597 11.0035 5 10.8194 5 10.5833V10.0833C5 9.84722 5.06597 9.66319 5.19792 9.53125C5.32986 9.39931 5.51389 9.33333 5.75 9.33333H18.25C18.4861 9.33333 18.6701 9.39931 18.8021 9.53125C18.934 9.66319 19 9.84722 19 10.0833V10.5833C19 10.8194 18.934 11.0035 18.8021 11.1354C18.6701 11.2674 18.4861 11.3333 18.25 11.3333H5.75ZM5.75 8C5.51389 8 5.32986 7.93403 5.19792 7.80208C5.06597 7.67014 5 7.48611 5 7.25V6.75C5 6.51389 5.06597 6.32986 5.19792 6.19792C5.32986 6.06597 5.51389 6 5.75 6H18.25C18.4861 6 18.6701 6.06597 18.8021 6.19792C18.934 6.32986 19 6.51389 19 6.75V7.25C19 7.48611 18.934 7.67014 18.8021 7.80208C18.6701 7.93403 18.4861 8 18.25 8H5.75ZM5.75 18C5.51389 18 5.32986 17.934 5.19792 17.8021C5.06597 17.6701 5 17.4861 5 17.25V16.75C5 16.5139 5.06597 16.3299 5.19792 16.1979C5.32986 16.066 5.51389 16 5.75 16H18.25C18.4861 16 18.6701 16.066 18.8021 16.1979C18.934 16.3299 19 16.5139 19 16.75V17.25C19 17.4861 18.934 17.6701 18.8021 17.8021C18.6701 17.934 18.4861 18 18.25 18H5.75Z" fill="#909498"/>
</svg>
