<svg width="12" height="14" viewBox="0 0 12 14" fill="none" xmlns="http://www.w3.org/2000/svg">
<path id="Vector" d="M2.5 14C2.08333 14 1.72917 13.8542 1.4375 13.5625C1.14583 13.2708 1 12.9167 1 12.5V2.5H0.75C0.541667 2.5 0.364583 2.42708 0.21875 2.28125C0.0729167 2.13542 0 1.95833 0 1.75C0 1.54167 0.0729167 1.36458 0.21875 1.21875C0.364583 1.07292 0.541667 1 0.75 1H4V0.75C4 0.541667 4.07292 0.364583 4.21875 0.21875C4.36458 0.0729167 4.54167 0 4.75 0H7.25C7.45833 0 7.63542 0.0729167 7.78125 0.21875C7.92708 0.364583 8 0.541667 8 0.75V1H11.25C11.4583 1 11.6354 1.07292 11.7812 1.21875C11.9271 1.36458 12 1.54167 12 1.75C12 1.95833 11.9271 2.13542 11.7812 2.28125C11.6354 2.42708 11.4583 2.5 11.25 2.5H11V12.5C11 12.9167 10.8542 13.2708 10.5625 13.5625C10.2708 13.8542 9.91667 14 9.5 14H2.5ZM6 8.5625L7.14583 9.70833C7.29861 9.86111 7.47569 9.93403 7.67708 9.92708C7.87847 9.92014 8.05556 9.84028 8.20833 9.6875C8.36111 9.53472 8.4375 9.35764 8.4375 9.15625C8.4375 8.95486 8.36111 8.77778 8.20833 8.625L7.0625 7.5L8.20833 6.35417C8.36111 6.20139 8.4375 6.02431 8.4375 5.82292C8.4375 5.62153 8.36111 5.44444 8.20833 5.29167C8.05556 5.13889 7.87847 5.0625 7.67708 5.0625C7.47569 5.0625 7.29861 5.13889 7.14583 5.29167L6 6.4375L4.85417 5.29167C4.70139 5.13889 4.52778 5.0625 4.33333 5.0625C4.13889 5.0625 3.96528 5.13889 3.8125 5.29167C3.65972 5.44444 3.58333 5.62153 3.58333 5.82292C3.58333 6.02431 3.65972 6.20139 3.8125 6.35417L4.9375 7.5L3.79167 8.64583C3.63889 8.79861 3.56597 8.97222 3.57292 9.16667C3.57986 9.36111 3.65972 9.53472 3.8125 9.6875C3.96528 9.84028 4.14236 9.91667 4.34375 9.91667C4.54514 9.91667 4.72222 9.84028 4.875 9.6875L6 8.5625Z" fill="#FF5C5C"/>
</svg>
