<svg width="10" height="14" viewBox="0 0 10 14" fill="none" xmlns="http://www.w3.org/2000/svg">
<path id="Vector" d="M5 12.3487L2.0625 13.5362C1.57639 13.7307 1.11111 13.6786 0.666667 13.38C0.222222 13.0814 0 12.6682 0 12.1404V1.84872C0 1.43622 0.146875 1.0831 0.440625 0.78935C0.734375 0.4956 1.0875 0.348724 1.5 0.348724H8.5C8.9125 0.348724 9.26562 0.4956 9.55937 0.78935C9.85312 1.0831 10 1.43622 10 1.84872V12.1404C10 12.6682 9.77778 13.0814 9.33333 13.38C8.88889 13.6786 8.42361 13.7307 7.9375 13.5362L5 12.3487ZM5 10.7237L8.5 12.1196V1.84872H1.5V12.1196L5 10.7237ZM5 1.84872H1.5H8.5H5Z" fill="#003866"/>
</svg>
