<svg width="20" height="21" viewBox="0 0 20 21" fill="none" xmlns="http://www.w3.org/2000/svg">
<g id="search_FILL0_wght400_GRAD0_opsz24 1">
<path id="Vector" d="M16.3332 18L11.0832 12.75C10.6665 13.0833 10.1873 13.3472 9.64565 13.5417C9.10398 13.7361 8.5276 13.8333 7.91648 13.8333C6.40259 13.8333 5.12134 13.309 4.07273 12.2604C3.02412 11.2118 2.49982 9.93056 2.49982 8.41667C2.49982 6.90278 3.02412 5.62153 4.07273 4.57292C5.12134 3.52431 6.40259 3 7.91648 3C9.43037 3 10.7116 3.52431 11.7602 4.57292C12.8088 5.62153 13.3332 6.90278 13.3332 8.41667C13.3332 9.02778 13.2359 9.60417 13.0415 10.1458C12.847 10.6875 12.5832 11.1667 12.2498 11.5833L17.4998 16.8333L16.3332 18ZM7.91648 12.1667C8.95815 12.1667 9.84357 11.8021 10.5727 11.0729C11.3019 10.3438 11.6665 9.45833 11.6665 8.41667C11.6665 7.375 11.3019 6.48958 10.5727 5.76042C9.84357 5.03125 8.95815 4.66667 7.91648 4.66667C6.87482 4.66667 5.9894 5.03125 5.26023 5.76042C4.53107 6.48958 4.16648 7.375 4.16648 8.41667C4.16648 9.45833 4.53107 10.3438 5.26023 11.0729C5.9894 11.8021 6.87482 12.1667 7.91648 12.1667Z" fill="#000E1A"/>
</g>
</svg>
