<svg width="16" height="20" viewBox="0 0 16 20" fill="none" xmlns="http://www.w3.org/2000/svg">
<path id="Vector" d="M7.53132 4.52151C7.63175 4.52151 7.682 4.4629 7.70711 4.37083C7.96658 2.97294 7.94986 2.93947 9.40632 2.66322C9.50675 2.64651 9.56536 2.5879 9.56536 2.48744C9.56536 2.38701 9.50675 2.3284 9.40632 2.31165C7.95822 2.01872 8.00007 1.98522 7.70711 0.604078C7.682 0.512007 7.63175 0.4534 7.53132 0.4534C7.43086 0.4534 7.38065 0.512007 7.35554 0.604078C7.06257 1.98522 7.11279 2.01872 5.65632 2.31165C5.56425 2.3284 5.49729 2.38701 5.49729 2.48744C5.49729 2.5879 5.56425 2.64651 5.65632 2.66322C7.11279 2.95622 7.09604 2.97294 7.35554 4.37083C7.38065 4.4629 7.43086 4.52151 7.53132 4.52151ZM3.48 10.2804C3.63904 10.2804 3.74786 10.18 3.76457 10.0293C4.06593 7.79436 4.14125 7.79436 6.45154 7.35076C6.60222 7.32561 6.711 7.22518 6.711 7.06615C6.711 6.91547 6.60222 6.80665 6.45154 6.78154C4.14125 6.46347 4.05754 6.38811 3.76457 4.11133C3.74786 3.96069 3.63904 3.85186 3.48 3.85186C3.32932 3.85186 3.2205 3.96069 3.20375 4.11972C2.92754 6.36301 2.81032 6.35465 0.516824 6.78154C0.366146 6.81504 0.257324 6.91547 0.257324 7.06615C0.257324 7.23354 0.366146 7.32561 0.550289 7.35076C2.82707 7.71904 2.92754 7.77765 3.20375 10.0126C3.2205 10.18 3.32932 10.2804 3.48 10.2804ZM9.15522 19.5466C9.37286 19.5466 9.5319 19.3876 9.57372 19.1616C10.168 14.5745 10.8126 13.8798 15.3494 13.3775C15.5838 13.3524 15.7428 13.1766 15.7428 12.959C15.7428 12.7414 15.5838 12.5739 15.3494 12.5405C10.8126 12.0382 10.168 11.3435 9.57372 6.75643C9.5319 6.53043 9.37286 6.37976 9.15522 6.37976C8.93757 6.37976 8.77854 6.53043 8.74508 6.75643C8.15075 11.3435 7.49786 12.0382 2.96936 12.5405C2.72665 12.5739 2.56761 12.7414 2.56761 12.959C2.56761 13.1766 2.72665 13.3524 2.96936 13.3775C7.48947 13.9718 8.11725 14.5829 8.74508 19.1616C8.77854 19.3876 8.93757 19.5466 9.15522 19.5466Z" fill="#00A3BD"/>
</svg>
